G75*
%MOIN*%
%OFA0B0*%
%FSLAX25Y25*%
%IPPOS*%
%LPD*%
%AMOC8*
5,1,8,0,0,1.08239X$1,22.5*
%
%ADD10C,0.01600*%
%ADD11C,0.00000*%
%ADD12C,0.07000*%
%ADD13C,0.07400*%
%ADD14C,0.05550*%
%ADD15C,0.07677*%
%ADD16C,0.08858*%
%ADD17C,0.11811*%
%ADD18C,0.11811*%
%ADD19R,0.04362X0.04362*%
%ADD20C,0.05600*%
D10*
X0001800Y0001800D02*
X0527391Y0001800D01*
X0527391Y0777391D01*
X0001800Y0777391D01*
X0001800Y0001800D01*
X0059871Y0151406D02*
X0059871Y0200619D01*
X0093335Y0200619D02*
X0093335Y0162233D01*
X0119910Y0208493D02*
X0150422Y0177981D01*
X0318965Y0390540D02*
X0377076Y0448650D01*
X0420107Y0489005D02*
X0420107Y0105146D01*
X0429950Y0121879D02*
X0429950Y0472272D01*
X0439792Y0472272D02*
X0439792Y0159280D01*
X0449635Y0165186D02*
X0449635Y0472272D01*
X0459477Y0472272D02*
X0459477Y0171091D01*
X0113020Y0612824D02*
X0113020Y0738020D01*
X0081524Y0683887D02*
X0081524Y0615973D01*
X0071682Y0615973D02*
X0071682Y0699635D01*
X0061839Y0715383D02*
X0061839Y0615973D01*
X0051997Y0615973D02*
X0051997Y0731131D01*
D11*
X0045107Y0751800D02*
X0045109Y0751993D01*
X0045116Y0752186D01*
X0045128Y0752379D01*
X0045145Y0752572D01*
X0045166Y0752764D01*
X0045192Y0752955D01*
X0045223Y0753146D01*
X0045258Y0753336D01*
X0045298Y0753525D01*
X0045343Y0753713D01*
X0045392Y0753900D01*
X0045446Y0754086D01*
X0045504Y0754270D01*
X0045567Y0754453D01*
X0045635Y0754634D01*
X0045706Y0754813D01*
X0045783Y0754991D01*
X0045863Y0755167D01*
X0045948Y0755340D01*
X0046037Y0755512D01*
X0046130Y0755681D01*
X0046227Y0755848D01*
X0046329Y0756013D01*
X0046434Y0756175D01*
X0046543Y0756334D01*
X0046657Y0756491D01*
X0046774Y0756644D01*
X0046894Y0756795D01*
X0047019Y0756943D01*
X0047147Y0757088D01*
X0047278Y0757229D01*
X0047413Y0757368D01*
X0047552Y0757503D01*
X0047693Y0757634D01*
X0047838Y0757762D01*
X0047986Y0757887D01*
X0048137Y0758007D01*
X0048290Y0758124D01*
X0048447Y0758238D01*
X0048606Y0758347D01*
X0048768Y0758452D01*
X0048933Y0758554D01*
X0049100Y0758651D01*
X0049269Y0758744D01*
X0049441Y0758833D01*
X0049614Y0758918D01*
X0049790Y0758998D01*
X0049968Y0759075D01*
X0050147Y0759146D01*
X0050328Y0759214D01*
X0050511Y0759277D01*
X0050695Y0759335D01*
X0050881Y0759389D01*
X0051068Y0759438D01*
X0051256Y0759483D01*
X0051445Y0759523D01*
X0051635Y0759558D01*
X0051826Y0759589D01*
X0052017Y0759615D01*
X0052209Y0759636D01*
X0052402Y0759653D01*
X0052595Y0759665D01*
X0052788Y0759672D01*
X0052981Y0759674D01*
X0053174Y0759672D01*
X0053367Y0759665D01*
X0053560Y0759653D01*
X0053753Y0759636D01*
X0053945Y0759615D01*
X0054136Y0759589D01*
X0054327Y0759558D01*
X0054517Y0759523D01*
X0054706Y0759483D01*
X0054894Y0759438D01*
X0055081Y0759389D01*
X0055267Y0759335D01*
X0055451Y0759277D01*
X0055634Y0759214D01*
X0055815Y0759146D01*
X0055994Y0759075D01*
X0056172Y0758998D01*
X0056348Y0758918D01*
X0056521Y0758833D01*
X0056693Y0758744D01*
X0056862Y0758651D01*
X0057029Y0758554D01*
X0057194Y0758452D01*
X0057356Y0758347D01*
X0057515Y0758238D01*
X0057672Y0758124D01*
X0057825Y0758007D01*
X0057976Y0757887D01*
X0058124Y0757762D01*
X0058269Y0757634D01*
X0058410Y0757503D01*
X0058549Y0757368D01*
X0058684Y0757229D01*
X0058815Y0757088D01*
X0058943Y0756943D01*
X0059068Y0756795D01*
X0059188Y0756644D01*
X0059305Y0756491D01*
X0059419Y0756334D01*
X0059528Y0756175D01*
X0059633Y0756013D01*
X0059735Y0755848D01*
X0059832Y0755681D01*
X0059925Y0755512D01*
X0060014Y0755340D01*
X0060099Y0755167D01*
X0060179Y0754991D01*
X0060256Y0754813D01*
X0060327Y0754634D01*
X0060395Y0754453D01*
X0060458Y0754270D01*
X0060516Y0754086D01*
X0060570Y0753900D01*
X0060619Y0753713D01*
X0060664Y0753525D01*
X0060704Y0753336D01*
X0060739Y0753146D01*
X0060770Y0752955D01*
X0060796Y0752764D01*
X0060817Y0752572D01*
X0060834Y0752379D01*
X0060846Y0752186D01*
X0060853Y0751993D01*
X0060855Y0751800D01*
X0060853Y0751607D01*
X0060846Y0751414D01*
X0060834Y0751221D01*
X0060817Y0751028D01*
X0060796Y0750836D01*
X0060770Y0750645D01*
X0060739Y0750454D01*
X0060704Y0750264D01*
X0060664Y0750075D01*
X0060619Y0749887D01*
X0060570Y0749700D01*
X0060516Y0749514D01*
X0060458Y0749330D01*
X0060395Y0749147D01*
X0060327Y0748966D01*
X0060256Y0748787D01*
X0060179Y0748609D01*
X0060099Y0748433D01*
X0060014Y0748260D01*
X0059925Y0748088D01*
X0059832Y0747919D01*
X0059735Y0747752D01*
X0059633Y0747587D01*
X0059528Y0747425D01*
X0059419Y0747266D01*
X0059305Y0747109D01*
X0059188Y0746956D01*
X0059068Y0746805D01*
X0058943Y0746657D01*
X0058815Y0746512D01*
X0058684Y0746371D01*
X0058549Y0746232D01*
X0058410Y0746097D01*
X0058269Y0745966D01*
X0058124Y0745838D01*
X0057976Y0745713D01*
X0057825Y0745593D01*
X0057672Y0745476D01*
X0057515Y0745362D01*
X0057356Y0745253D01*
X0057194Y0745148D01*
X0057029Y0745046D01*
X0056862Y0744949D01*
X0056693Y0744856D01*
X0056521Y0744767D01*
X0056348Y0744682D01*
X0056172Y0744602D01*
X0055994Y0744525D01*
X0055815Y0744454D01*
X0055634Y0744386D01*
X0055451Y0744323D01*
X0055267Y0744265D01*
X0055081Y0744211D01*
X0054894Y0744162D01*
X0054706Y0744117D01*
X0054517Y0744077D01*
X0054327Y0744042D01*
X0054136Y0744011D01*
X0053945Y0743985D01*
X0053753Y0743964D01*
X0053560Y0743947D01*
X0053367Y0743935D01*
X0053174Y0743928D01*
X0052981Y0743926D01*
X0052788Y0743928D01*
X0052595Y0743935D01*
X0052402Y0743947D01*
X0052209Y0743964D01*
X0052017Y0743985D01*
X0051826Y0744011D01*
X0051635Y0744042D01*
X0051445Y0744077D01*
X0051256Y0744117D01*
X0051068Y0744162D01*
X0050881Y0744211D01*
X0050695Y0744265D01*
X0050511Y0744323D01*
X0050328Y0744386D01*
X0050147Y0744454D01*
X0049968Y0744525D01*
X0049790Y0744602D01*
X0049614Y0744682D01*
X0049441Y0744767D01*
X0049269Y0744856D01*
X0049100Y0744949D01*
X0048933Y0745046D01*
X0048768Y0745148D01*
X0048606Y0745253D01*
X0048447Y0745362D01*
X0048290Y0745476D01*
X0048137Y0745593D01*
X0047986Y0745713D01*
X0047838Y0745838D01*
X0047693Y0745966D01*
X0047552Y0746097D01*
X0047413Y0746232D01*
X0047278Y0746371D01*
X0047147Y0746512D01*
X0047019Y0746657D01*
X0046894Y0746805D01*
X0046774Y0746956D01*
X0046657Y0747109D01*
X0046543Y0747266D01*
X0046434Y0747425D01*
X0046329Y0747587D01*
X0046227Y0747752D01*
X0046130Y0747919D01*
X0046037Y0748088D01*
X0045948Y0748260D01*
X0045863Y0748433D01*
X0045783Y0748609D01*
X0045706Y0748787D01*
X0045635Y0748966D01*
X0045567Y0749147D01*
X0045504Y0749330D01*
X0045446Y0749514D01*
X0045392Y0749700D01*
X0045343Y0749887D01*
X0045298Y0750075D01*
X0045258Y0750264D01*
X0045223Y0750454D01*
X0045192Y0750645D01*
X0045166Y0750836D01*
X0045145Y0751028D01*
X0045128Y0751221D01*
X0045116Y0751414D01*
X0045109Y0751607D01*
X0045107Y0751800D01*
X0468335Y0751800D02*
X0468337Y0751993D01*
X0468344Y0752186D01*
X0468356Y0752379D01*
X0468373Y0752572D01*
X0468394Y0752764D01*
X0468420Y0752955D01*
X0468451Y0753146D01*
X0468486Y0753336D01*
X0468526Y0753525D01*
X0468571Y0753713D01*
X0468620Y0753900D01*
X0468674Y0754086D01*
X0468732Y0754270D01*
X0468795Y0754453D01*
X0468863Y0754634D01*
X0468934Y0754813D01*
X0469011Y0754991D01*
X0469091Y0755167D01*
X0469176Y0755340D01*
X0469265Y0755512D01*
X0469358Y0755681D01*
X0469455Y0755848D01*
X0469557Y0756013D01*
X0469662Y0756175D01*
X0469771Y0756334D01*
X0469885Y0756491D01*
X0470002Y0756644D01*
X0470122Y0756795D01*
X0470247Y0756943D01*
X0470375Y0757088D01*
X0470506Y0757229D01*
X0470641Y0757368D01*
X0470780Y0757503D01*
X0470921Y0757634D01*
X0471066Y0757762D01*
X0471214Y0757887D01*
X0471365Y0758007D01*
X0471518Y0758124D01*
X0471675Y0758238D01*
X0471834Y0758347D01*
X0471996Y0758452D01*
X0472161Y0758554D01*
X0472328Y0758651D01*
X0472497Y0758744D01*
X0472669Y0758833D01*
X0472842Y0758918D01*
X0473018Y0758998D01*
X0473196Y0759075D01*
X0473375Y0759146D01*
X0473556Y0759214D01*
X0473739Y0759277D01*
X0473923Y0759335D01*
X0474109Y0759389D01*
X0474296Y0759438D01*
X0474484Y0759483D01*
X0474673Y0759523D01*
X0474863Y0759558D01*
X0475054Y0759589D01*
X0475245Y0759615D01*
X0475437Y0759636D01*
X0475630Y0759653D01*
X0475823Y0759665D01*
X0476016Y0759672D01*
X0476209Y0759674D01*
X0476402Y0759672D01*
X0476595Y0759665D01*
X0476788Y0759653D01*
X0476981Y0759636D01*
X0477173Y0759615D01*
X0477364Y0759589D01*
X0477555Y0759558D01*
X0477745Y0759523D01*
X0477934Y0759483D01*
X0478122Y0759438D01*
X0478309Y0759389D01*
X0478495Y0759335D01*
X0478679Y0759277D01*
X0478862Y0759214D01*
X0479043Y0759146D01*
X0479222Y0759075D01*
X0479400Y0758998D01*
X0479576Y0758918D01*
X0479749Y0758833D01*
X0479921Y0758744D01*
X0480090Y0758651D01*
X0480257Y0758554D01*
X0480422Y0758452D01*
X0480584Y0758347D01*
X0480743Y0758238D01*
X0480900Y0758124D01*
X0481053Y0758007D01*
X0481204Y0757887D01*
X0481352Y0757762D01*
X0481497Y0757634D01*
X0481638Y0757503D01*
X0481777Y0757368D01*
X0481912Y0757229D01*
X0482043Y0757088D01*
X0482171Y0756943D01*
X0482296Y0756795D01*
X0482416Y0756644D01*
X0482533Y0756491D01*
X0482647Y0756334D01*
X0482756Y0756175D01*
X0482861Y0756013D01*
X0482963Y0755848D01*
X0483060Y0755681D01*
X0483153Y0755512D01*
X0483242Y0755340D01*
X0483327Y0755167D01*
X0483407Y0754991D01*
X0483484Y0754813D01*
X0483555Y0754634D01*
X0483623Y0754453D01*
X0483686Y0754270D01*
X0483744Y0754086D01*
X0483798Y0753900D01*
X0483847Y0753713D01*
X0483892Y0753525D01*
X0483932Y0753336D01*
X0483967Y0753146D01*
X0483998Y0752955D01*
X0484024Y0752764D01*
X0484045Y0752572D01*
X0484062Y0752379D01*
X0484074Y0752186D01*
X0484081Y0751993D01*
X0484083Y0751800D01*
X0484081Y0751607D01*
X0484074Y0751414D01*
X0484062Y0751221D01*
X0484045Y0751028D01*
X0484024Y0750836D01*
X0483998Y0750645D01*
X0483967Y0750454D01*
X0483932Y0750264D01*
X0483892Y0750075D01*
X0483847Y0749887D01*
X0483798Y0749700D01*
X0483744Y0749514D01*
X0483686Y0749330D01*
X0483623Y0749147D01*
X0483555Y0748966D01*
X0483484Y0748787D01*
X0483407Y0748609D01*
X0483327Y0748433D01*
X0483242Y0748260D01*
X0483153Y0748088D01*
X0483060Y0747919D01*
X0482963Y0747752D01*
X0482861Y0747587D01*
X0482756Y0747425D01*
X0482647Y0747266D01*
X0482533Y0747109D01*
X0482416Y0746956D01*
X0482296Y0746805D01*
X0482171Y0746657D01*
X0482043Y0746512D01*
X0481912Y0746371D01*
X0481777Y0746232D01*
X0481638Y0746097D01*
X0481497Y0745966D01*
X0481352Y0745838D01*
X0481204Y0745713D01*
X0481053Y0745593D01*
X0480900Y0745476D01*
X0480743Y0745362D01*
X0480584Y0745253D01*
X0480422Y0745148D01*
X0480257Y0745046D01*
X0480090Y0744949D01*
X0479921Y0744856D01*
X0479749Y0744767D01*
X0479576Y0744682D01*
X0479400Y0744602D01*
X0479222Y0744525D01*
X0479043Y0744454D01*
X0478862Y0744386D01*
X0478679Y0744323D01*
X0478495Y0744265D01*
X0478309Y0744211D01*
X0478122Y0744162D01*
X0477934Y0744117D01*
X0477745Y0744077D01*
X0477555Y0744042D01*
X0477364Y0744011D01*
X0477173Y0743985D01*
X0476981Y0743964D01*
X0476788Y0743947D01*
X0476595Y0743935D01*
X0476402Y0743928D01*
X0476209Y0743926D01*
X0476016Y0743928D01*
X0475823Y0743935D01*
X0475630Y0743947D01*
X0475437Y0743964D01*
X0475245Y0743985D01*
X0475054Y0744011D01*
X0474863Y0744042D01*
X0474673Y0744077D01*
X0474484Y0744117D01*
X0474296Y0744162D01*
X0474109Y0744211D01*
X0473923Y0744265D01*
X0473739Y0744323D01*
X0473556Y0744386D01*
X0473375Y0744454D01*
X0473196Y0744525D01*
X0473018Y0744602D01*
X0472842Y0744682D01*
X0472669Y0744767D01*
X0472497Y0744856D01*
X0472328Y0744949D01*
X0472161Y0745046D01*
X0471996Y0745148D01*
X0471834Y0745253D01*
X0471675Y0745362D01*
X0471518Y0745476D01*
X0471365Y0745593D01*
X0471214Y0745713D01*
X0471066Y0745838D01*
X0470921Y0745966D01*
X0470780Y0746097D01*
X0470641Y0746232D01*
X0470506Y0746371D01*
X0470375Y0746512D01*
X0470247Y0746657D01*
X0470122Y0746805D01*
X0470002Y0746956D01*
X0469885Y0747109D01*
X0469771Y0747266D01*
X0469662Y0747425D01*
X0469557Y0747587D01*
X0469455Y0747752D01*
X0469358Y0747919D01*
X0469265Y0748088D01*
X0469176Y0748260D01*
X0469091Y0748433D01*
X0469011Y0748609D01*
X0468934Y0748787D01*
X0468863Y0748966D01*
X0468795Y0749147D01*
X0468732Y0749330D01*
X0468674Y0749514D01*
X0468620Y0749700D01*
X0468571Y0749887D01*
X0468526Y0750075D01*
X0468486Y0750264D01*
X0468451Y0750454D01*
X0468420Y0750645D01*
X0468394Y0750836D01*
X0468373Y0751028D01*
X0468356Y0751221D01*
X0468344Y0751414D01*
X0468337Y0751607D01*
X0468335Y0751800D01*
X0468335Y0027391D02*
X0468337Y0027584D01*
X0468344Y0027777D01*
X0468356Y0027970D01*
X0468373Y0028163D01*
X0468394Y0028355D01*
X0468420Y0028546D01*
X0468451Y0028737D01*
X0468486Y0028927D01*
X0468526Y0029116D01*
X0468571Y0029304D01*
X0468620Y0029491D01*
X0468674Y0029677D01*
X0468732Y0029861D01*
X0468795Y0030044D01*
X0468863Y0030225D01*
X0468934Y0030404D01*
X0469011Y0030582D01*
X0469091Y0030758D01*
X0469176Y0030931D01*
X0469265Y0031103D01*
X0469358Y0031272D01*
X0469455Y0031439D01*
X0469557Y0031604D01*
X0469662Y0031766D01*
X0469771Y0031925D01*
X0469885Y0032082D01*
X0470002Y0032235D01*
X0470122Y0032386D01*
X0470247Y0032534D01*
X0470375Y0032679D01*
X0470506Y0032820D01*
X0470641Y0032959D01*
X0470780Y0033094D01*
X0470921Y0033225D01*
X0471066Y0033353D01*
X0471214Y0033478D01*
X0471365Y0033598D01*
X0471518Y0033715D01*
X0471675Y0033829D01*
X0471834Y0033938D01*
X0471996Y0034043D01*
X0472161Y0034145D01*
X0472328Y0034242D01*
X0472497Y0034335D01*
X0472669Y0034424D01*
X0472842Y0034509D01*
X0473018Y0034589D01*
X0473196Y0034666D01*
X0473375Y0034737D01*
X0473556Y0034805D01*
X0473739Y0034868D01*
X0473923Y0034926D01*
X0474109Y0034980D01*
X0474296Y0035029D01*
X0474484Y0035074D01*
X0474673Y0035114D01*
X0474863Y0035149D01*
X0475054Y0035180D01*
X0475245Y0035206D01*
X0475437Y0035227D01*
X0475630Y0035244D01*
X0475823Y0035256D01*
X0476016Y0035263D01*
X0476209Y0035265D01*
X0476402Y0035263D01*
X0476595Y0035256D01*
X0476788Y0035244D01*
X0476981Y0035227D01*
X0477173Y0035206D01*
X0477364Y0035180D01*
X0477555Y0035149D01*
X0477745Y0035114D01*
X0477934Y0035074D01*
X0478122Y0035029D01*
X0478309Y0034980D01*
X0478495Y0034926D01*
X0478679Y0034868D01*
X0478862Y0034805D01*
X0479043Y0034737D01*
X0479222Y0034666D01*
X0479400Y0034589D01*
X0479576Y0034509D01*
X0479749Y0034424D01*
X0479921Y0034335D01*
X0480090Y0034242D01*
X0480257Y0034145D01*
X0480422Y0034043D01*
X0480584Y0033938D01*
X0480743Y0033829D01*
X0480900Y0033715D01*
X0481053Y0033598D01*
X0481204Y0033478D01*
X0481352Y0033353D01*
X0481497Y0033225D01*
X0481638Y0033094D01*
X0481777Y0032959D01*
X0481912Y0032820D01*
X0482043Y0032679D01*
X0482171Y0032534D01*
X0482296Y0032386D01*
X0482416Y0032235D01*
X0482533Y0032082D01*
X0482647Y0031925D01*
X0482756Y0031766D01*
X0482861Y0031604D01*
X0482963Y0031439D01*
X0483060Y0031272D01*
X0483153Y0031103D01*
X0483242Y0030931D01*
X0483327Y0030758D01*
X0483407Y0030582D01*
X0483484Y0030404D01*
X0483555Y0030225D01*
X0483623Y0030044D01*
X0483686Y0029861D01*
X0483744Y0029677D01*
X0483798Y0029491D01*
X0483847Y0029304D01*
X0483892Y0029116D01*
X0483932Y0028927D01*
X0483967Y0028737D01*
X0483998Y0028546D01*
X0484024Y0028355D01*
X0484045Y0028163D01*
X0484062Y0027970D01*
X0484074Y0027777D01*
X0484081Y0027584D01*
X0484083Y0027391D01*
X0484081Y0027198D01*
X0484074Y0027005D01*
X0484062Y0026812D01*
X0484045Y0026619D01*
X0484024Y0026427D01*
X0483998Y0026236D01*
X0483967Y0026045D01*
X0483932Y0025855D01*
X0483892Y0025666D01*
X0483847Y0025478D01*
X0483798Y0025291D01*
X0483744Y0025105D01*
X0483686Y0024921D01*
X0483623Y0024738D01*
X0483555Y0024557D01*
X0483484Y0024378D01*
X0483407Y0024200D01*
X0483327Y0024024D01*
X0483242Y0023851D01*
X0483153Y0023679D01*
X0483060Y0023510D01*
X0482963Y0023343D01*
X0482861Y0023178D01*
X0482756Y0023016D01*
X0482647Y0022857D01*
X0482533Y0022700D01*
X0482416Y0022547D01*
X0482296Y0022396D01*
X0482171Y0022248D01*
X0482043Y0022103D01*
X0481912Y0021962D01*
X0481777Y0021823D01*
X0481638Y0021688D01*
X0481497Y0021557D01*
X0481352Y0021429D01*
X0481204Y0021304D01*
X0481053Y0021184D01*
X0480900Y0021067D01*
X0480743Y0020953D01*
X0480584Y0020844D01*
X0480422Y0020739D01*
X0480257Y0020637D01*
X0480090Y0020540D01*
X0479921Y0020447D01*
X0479749Y0020358D01*
X0479576Y0020273D01*
X0479400Y0020193D01*
X0479222Y0020116D01*
X0479043Y0020045D01*
X0478862Y0019977D01*
X0478679Y0019914D01*
X0478495Y0019856D01*
X0478309Y0019802D01*
X0478122Y0019753D01*
X0477934Y0019708D01*
X0477745Y0019668D01*
X0477555Y0019633D01*
X0477364Y0019602D01*
X0477173Y0019576D01*
X0476981Y0019555D01*
X0476788Y0019538D01*
X0476595Y0019526D01*
X0476402Y0019519D01*
X0476209Y0019517D01*
X0476016Y0019519D01*
X0475823Y0019526D01*
X0475630Y0019538D01*
X0475437Y0019555D01*
X0475245Y0019576D01*
X0475054Y0019602D01*
X0474863Y0019633D01*
X0474673Y0019668D01*
X0474484Y0019708D01*
X0474296Y0019753D01*
X0474109Y0019802D01*
X0473923Y0019856D01*
X0473739Y0019914D01*
X0473556Y0019977D01*
X0473375Y0020045D01*
X0473196Y0020116D01*
X0473018Y0020193D01*
X0472842Y0020273D01*
X0472669Y0020358D01*
X0472497Y0020447D01*
X0472328Y0020540D01*
X0472161Y0020637D01*
X0471996Y0020739D01*
X0471834Y0020844D01*
X0471675Y0020953D01*
X0471518Y0021067D01*
X0471365Y0021184D01*
X0471214Y0021304D01*
X0471066Y0021429D01*
X0470921Y0021557D01*
X0470780Y0021688D01*
X0470641Y0021823D01*
X0470506Y0021962D01*
X0470375Y0022103D01*
X0470247Y0022248D01*
X0470122Y0022396D01*
X0470002Y0022547D01*
X0469885Y0022700D01*
X0469771Y0022857D01*
X0469662Y0023016D01*
X0469557Y0023178D01*
X0469455Y0023343D01*
X0469358Y0023510D01*
X0469265Y0023679D01*
X0469176Y0023851D01*
X0469091Y0024024D01*
X0469011Y0024200D01*
X0468934Y0024378D01*
X0468863Y0024557D01*
X0468795Y0024738D01*
X0468732Y0024921D01*
X0468674Y0025105D01*
X0468620Y0025291D01*
X0468571Y0025478D01*
X0468526Y0025666D01*
X0468486Y0025855D01*
X0468451Y0026045D01*
X0468420Y0026236D01*
X0468394Y0026427D01*
X0468373Y0026619D01*
X0468356Y0026812D01*
X0468344Y0027005D01*
X0468337Y0027198D01*
X0468335Y0027391D01*
X0045107Y0027391D02*
X0045109Y0027584D01*
X0045116Y0027777D01*
X0045128Y0027970D01*
X0045145Y0028163D01*
X0045166Y0028355D01*
X0045192Y0028546D01*
X0045223Y0028737D01*
X0045258Y0028927D01*
X0045298Y0029116D01*
X0045343Y0029304D01*
X0045392Y0029491D01*
X0045446Y0029677D01*
X0045504Y0029861D01*
X0045567Y0030044D01*
X0045635Y0030225D01*
X0045706Y0030404D01*
X0045783Y0030582D01*
X0045863Y0030758D01*
X0045948Y0030931D01*
X0046037Y0031103D01*
X0046130Y0031272D01*
X0046227Y0031439D01*
X0046329Y0031604D01*
X0046434Y0031766D01*
X0046543Y0031925D01*
X0046657Y0032082D01*
X0046774Y0032235D01*
X0046894Y0032386D01*
X0047019Y0032534D01*
X0047147Y0032679D01*
X0047278Y0032820D01*
X0047413Y0032959D01*
X0047552Y0033094D01*
X0047693Y0033225D01*
X0047838Y0033353D01*
X0047986Y0033478D01*
X0048137Y0033598D01*
X0048290Y0033715D01*
X0048447Y0033829D01*
X0048606Y0033938D01*
X0048768Y0034043D01*
X0048933Y0034145D01*
X0049100Y0034242D01*
X0049269Y0034335D01*
X0049441Y0034424D01*
X0049614Y0034509D01*
X0049790Y0034589D01*
X0049968Y0034666D01*
X0050147Y0034737D01*
X0050328Y0034805D01*
X0050511Y0034868D01*
X0050695Y0034926D01*
X0050881Y0034980D01*
X0051068Y0035029D01*
X0051256Y0035074D01*
X0051445Y0035114D01*
X0051635Y0035149D01*
X0051826Y0035180D01*
X0052017Y0035206D01*
X0052209Y0035227D01*
X0052402Y0035244D01*
X0052595Y0035256D01*
X0052788Y0035263D01*
X0052981Y0035265D01*
X0053174Y0035263D01*
X0053367Y0035256D01*
X0053560Y0035244D01*
X0053753Y0035227D01*
X0053945Y0035206D01*
X0054136Y0035180D01*
X0054327Y0035149D01*
X0054517Y0035114D01*
X0054706Y0035074D01*
X0054894Y0035029D01*
X0055081Y0034980D01*
X0055267Y0034926D01*
X0055451Y0034868D01*
X0055634Y0034805D01*
X0055815Y0034737D01*
X0055994Y0034666D01*
X0056172Y0034589D01*
X0056348Y0034509D01*
X0056521Y0034424D01*
X0056693Y0034335D01*
X0056862Y0034242D01*
X0057029Y0034145D01*
X0057194Y0034043D01*
X0057356Y0033938D01*
X0057515Y0033829D01*
X0057672Y0033715D01*
X0057825Y0033598D01*
X0057976Y0033478D01*
X0058124Y0033353D01*
X0058269Y0033225D01*
X0058410Y0033094D01*
X0058549Y0032959D01*
X0058684Y0032820D01*
X0058815Y0032679D01*
X0058943Y0032534D01*
X0059068Y0032386D01*
X0059188Y0032235D01*
X0059305Y0032082D01*
X0059419Y0031925D01*
X0059528Y0031766D01*
X0059633Y0031604D01*
X0059735Y0031439D01*
X0059832Y0031272D01*
X0059925Y0031103D01*
X0060014Y0030931D01*
X0060099Y0030758D01*
X0060179Y0030582D01*
X0060256Y0030404D01*
X0060327Y0030225D01*
X0060395Y0030044D01*
X0060458Y0029861D01*
X0060516Y0029677D01*
X0060570Y0029491D01*
X0060619Y0029304D01*
X0060664Y0029116D01*
X0060704Y0028927D01*
X0060739Y0028737D01*
X0060770Y0028546D01*
X0060796Y0028355D01*
X0060817Y0028163D01*
X0060834Y0027970D01*
X0060846Y0027777D01*
X0060853Y0027584D01*
X0060855Y0027391D01*
X0060853Y0027198D01*
X0060846Y0027005D01*
X0060834Y0026812D01*
X0060817Y0026619D01*
X0060796Y0026427D01*
X0060770Y0026236D01*
X0060739Y0026045D01*
X0060704Y0025855D01*
X0060664Y0025666D01*
X0060619Y0025478D01*
X0060570Y0025291D01*
X0060516Y0025105D01*
X0060458Y0024921D01*
X0060395Y0024738D01*
X0060327Y0024557D01*
X0060256Y0024378D01*
X0060179Y0024200D01*
X0060099Y0024024D01*
X0060014Y0023851D01*
X0059925Y0023679D01*
X0059832Y0023510D01*
X0059735Y0023343D01*
X0059633Y0023178D01*
X0059528Y0023016D01*
X0059419Y0022857D01*
X0059305Y0022700D01*
X0059188Y0022547D01*
X0059068Y0022396D01*
X0058943Y0022248D01*
X0058815Y0022103D01*
X0058684Y0021962D01*
X0058549Y0021823D01*
X0058410Y0021688D01*
X0058269Y0021557D01*
X0058124Y0021429D01*
X0057976Y0021304D01*
X0057825Y0021184D01*
X0057672Y0021067D01*
X0057515Y0020953D01*
X0057356Y0020844D01*
X0057194Y0020739D01*
X0057029Y0020637D01*
X0056862Y0020540D01*
X0056693Y0020447D01*
X0056521Y0020358D01*
X0056348Y0020273D01*
X0056172Y0020193D01*
X0055994Y0020116D01*
X0055815Y0020045D01*
X0055634Y0019977D01*
X0055451Y0019914D01*
X0055267Y0019856D01*
X0055081Y0019802D01*
X0054894Y0019753D01*
X0054706Y0019708D01*
X0054517Y0019668D01*
X0054327Y0019633D01*
X0054136Y0019602D01*
X0053945Y0019576D01*
X0053753Y0019555D01*
X0053560Y0019538D01*
X0053367Y0019526D01*
X0053174Y0019519D01*
X0052981Y0019517D01*
X0052788Y0019519D01*
X0052595Y0019526D01*
X0052402Y0019538D01*
X0052209Y0019555D01*
X0052017Y0019576D01*
X0051826Y0019602D01*
X0051635Y0019633D01*
X0051445Y0019668D01*
X0051256Y0019708D01*
X0051068Y0019753D01*
X0050881Y0019802D01*
X0050695Y0019856D01*
X0050511Y0019914D01*
X0050328Y0019977D01*
X0050147Y0020045D01*
X0049968Y0020116D01*
X0049790Y0020193D01*
X0049614Y0020273D01*
X0049441Y0020358D01*
X0049269Y0020447D01*
X0049100Y0020540D01*
X0048933Y0020637D01*
X0048768Y0020739D01*
X0048606Y0020844D01*
X0048447Y0020953D01*
X0048290Y0021067D01*
X0048137Y0021184D01*
X0047986Y0021304D01*
X0047838Y0021429D01*
X0047693Y0021557D01*
X0047552Y0021688D01*
X0047413Y0021823D01*
X0047278Y0021962D01*
X0047147Y0022103D01*
X0047019Y0022248D01*
X0046894Y0022396D01*
X0046774Y0022547D01*
X0046657Y0022700D01*
X0046543Y0022857D01*
X0046434Y0023016D01*
X0046329Y0023178D01*
X0046227Y0023343D01*
X0046130Y0023510D01*
X0046037Y0023679D01*
X0045948Y0023851D01*
X0045863Y0024024D01*
X0045783Y0024200D01*
X0045706Y0024378D01*
X0045635Y0024557D01*
X0045567Y0024738D01*
X0045504Y0024921D01*
X0045446Y0025105D01*
X0045392Y0025291D01*
X0045343Y0025478D01*
X0045298Y0025666D01*
X0045258Y0025855D01*
X0045223Y0026045D01*
X0045192Y0026236D01*
X0045166Y0026427D01*
X0045145Y0026619D01*
X0045128Y0026812D01*
X0045116Y0027005D01*
X0045109Y0027198D01*
X0045107Y0027391D01*
D12*
X0113729Y0275422D03*
X0113729Y0287233D03*
X0123729Y0287233D03*
X0123729Y0275422D03*
X0133729Y0275422D03*
X0133729Y0287233D03*
X0143729Y0287233D03*
X0143729Y0275422D03*
X0143808Y0578572D03*
X0133808Y0578572D03*
X0123808Y0578572D03*
X0113808Y0578572D03*
D13*
X0123650Y0602194D03*
X0133650Y0602194D03*
X0126997Y0680540D03*
X0126997Y0751800D03*
X0185619Y0528375D03*
X0185619Y0500816D03*
X0185619Y0473257D03*
X0185619Y0445698D03*
X0181170Y0421091D03*
X0151170Y0421091D03*
X0103178Y0408060D03*
X0103178Y0438060D03*
X0215619Y0445698D03*
X0215619Y0473257D03*
X0215619Y0500816D03*
X0215619Y0528375D03*
X0284280Y0680540D03*
X0284280Y0751800D03*
X0298965Y0358099D03*
X0308965Y0358099D03*
X0318965Y0326603D03*
X0288965Y0326603D03*
D14*
X0320246Y0472706D02*
X0325795Y0472706D01*
X0325795Y0482706D02*
X0320246Y0482706D01*
X0320246Y0492706D02*
X0325795Y0492706D01*
X0325795Y0502706D02*
X0320246Y0502706D01*
X0320246Y0512706D02*
X0325795Y0512706D01*
X0325795Y0522706D02*
X0320246Y0522706D01*
X0320246Y0532706D02*
X0325795Y0532706D01*
X0325795Y0542706D02*
X0320246Y0542706D01*
X0320246Y0552706D02*
X0325795Y0552706D01*
X0325795Y0562706D02*
X0320246Y0562706D01*
X0320246Y0572706D02*
X0325795Y0572706D01*
X0325795Y0582706D02*
X0320246Y0582706D01*
X0320246Y0592706D02*
X0325795Y0592706D01*
X0325795Y0602706D02*
X0320246Y0602706D01*
X0320246Y0612706D02*
X0325795Y0612706D01*
X0380246Y0612706D02*
X0385795Y0612706D01*
X0385795Y0602706D02*
X0380246Y0602706D01*
X0380246Y0592706D02*
X0385795Y0592706D01*
X0385795Y0582706D02*
X0380246Y0582706D01*
X0380246Y0572706D02*
X0385795Y0572706D01*
X0385795Y0562706D02*
X0380246Y0562706D01*
X0380246Y0552706D02*
X0385795Y0552706D01*
X0385795Y0542706D02*
X0380246Y0542706D01*
X0380246Y0532706D02*
X0385795Y0532706D01*
X0385795Y0522706D02*
X0380246Y0522706D01*
X0380246Y0512706D02*
X0385795Y0512706D01*
X0385795Y0502706D02*
X0380246Y0502706D01*
X0380246Y0492706D02*
X0385795Y0492706D01*
X0385795Y0482706D02*
X0380246Y0482706D01*
X0380246Y0472706D02*
X0385795Y0472706D01*
D15*
X0327826Y0073412D02*
X0333254Y0067983D01*
X0293884Y0028613D02*
X0288456Y0034042D01*
X0260420Y0067983D02*
X0254991Y0073412D01*
X0215621Y0034042D02*
X0221050Y0028613D01*
X0187585Y0067983D02*
X0182157Y0073412D01*
X0142787Y0034042D02*
X0148215Y0028613D01*
X0116719Y0067983D02*
X0111290Y0073412D01*
X0071920Y0034042D02*
X0077349Y0028613D01*
X0412472Y0034042D02*
X0417900Y0028613D01*
X0457270Y0067983D02*
X0451842Y0073412D01*
D16*
X0378769Y0055442D02*
X0378769Y0046583D01*
X0364989Y0036938D02*
X0364989Y0028080D01*
X0364989Y0065087D02*
X0364989Y0073946D01*
D17*
X0128769Y0340383D03*
X0118926Y0350225D03*
X0128769Y0360068D03*
X0128769Y0387627D03*
X0118926Y0397469D03*
X0128769Y0407312D03*
X0128769Y0434871D03*
X0118926Y0444713D03*
X0128769Y0454556D03*
X0128769Y0482115D03*
X0118926Y0491957D03*
X0128769Y0501800D03*
X0128769Y0529359D03*
X0118926Y0539202D03*
X0128769Y0549044D03*
D18*
X0033296Y0620894D02*
X0021485Y0620894D01*
X0021485Y0636643D02*
X0033296Y0636643D01*
X0033296Y0652391D02*
X0021485Y0652391D01*
X0021485Y0668139D02*
X0033296Y0668139D01*
X0033296Y0683887D02*
X0021485Y0683887D01*
X0021485Y0699635D02*
X0033296Y0699635D01*
X0033296Y0715383D02*
X0021485Y0715383D01*
X0021485Y0731131D02*
X0033296Y0731131D01*
X0033296Y0193729D02*
X0021485Y0193729D01*
X0021485Y0177981D02*
X0033296Y0177981D01*
X0033296Y0162233D02*
X0021485Y0162233D01*
X0021485Y0146485D02*
X0033296Y0146485D01*
X0033296Y0130737D02*
X0021485Y0130737D01*
X0021485Y0114989D02*
X0033296Y0114989D01*
X0033296Y0099241D02*
X0021485Y0099241D01*
X0021485Y0083493D02*
X0033296Y0083493D01*
X0033296Y0067745D02*
X0021485Y0067745D01*
X0021485Y0051997D02*
X0033296Y0051997D01*
X0495894Y0050028D02*
X0507706Y0050028D01*
X0507706Y0065776D02*
X0495894Y0065776D01*
X0495894Y0081524D02*
X0507706Y0081524D01*
X0507706Y0097272D02*
X0495894Y0097272D01*
X0495894Y0113020D02*
X0507706Y0113020D01*
X0507706Y0128769D02*
X0495894Y0128769D01*
X0495894Y0144517D02*
X0507706Y0144517D01*
X0507706Y0160265D02*
X0495894Y0160265D01*
X0495894Y0256721D02*
X0507706Y0256721D01*
X0507706Y0272469D02*
X0495894Y0272469D01*
X0495894Y0288217D02*
X0507706Y0288217D01*
X0507706Y0303965D02*
X0495894Y0303965D01*
X0495894Y0319713D02*
X0507706Y0319713D01*
X0507706Y0335461D02*
X0495894Y0335461D01*
X0495894Y0351209D02*
X0507706Y0351209D01*
X0507706Y0366957D02*
X0495894Y0366957D01*
X0495894Y0382706D02*
X0507706Y0382706D01*
X0507706Y0398454D02*
X0495894Y0398454D01*
X0495894Y0414202D02*
X0507706Y0414202D01*
X0507706Y0429950D02*
X0495894Y0429950D01*
X0495894Y0525422D02*
X0507706Y0525422D01*
X0507706Y0541170D02*
X0495894Y0541170D01*
X0495894Y0556918D02*
X0507706Y0556918D01*
X0507706Y0572666D02*
X0495894Y0572666D01*
X0495894Y0588414D02*
X0507706Y0588414D01*
X0507706Y0604162D02*
X0495894Y0604162D01*
X0495894Y0619910D02*
X0507706Y0619910D01*
X0507706Y0635658D02*
X0495894Y0635658D01*
X0495894Y0651406D02*
X0507706Y0651406D01*
X0507706Y0667154D02*
X0495894Y0667154D01*
X0495894Y0682902D02*
X0507706Y0682902D01*
X0507706Y0698650D02*
X0495894Y0698650D01*
X0495894Y0714398D02*
X0507706Y0714398D01*
X0507706Y0730146D02*
X0495894Y0730146D01*
D19*
X0420107Y0489005D03*
X0429950Y0472272D03*
X0439792Y0472272D03*
X0449635Y0472272D03*
X0459477Y0472272D03*
X0377076Y0448650D03*
X0318965Y0390540D03*
X0300028Y0407312D03*
X0258690Y0448650D03*
X0113020Y0612824D03*
X0081524Y0615973D03*
X0071682Y0615973D03*
X0061839Y0615973D03*
X0051997Y0615973D03*
X0081524Y0683887D03*
X0071682Y0699635D03*
X0061839Y0715383D03*
X0051997Y0731131D03*
X0113020Y0738020D03*
X0119910Y0208493D03*
X0093335Y0200619D03*
X0093335Y0162233D03*
X0059871Y0151406D03*
X0059871Y0200619D03*
X0150422Y0177981D03*
X0420107Y0105146D03*
X0429950Y0121879D03*
X0439792Y0159280D03*
X0449635Y0165186D03*
X0459477Y0171091D03*
D20*
X0300028Y0407312D02*
X0258690Y0448650D01*
M02*
