G75*
%MOIN*%
%OFA0B0*%
%FSLAX25Y25*%
%IPPOS*%
%LPD*%
%AMOC8*
5,1,8,0,0,1.08239X$1,22.5*
%
%ADD10C,0.16548*%
%ADD11C,0.07800*%
%ADD12C,0.08200*%
%ADD13C,0.06350*%
%ADD14C,0.08477*%
%ADD15C,0.09658*%
%ADD16C,0.12611*%
%ADD17C,0.12611*%
%ADD18R,0.05162X0.05162*%
D10*
X0052981Y0027391D03*
X0476209Y0027391D03*
X0476209Y0751800D03*
X0052981Y0751800D03*
D11*
X0113808Y0578572D03*
X0123808Y0578572D03*
X0133808Y0578572D03*
X0143808Y0578572D03*
X0143729Y0287233D03*
X0143729Y0275422D03*
X0133729Y0275422D03*
X0133729Y0287233D03*
X0123729Y0287233D03*
X0123729Y0275422D03*
X0113729Y0275422D03*
X0113729Y0287233D03*
D12*
X0103178Y0408060D03*
X0103178Y0438060D03*
X0151170Y0421091D03*
X0181170Y0421091D03*
X0185619Y0445698D03*
X0185619Y0473257D03*
X0185619Y0500816D03*
X0185619Y0528375D03*
X0215619Y0528375D03*
X0215619Y0500816D03*
X0215619Y0473257D03*
X0215619Y0445698D03*
X0298965Y0358099D03*
X0308965Y0358099D03*
X0318965Y0326603D03*
X0288965Y0326603D03*
X0133650Y0602194D03*
X0123650Y0602194D03*
X0126997Y0680540D03*
X0126997Y0751800D03*
X0284280Y0751800D03*
X0284280Y0680540D03*
D13*
X0320246Y0612706D02*
X0325795Y0612706D01*
X0325795Y0602706D02*
X0320246Y0602706D01*
X0320246Y0592706D02*
X0325795Y0592706D01*
X0325795Y0582706D02*
X0320246Y0582706D01*
X0320246Y0572706D02*
X0325795Y0572706D01*
X0325795Y0562706D02*
X0320246Y0562706D01*
X0320246Y0552706D02*
X0325795Y0552706D01*
X0325795Y0542706D02*
X0320246Y0542706D01*
X0320246Y0532706D02*
X0325795Y0532706D01*
X0325795Y0522706D02*
X0320246Y0522706D01*
X0320246Y0512706D02*
X0325795Y0512706D01*
X0325795Y0502706D02*
X0320246Y0502706D01*
X0320246Y0492706D02*
X0325795Y0492706D01*
X0325795Y0482706D02*
X0320246Y0482706D01*
X0320246Y0472706D02*
X0325795Y0472706D01*
X0380246Y0472706D02*
X0385795Y0472706D01*
X0385795Y0482706D02*
X0380246Y0482706D01*
X0380246Y0492706D02*
X0385795Y0492706D01*
X0385795Y0502706D02*
X0380246Y0502706D01*
X0380246Y0512706D02*
X0385795Y0512706D01*
X0385795Y0522706D02*
X0380246Y0522706D01*
X0380246Y0532706D02*
X0385795Y0532706D01*
X0385795Y0542706D02*
X0380246Y0542706D01*
X0380246Y0552706D02*
X0385795Y0552706D01*
X0385795Y0562706D02*
X0380246Y0562706D01*
X0380246Y0572706D02*
X0385795Y0572706D01*
X0385795Y0582706D02*
X0380246Y0582706D01*
X0380246Y0592706D02*
X0385795Y0592706D01*
X0385795Y0602706D02*
X0380246Y0602706D01*
X0380246Y0612706D02*
X0385795Y0612706D01*
D14*
X0327826Y0073412D02*
X0333254Y0067983D01*
X0293884Y0028613D02*
X0288456Y0034042D01*
X0260420Y0067983D02*
X0254991Y0073412D01*
X0215621Y0034042D02*
X0221050Y0028613D01*
X0187585Y0067983D02*
X0182157Y0073412D01*
X0142787Y0034042D02*
X0148215Y0028613D01*
X0116719Y0067983D02*
X0111290Y0073412D01*
X0071920Y0034042D02*
X0077349Y0028613D01*
X0412472Y0034042D02*
X0417900Y0028613D01*
X0457270Y0067983D02*
X0451842Y0073412D01*
D15*
X0378769Y0055442D02*
X0378769Y0046583D01*
X0364989Y0036938D02*
X0364989Y0028080D01*
X0364989Y0065087D02*
X0364989Y0073946D01*
D16*
X0128769Y0340383D03*
X0118926Y0350225D03*
X0128769Y0360068D03*
X0128769Y0387627D03*
X0118926Y0397469D03*
X0128769Y0407312D03*
X0128769Y0434871D03*
X0118926Y0444713D03*
X0128769Y0454556D03*
X0128769Y0482115D03*
X0118926Y0491957D03*
X0128769Y0501800D03*
X0128769Y0529359D03*
X0118926Y0539202D03*
X0128769Y0549044D03*
D17*
X0033296Y0051997D02*
X0021485Y0051997D01*
X0021485Y0067745D02*
X0033296Y0067745D01*
X0033296Y0083493D02*
X0021485Y0083493D01*
X0021485Y0099241D02*
X0033296Y0099241D01*
X0033296Y0114989D02*
X0021485Y0114989D01*
X0021485Y0130737D02*
X0033296Y0130737D01*
X0033296Y0146485D02*
X0021485Y0146485D01*
X0021485Y0162233D02*
X0033296Y0162233D01*
X0033296Y0177981D02*
X0021485Y0177981D01*
X0021485Y0193729D02*
X0033296Y0193729D01*
X0033296Y0620894D02*
X0021485Y0620894D01*
X0021485Y0636643D02*
X0033296Y0636643D01*
X0033296Y0652391D02*
X0021485Y0652391D01*
X0021485Y0668139D02*
X0033296Y0668139D01*
X0033296Y0683887D02*
X0021485Y0683887D01*
X0021485Y0699635D02*
X0033296Y0699635D01*
X0033296Y0715383D02*
X0021485Y0715383D01*
X0021485Y0731131D02*
X0033296Y0731131D01*
X0495894Y0730146D02*
X0507706Y0730146D01*
X0507706Y0714398D02*
X0495894Y0714398D01*
X0495894Y0698650D02*
X0507706Y0698650D01*
X0507706Y0682902D02*
X0495894Y0682902D01*
X0495894Y0667154D02*
X0507706Y0667154D01*
X0507706Y0651406D02*
X0495894Y0651406D01*
X0495894Y0635658D02*
X0507706Y0635658D01*
X0507706Y0619910D02*
X0495894Y0619910D01*
X0495894Y0604162D02*
X0507706Y0604162D01*
X0507706Y0588414D02*
X0495894Y0588414D01*
X0495894Y0572666D02*
X0507706Y0572666D01*
X0507706Y0556918D02*
X0495894Y0556918D01*
X0495894Y0541170D02*
X0507706Y0541170D01*
X0507706Y0525422D02*
X0495894Y0525422D01*
X0495894Y0429950D02*
X0507706Y0429950D01*
X0507706Y0414202D02*
X0495894Y0414202D01*
X0495894Y0398454D02*
X0507706Y0398454D01*
X0507706Y0382706D02*
X0495894Y0382706D01*
X0495894Y0366957D02*
X0507706Y0366957D01*
X0507706Y0351209D02*
X0495894Y0351209D01*
X0495894Y0335461D02*
X0507706Y0335461D01*
X0507706Y0319713D02*
X0495894Y0319713D01*
X0495894Y0303965D02*
X0507706Y0303965D01*
X0507706Y0288217D02*
X0495894Y0288217D01*
X0495894Y0272469D02*
X0507706Y0272469D01*
X0507706Y0256721D02*
X0495894Y0256721D01*
X0495894Y0160265D02*
X0507706Y0160265D01*
X0507706Y0144517D02*
X0495894Y0144517D01*
X0495894Y0128769D02*
X0507706Y0128769D01*
X0507706Y0113020D02*
X0495894Y0113020D01*
X0495894Y0097272D02*
X0507706Y0097272D01*
X0507706Y0081524D02*
X0495894Y0081524D01*
X0495894Y0065776D02*
X0507706Y0065776D01*
X0507706Y0050028D02*
X0495894Y0050028D01*
D18*
X0429950Y0121879D03*
X0420107Y0105146D03*
X0439792Y0159280D03*
X0449635Y0165186D03*
X0459477Y0171091D03*
X0318965Y0390540D03*
X0300028Y0407312D03*
X0258690Y0448650D03*
X0377076Y0448650D03*
X0420107Y0489005D03*
X0429950Y0472272D03*
X0439792Y0472272D03*
X0449635Y0472272D03*
X0459477Y0472272D03*
X0150422Y0177981D03*
X0119910Y0208493D03*
X0093335Y0200619D03*
X0093335Y0162233D03*
X0059871Y0151406D03*
X0059871Y0200619D03*
X0113020Y0612824D03*
X0081524Y0615973D03*
X0071682Y0615973D03*
X0061839Y0615973D03*
X0051997Y0615973D03*
X0081524Y0683887D03*
X0071682Y0699635D03*
X0061839Y0715383D03*
X0051997Y0731131D03*
X0113020Y0738020D03*
M02*
