  0
SECTION
  2
HEADER
  9
$ACADVER
  1
AC1009
  9
$FILLMODE
 70
1
  9
$EXTMIN
 10
-2.635953
 20
-3.885953
 30
0.000000
  9
$EXTMAX
 10
2.635953
 20
3.885953
 30
0.000000
  0
ENDSEC
  0
SECTION
  2
TABLES
  0
TABLE
  2
LTYPE
 70
1
  0
LTYPE
  2
CONTINUOUS
 70
64
  3
Solid line
 72
65
 73
0
 40
0
  0
ENDTAB
  0
TABLE
  2
LAYER
 70
255
  0
LAYER
  2
17
 70
64
 62
82
  6
CONTINUOUS
  0
ENDTAB
  0
ENDSEC
  0
SECTION
  2
BLOCKS
  0
BLOCK
  8
0
  2
RECT
 70
64
 10
0.000000
 20
0.000000
 30
0.000000
  3
RECT
  0
SOLID
  8
0
 10
-0.500000
 20
-0.500000
 30
0.000000
 11
0.500000
 21
-0.500000
 31
0.000000
 12
-0.500000
 22
0.500000
 32
0.000000
 13
0.500000
 23
0.500000
 33
0.000000
  0
ENDBLK
  8
0
  0
BLOCK
  8
0
  2
PIE
 70
64
 10
0.000000
 20
0.000000
 30
0.000000
  3
PIE
  0
POLYLINE
  8
0
 66
1
 10
0.000000
 20
0.000000
 30
0.000000
 40
0.500000
 41
0.500000
 70
0
  0
VERTEX
  8
0
 10
0.000000
 20
-0.250000
 30
0.000000
 42
1.000000
  0
VERTEX
  8
0
 10
0.000000
 20
0.250000
 30
0.000000
 42
1.000000
  0
VERTEX
  8
0
 10
0.000000
 20
-0.250000
 30
0.000000
  0
SEQEND
  8
0
  0
ENDBLK
  8
0
  0
BLOCK
  8
0
  2
OCTAGONP
 70
64
 10
0.000000
 20
0.000000
 30
0.000000
  3
OCTAGONP
  0
POLYLINE
  8
0
 66
1
 10
0.000000
 20
0.000000
 30
0.000000
 40
0.500000
 41
0.500000
 70
0
  0
VERTEX
  8
0
 10
-0.250000
 20
-0.103553
 30
0.000000
  0
VERTEX
  8
0
 10
-0.250000
 20
0.103553
 30
0.000000
  0
VERTEX
  8
0
 10
-0.103553
 20
0.250000
 30
0.000000
  0
VERTEX
  8
0
 10
0.103553
 20
0.250000
 30
0.000000
  0
VERTEX
  8
0
 10
0.250000
 20
0.103553
 30
0.000000
  0
VERTEX
  8
0
 10
0.250000
 20
-0.103553
 30
0.000000
  0
VERTEX
  8
0
 10
0.103553
 20
-0.250000
 30
0.000000
  0
VERTEX
  8
0
 10
-0.103553
 20
-0.250000
 30
0.000000
  0
VERTEX
  8
0
 10
-0.250000
 20
-0.103553
 30
0.000000
  0
VERTEX
  8
0
 10
-0.250000
 20
0.103553
 30
0.000000
  0
SEQEND
  8
0
  0
ENDBLK
  8
0
  0
BLOCK
  8
0
  2
SQUAREP
 70
64
 10
0.000000
 20
0.000000
 30
0.000000
  3
SQUAREP
  0
SOLID
  8
0
 10
-0.500000
 20
-0.500000
 30
0.000000
 11
0.500000
 21
-0.500000
 31
0.000000
 12
-0.500000
 22
0.500000
 32
0.000000
 13
0.500000
 23
0.500000
 33
0.000000
  0
ENDBLK
  8
0
  0
BLOCK
  8
0
  2
ROUNDP
 70
64
 10
0.000000
 20
0.000000
 30
0.000000
  3
ROUNDP
  0
POLYLINE
  8
0
 66
1
 10
0.000000
 20
0.000000
 30
0.000000
 40
0.500000
 41
0.500000
 70
0
  0
VERTEX
  8
0
 10
0.000000
 20
-0.250000
 30
0.000000
 42
1.000000
  0
VERTEX
  8
0
 10
0.000000
 20
0.250000
 30
0.000000
 42
1.000000
  0
VERTEX
  8
0
 10
0.000000
 20
-0.250000
 30
0.000000
  0
SEQEND
  8
0
  0
ENDBLK
  8
0
  0
BLOCK
  8
0
  2
ANNULUSP
 70
64
 10
0.000000
 20
0.000000
 30
0.000000
  3
ANNULUSP
  0
POLYLINE
  8
0
 66
1
 10
0.000000
 20
0.000000
 30
0.000000
 40
0.500000
 41
0.500000
 70
0
  0
VERTEX
  8
0
 10
0.000000
 20
-0.250000
 30
0.000000
 42
1.000000
  0
VERTEX
  8
0
 10
0.000000
 20
0.250000
 30
0.000000
 42
1.000000
  0
VERTEX
  8
0
 10
0.000000
 20
-0.250000
 30
0.000000
  0
SEQEND
  8
0
  0
ENDBLK
  8
0
  0
BLOCK
  8
0
  2
THERMALP
 70
64
 10
0.000000
 20
0.000000
 30
0.000000
  3
THERMALP
  0
POLYLINE
  8
0
 66
1
 10
0.000000
 20
0.000000
 30
0.000000
 40
0.100000
 41
0.100000
 70
0
  0
VERTEX
  8
0
 10
-0.237868
 20
0.450000
 30
0.000000
  0
VERTEX
  8
0
 10
0.237868
 20
0.450000
 30
0.000000
  0
SEQEND
  8
0
  0
POLYLINE
  8
0
 66
1
 10
0.000000
 20
0.000000
 30
0.000000
 40
0.050000
 41
0.050000
 70
0
  0
VERTEX
  8
0
 10
0.237868
 20
0.425000
 30
0.000000
 42
1.000000
  0
VERTEX
  8
0
 10
0.237868
 20
0.475000
 30
0.000000
  0
SEQEND
  8
0
  0
POLYLINE
  8
0
 66
1
 10
0.000000
 20
0.000000
 30
0.000000
 40
0.050000
 41
0.050000
 70
0
  0
VERTEX
  8
0
 10
-0.237868
 20
0.475000
 30
0.000000
 42
1.000000
  0
VERTEX
  8
0
 10
-0.237868
 20
0.425000
 30
0.000000
  0
SEQEND
  8
0
  0
POLYLINE
  8
0
 66
1
 10
0.000000
 20
0.000000
 30
0.000000
 40
0.100000
 41
0.100000
 70
0
  0
VERTEX
  8
0
 10
0.450000
 20
0.237868
 30
0.000000
  0
VERTEX
  8
0
 10
0.450000
 20
-0.237868
 30
0.000000
  0
SEQEND
  8
0
  0
POLYLINE
  8
0
 66
1
 10
0.000000
 20
0.000000
 30
0.000000
 40
0.050000
 41
0.050000
 70
0
  0
VERTEX
  8
0
 10
0.425000
 20
-0.237868
 30
0.000000
 42
1.000000
  0
VERTEX
  8
0
 10
0.475000
 20
-0.237868
 30
0.000000
  0
SEQEND
  8
0
  0
POLYLINE
  8
0
 66
1
 10
0.000000
 20
0.000000
 30
0.000000
 40
0.050000
 41
0.050000
 70
0
  0
VERTEX
  8
0
 10
0.475000
 20
0.237868
 30
0.000000
 42
1.000000
  0
VERTEX
  8
0
 10
0.425000
 20
0.237868
 30
0.000000
  0
SEQEND
  8
0
  0
POLYLINE
  8
0
 66
1
 10
0.000000
 20
0.000000
 30
0.000000
 40
0.100000
 41
0.100000
 70
0
  0
VERTEX
  8
0
 10
0.237868
 20
-0.450000
 30
0.000000
  0
VERTEX
  8
0
 10
-0.237868
 20
-0.450000
 30
0.000000
  0
SEQEND
  8
0
  0
POLYLINE
  8
0
 66
1
 10
0.000000
 20
0.000000
 30
0.000000
 40
0.050000
 41
0.050000
 70
0
  0
VERTEX
  8
0
 10
-0.237868
 20
-0.425000
 30
0.000000
 42
1.000000
  0
VERTEX
  8
0
 10
-0.237868
 20
-0.475000
 30
0.000000
  0
SEQEND
  8
0
  0
POLYLINE
  8
0
 66
1
 10
0.000000
 20
0.000000
 30
0.000000
 40
0.050000
 41
0.050000
 70
0
  0
VERTEX
  8
0
 10
0.237868
 20
-0.475000
 30
0.000000
 42
1.000000
  0
VERTEX
  8
0
 10
0.237868
 20
-0.425000
 30
0.000000
  0
SEQEND
  8
0
  0
POLYLINE
  8
0
 66
1
 10
0.000000
 20
0.000000
 30
0.000000
 40
0.100000
 41
0.100000
 70
0
  0
VERTEX
  8
0
 10
-0.450000
 20
-0.237868
 30
0.000000
  0
VERTEX
  8
0
 10
-0.450000
 20
0.237868
 30
0.000000
  0
SEQEND
  8
0
  0
POLYLINE
  8
0
 66
1
 10
0.000000
 20
0.000000
 30
0.000000
 40
0.050000
 41
0.050000
 70
0
  0
VERTEX
  8
0
 10
-0.425000
 20
0.237868
 30
0.000000
 42
1.000000
  0
VERTEX
  8
0
 10
-0.475000
 20
0.237868
 30
0.000000
  0
SEQEND
  8
0
  0
POLYLINE
  8
0
 66
1
 10
0.000000
 20
0.000000
 30
0.000000
 40
0.050000
 41
0.050000
 70
0
  0
VERTEX
  8
0
 10
-0.475000
 20
-0.237868
 30
0.000000
 42
1.000000
  0
VERTEX
  8
0
 10
-0.425000
 20
-0.237868
 30
0.000000
  0
SEQEND
  8
0
  0
ENDBLK
  8
0
  0
BLOCK
  8
0
  2
OCTAGONV
 70
64
 10
0.000000
 20
0.000000
 30
0.000000
  3
OCTAGONV
  0
POLYLINE
  8
0
 66
1
 10
0.000000
 20
0.000000
 30
0.000000
 40
0.500000
 41
0.500000
 70
0
  0
VERTEX
  8
0
 10
-0.250000
 20
-0.103553
 30
0.000000
  0
VERTEX
  8
0
 10
-0.250000
 20
0.103553
 30
0.000000
  0
VERTEX
  8
0
 10
-0.103553
 20
0.250000
 30
0.000000
  0
VERTEX
  8
0
 10
0.103553
 20
0.250000
 30
0.000000
  0
VERTEX
  8
0
 10
0.250000
 20
0.103553
 30
0.000000
  0
VERTEX
  8
0
 10
0.250000
 20
-0.103553
 30
0.000000
  0
VERTEX
  8
0
 10
0.103553
 20
-0.250000
 30
0.000000
  0
VERTEX
  8
0
 10
-0.103553
 20
-0.250000
 30
0.000000
  0
VERTEX
  8
0
 10
-0.250000
 20
-0.103553
 30
0.000000
  0
VERTEX
  8
0
 10
-0.250000
 20
0.103553
 30
0.000000
  0
SEQEND
  8
0
  0
ENDBLK
  8
0
  0
BLOCK
  8
0
  2
SQUAREV
 70
64
 10
0.000000
 20
0.000000
 30
0.000000
  3
SQUAREV
  0
SOLID
  8
0
 10
-0.500000
 20
-0.500000
 30
0.000000
 11
0.500000
 21
-0.500000
 31
0.000000
 12
-0.500000
 22
0.500000
 32
0.000000
 13
0.500000
 23
0.500000
 33
0.000000
  0
ENDBLK
  8
0
  0
BLOCK
  8
0
  2
ROUNDV
 70
64
 10
0.000000
 20
0.000000
 30
0.000000
  3
ROUNDV
  0
POLYLINE
  8
0
 66
1
 10
0.000000
 20
0.000000
 30
0.000000
 40
0.500000
 41
0.500000
 70
0
  0
VERTEX
  8
0
 10
0.000000
 20
-0.250000
 30
0.000000
 42
1.000000
  0
VERTEX
  8
0
 10
0.000000
 20
0.250000
 30
0.000000
 42
1.000000
  0
VERTEX
  8
0
 10
0.000000
 20
-0.250000
 30
0.000000
  0
SEQEND
  8
0
  0
ENDBLK
  8
0
  0
BLOCK
  8
0
  2
ANNULUSV
 70
64
 10
0.000000
 20
0.000000
 30
0.000000
  3
ANNULUSV
  0
POLYLINE
  8
0
 66
1
 10
0.000000
 20
0.000000
 30
0.000000
 40
0.500000
 41
0.500000
 70
0
  0
VERTEX
  8
0
 10
0.000000
 20
-0.250000
 30
0.000000
 42
1.000000
  0
VERTEX
  8
0
 10
0.000000
 20
0.250000
 30
0.000000
 42
1.000000
  0
VERTEX
  8
0
 10
0.000000
 20
-0.250000
 30
0.000000
  0
SEQEND
  8
0
  0
ENDBLK
  8
0
  0
BLOCK
  8
0
  2
THERMALV
 70
64
 10
0.000000
 20
0.000000
 30
0.000000
  3
THERMALV
  0
POLYLINE
  8
0
 66
1
 10
0.000000
 20
0.000000
 30
0.000000
 40
0.100000
 41
0.100000
 70
0
  0
VERTEX
  8
0
 10
-0.237868
 20
0.450000
 30
0.000000
  0
VERTEX
  8
0
 10
0.237868
 20
0.450000
 30
0.000000
  0
SEQEND
  8
0
  0
POLYLINE
  8
0
 66
1
 10
0.000000
 20
0.000000
 30
0.000000
 40
0.050000
 41
0.050000
 70
0
  0
VERTEX
  8
0
 10
0.237868
 20
0.425000
 30
0.000000
 42
1.000000
  0
VERTEX
  8
0
 10
0.237868
 20
0.475000
 30
0.000000
  0
SEQEND
  8
0
  0
POLYLINE
  8
0
 66
1
 10
0.000000
 20
0.000000
 30
0.000000
 40
0.050000
 41
0.050000
 70
0
  0
VERTEX
  8
0
 10
-0.237868
 20
0.475000
 30
0.000000
 42
1.000000
  0
VERTEX
  8
0
 10
-0.237868
 20
0.425000
 30
0.000000
  0
SEQEND
  8
0
  0
POLYLINE
  8
0
 66
1
 10
0.000000
 20
0.000000
 30
0.000000
 40
0.100000
 41
0.100000
 70
0
  0
VERTEX
  8
0
 10
0.450000
 20
0.237868
 30
0.000000
  0
VERTEX
  8
0
 10
0.450000
 20
-0.237868
 30
0.000000
  0
SEQEND
  8
0
  0
POLYLINE
  8
0
 66
1
 10
0.000000
 20
0.000000
 30
0.000000
 40
0.050000
 41
0.050000
 70
0
  0
VERTEX
  8
0
 10
0.425000
 20
-0.237868
 30
0.000000
 42
1.000000
  0
VERTEX
  8
0
 10
0.475000
 20
-0.237868
 30
0.000000
  0
SEQEND
  8
0
  0
POLYLINE
  8
0
 66
1
 10
0.000000
 20
0.000000
 30
0.000000
 40
0.050000
 41
0.050000
 70
0
  0
VERTEX
  8
0
 10
0.475000
 20
0.237868
 30
0.000000
 42
1.000000
  0
VERTEX
  8
0
 10
0.425000
 20
0.237868
 30
0.000000
  0
SEQEND
  8
0
  0
POLYLINE
  8
0
 66
1
 10
0.000000
 20
0.000000
 30
0.000000
 40
0.100000
 41
0.100000
 70
0
  0
VERTEX
  8
0
 10
0.237868
 20
-0.450000
 30
0.000000
  0
VERTEX
  8
0
 10
-0.237868
 20
-0.450000
 30
0.000000
  0
SEQEND
  8
0
  0
POLYLINE
  8
0
 66
1
 10
0.000000
 20
0.000000
 30
0.000000
 40
0.050000
 41
0.050000
 70
0
  0
VERTEX
  8
0
 10
-0.237868
 20
-0.425000
 30
0.000000
 42
1.000000
  0
VERTEX
  8
0
 10
-0.237868
 20
-0.475000
 30
0.000000
  0
SEQEND
  8
0
  0
POLYLINE
  8
0
 66
1
 10
0.000000
 20
0.000000
 30
0.000000
 40
0.050000
 41
0.050000
 70
0
  0
VERTEX
  8
0
 10
0.237868
 20
-0.475000
 30
0.000000
 42
1.000000
  0
VERTEX
  8
0
 10
0.237868
 20
-0.425000
 30
0.000000
  0
SEQEND
  8
0
  0
POLYLINE
  8
0
 66
1
 10
0.000000
 20
0.000000
 30
0.000000
 40
0.100000
 41
0.100000
 70
0
  0
VERTEX
  8
0
 10
-0.450000
 20
-0.237868
 30
0.000000
  0
VERTEX
  8
0
 10
-0.450000
 20
0.237868
 30
0.000000
  0
SEQEND
  8
0
  0
POLYLINE
  8
0
 66
1
 10
0.000000
 20
0.000000
 30
0.000000
 40
0.050000
 41
0.050000
 70
0
  0
VERTEX
  8
0
 10
-0.425000
 20
0.237868
 30
0.000000
 42
1.000000
  0
VERTEX
  8
0
 10
-0.475000
 20
0.237868
 30
0.000000
  0
SEQEND
  8
0
  0
POLYLINE
  8
0
 66
1
 10
0.000000
 20
0.000000
 30
0.000000
 40
0.050000
 41
0.050000
 70
0
  0
VERTEX
  8
0
 10
-0.475000
 20
-0.237868
 30
0.000000
 42
1.000000
  0
VERTEX
  8
0
 10
-0.425000
 20
-0.237868
 30
0.000000
  0
SEQEND
  8
0
  0
ENDBLK
  8
0
  0
BLOCK
  8
0
  2
LONGP100
 70
64
 10
0.000000
 20
0.000000
 30
0.000000
  3
LONGP100
  0
POLYLINE
  8
0
 66
1
 10
0.000000
 20
0.000000
 30
0.000000
 40
1.000000
 41
1.000000
 70
0
  0
VERTEX
  8
0
 10
-0.500000
 20
0.000000
 30
0.000000
  0
VERTEX
  8
0
 10
0.500000
 20
0.000000
 30
0.000000
  0
SEQEND
  8
0
  0
POLYLINE
  8
0
 66
1
 10
0.000000
 20
0.000000
 30
0.000000
 40
0.500000
 41
0.500000
 70
0
  0
VERTEX
  8
0
 10
0.500000
 20
-0.250000
 30
0.000000
 42
1.000000
  0
VERTEX
  8
0
 10
0.500000
 20
0.250000
 30
0.000000
  0
SEQEND
  8
0
  0
POLYLINE
  8
0
 66
1
 10
0.000000
 20
0.000000
 30
0.000000
 40
0.500000
 41
0.500000
 70
0
  0
VERTEX
  8
0
 10
-0.500000
 20
0.250000
 30
0.000000
 42
1.000000
  0
VERTEX
  8
0
 10
-0.500000
 20
-0.250000
 30
0.000000
  0
SEQEND
  8
0
  0
ENDBLK
  8
0
  0
ENDSEC
  0
SECTION
  2
ENTITIES
  0
INSERT
  8
17
  2
ROUNDP
 10
-0.789764
 20
1.387795
 30
0.000000
 41
0.074000
 42
0.074000
 43
1.000000
 50
0.000000
  0
INSERT
  8
17
  2
ROUNDP
 10
-0.789764
 20
1.387795
 30
0.000000
 41
0.074000
 42
0.074000
 43
1.000000
 50
0.000000
  0
INSERT
  8
17
  2
ROUNDP
 10
-0.489764
 20
1.387795
 30
0.000000
 41
0.074000
 42
0.074000
 43
1.000000
 50
0.000000
  0
INSERT
  8
17
  2
ROUNDP
 10
-0.489764
 20
1.387795
 30
0.000000
 41
0.074000
 42
0.074000
 43
1.000000
 50
0.000000
  0
INSERT
  8
17
  2
ROUNDP
 10
-0.489764
 20
0.836614
 30
0.000000
 41
0.074000
 42
0.074000
 43
1.000000
 50
180.000000
  0
INSERT
  8
17
  2
ROUNDP
 10
-0.489764
 20
0.836614
 30
0.000000
 41
0.074000
 42
0.074000
 43
1.000000
 50
180.000000
  0
INSERT
  8
17
  2
ROUNDP
 10
-0.789764
 20
0.836614
 30
0.000000
 41
0.074000
 42
0.074000
 43
1.000000
 50
180.000000
  0
INSERT
  8
17
  2
ROUNDP
 10
-0.789764
 20
0.836614
 30
0.000000
 41
0.074000
 42
0.074000
 43
1.000000
 50
180.000000
  0
INSERT
  8
17
  2
ROUNDP
 10
-1.134252
 20
0.314961
 30
0.000000
 41
0.074000
 42
0.074000
 43
1.000000
 50
0.000000
  0
INSERT
  8
17
  2
ROUNDP
 10
-1.134252
 20
0.314961
 30
0.000000
 41
0.074000
 42
0.074000
 43
1.000000
 50
0.000000
  0
INSERT
  8
17
  2
ROUNDP
 10
-0.834252
 20
0.314961
 30
0.000000
 41
0.074000
 42
0.074000
 43
1.000000
 50
0.000000
  0
INSERT
  8
17
  2
ROUNDP
 10
-0.834252
 20
0.314961
 30
0.000000
 41
0.074000
 42
0.074000
 43
1.000000
 50
0.000000
  0
INSERT
  8
17
  2
ROUNDP
 10
-1.614173
 20
0.184646
 30
0.000000
 41
0.074000
 42
0.074000
 43
1.000000
 50
90.000000
  0
INSERT
  8
17
  2
ROUNDP
 10
-1.614173
 20
0.184646
 30
0.000000
 41
0.074000
 42
0.074000
 43
1.000000
 50
90.000000
  0
INSERT
  8
17
  2
ROUNDP
 10
-1.614173
 20
0.484646
 30
0.000000
 41
0.074000
 42
0.074000
 43
1.000000
 50
90.000000
  0
INSERT
  8
17
  2
ROUNDP
 10
-1.614173
 20
0.484646
 30
0.000000
 41
0.074000
 42
0.074000
 43
1.000000
 50
90.000000
  0
INSERT
  8
17
  2
ROUNDP
 10
-1.456693
 20
1.496063
 30
0.000000
 41
0.118110
 42
0.118110
 43
1.000000
 50
90.000000
  0
INSERT
  8
17
  2
ROUNDP
 10
-1.456693
 20
1.496063
 30
0.000000
 41
0.118110
 42
0.118110
 43
1.000000
 50
90.000000
  0
INSERT
  8
17
  2
ROUNDP
 10
-1.358268
 20
1.594488
 30
0.000000
 41
0.118110
 42
0.118110
 43
1.000000
 50
90.000000
  0
INSERT
  8
17
  2
ROUNDP
 10
-1.358268
 20
1.594488
 30
0.000000
 41
0.118110
 42
0.118110
 43
1.000000
 50
90.000000
  0
INSERT
  8
17
  2
ROUNDP
 10
-1.358268
 20
1.397638
 30
0.000000
 41
0.118110
 42
0.118110
 43
1.000000
 50
90.000000
  0
INSERT
  8
17
  2
ROUNDP
 10
-1.358268
 20
1.397638
 30
0.000000
 41
0.118110
 42
0.118110
 43
1.000000
 50
90.000000
  0
INSERT
  8
17
  2
ROUNDP
 10
-1.456693
 20
1.023622
 30
0.000000
 41
0.118110
 42
0.118110
 43
1.000000
 50
90.000000
  0
INSERT
  8
17
  2
ROUNDP
 10
-1.456693
 20
1.023622
 30
0.000000
 41
0.118110
 42
0.118110
 43
1.000000
 50
90.000000
  0
INSERT
  8
17
  2
ROUNDP
 10
-1.358268
 20
1.122047
 30
0.000000
 41
0.118110
 42
0.118110
 43
1.000000
 50
90.000000
  0
INSERT
  8
17
  2
ROUNDP
 10
-1.358268
 20
1.122047
 30
0.000000
 41
0.118110
 42
0.118110
 43
1.000000
 50
90.000000
  0
INSERT
  8
17
  2
ROUNDP
 10
-1.358268
 20
0.925197
 30
0.000000
 41
0.118110
 42
0.118110
 43
1.000000
 50
90.000000
  0
INSERT
  8
17
  2
ROUNDP
 10
-1.358268
 20
0.925197
 30
0.000000
 41
0.118110
 42
0.118110
 43
1.000000
 50
90.000000
  0
INSERT
  8
17
  2
ROUNDP
 10
-1.507874
 20
1.889764
 30
0.000000
 41
0.070000
 42
0.070000
 43
1.000000
 50
90.000000
  0
INSERT
  8
17
  2
ROUNDP
 10
-1.507874
 20
1.889764
 30
0.000000
 41
0.070000
 42
0.070000
 43
1.000000
 50
90.000000
  0
INSERT
  8
17
  2
ROUNDP
 10
-1.407874
 20
1.889764
 30
0.000000
 41
0.070000
 42
0.070000
 43
1.000000
 50
90.000000
  0
INSERT
  8
17
  2
ROUNDP
 10
-1.407874
 20
1.889764
 30
0.000000
 41
0.070000
 42
0.070000
 43
1.000000
 50
90.000000
  0
INSERT
  8
17
  2
ROUNDP
 10
-1.307874
 20
1.889764
 30
0.000000
 41
0.070000
 42
0.070000
 43
1.000000
 50
90.000000
  0
INSERT
  8
17
  2
ROUNDP
 10
-1.307874
 20
1.889764
 30
0.000000
 41
0.070000
 42
0.070000
 43
1.000000
 50
90.000000
  0
INSERT
  8
17
  2
ROUNDP
 10
-1.207874
 20
1.889764
 30
0.000000
 41
0.070000
 42
0.070000
 43
1.000000
 50
90.000000
  0
INSERT
  8
17
  2
ROUNDP
 10
-1.207874
 20
1.889764
 30
0.000000
 41
0.070000
 42
0.070000
 43
1.000000
 50
90.000000
  0
INSERT
  8
17
  2
ROUNDP
 10
-1.208661
 20
-1.023622
 30
0.000000
 41
0.070000
 42
0.070000
 43
1.000000
 50
270.000000
  0
INSERT
  8
17
  2
ROUNDP
 10
-1.208661
 20
-1.023622
 30
0.000000
 41
0.070000
 42
0.070000
 43
1.000000
 50
270.000000
  0
INSERT
  8
17
  2
ROUNDP
 10
-1.308661
 20
-1.023622
 30
0.000000
 41
0.070000
 42
0.070000
 43
1.000000
 50
270.000000
  0
INSERT
  8
17
  2
ROUNDP
 10
-1.308661
 20
-1.023622
 30
0.000000
 41
0.070000
 42
0.070000
 43
1.000000
 50
270.000000
  0
INSERT
  8
17
  2
ROUNDP
 10
-1.408661
 20
-1.023622
 30
0.000000
 41
0.070000
 42
0.070000
 43
1.000000
 50
270.000000
  0
INSERT
  8
17
  2
ROUNDP
 10
-1.408661
 20
-1.023622
 30
0.000000
 41
0.070000
 42
0.070000
 43
1.000000
 50
270.000000
  0
INSERT
  8
17
  2
ROUNDP
 10
-1.508661
 20
-1.023622
 30
0.000000
 41
0.070000
 42
0.070000
 43
1.000000
 50
270.000000
  0
INSERT
  8
17
  2
ROUNDP
 10
-1.508661
 20
-1.023622
 30
0.000000
 41
0.070000
 42
0.070000
 43
1.000000
 50
270.000000
  0
INSERT
  8
17
  2
ROUNDP
 10
-1.208661
 20
-1.141732
 30
0.000000
 41
0.070000
 42
0.070000
 43
1.000000
 50
270.000000
  0
INSERT
  8
17
  2
ROUNDP
 10
-1.208661
 20
-1.141732
 30
0.000000
 41
0.070000
 42
0.070000
 43
1.000000
 50
270.000000
  0
INSERT
  8
17
  2
ROUNDP
 10
-1.308661
 20
-1.141732
 30
0.000000
 41
0.070000
 42
0.070000
 43
1.000000
 50
270.000000
  0
INSERT
  8
17
  2
ROUNDP
 10
-1.308661
 20
-1.141732
 30
0.000000
 41
0.070000
 42
0.070000
 43
1.000000
 50
270.000000
  0
INSERT
  8
17
  2
ROUNDP
 10
-1.408661
 20
-1.141732
 30
0.000000
 41
0.070000
 42
0.070000
 43
1.000000
 50
270.000000
  0
INSERT
  8
17
  2
ROUNDP
 10
-1.408661
 20
-1.141732
 30
0.000000
 41
0.070000
 42
0.070000
 43
1.000000
 50
270.000000
  0
INSERT
  8
17
  2
ROUNDP
 10
-1.508661
 20
-1.141732
 30
0.000000
 41
0.070000
 42
0.070000
 43
1.000000
 50
270.000000
  0
INSERT
  8
17
  2
ROUNDP
 10
-1.508661
 20
-1.141732
 30
0.000000
 41
0.070000
 42
0.070000
 43
1.000000
 50
270.000000
  0
INSERT
  8
17
  2
ROUNDP
 10
0.443701
 20
-0.314961
 30
0.000000
 41
0.074000
 42
0.074000
 43
1.000000
 50
180.000000
  0
INSERT
  8
17
  2
ROUNDP
 10
0.443701
 20
-0.314961
 30
0.000000
 41
0.074000
 42
0.074000
 43
1.000000
 50
180.000000
  0
INSERT
  8
17
  2
ROUNDP
 10
0.343701
 20
-0.314961
 30
0.000000
 41
0.074000
 42
0.074000
 43
1.000000
 50
180.000000
  0
INSERT
  8
17
  2
ROUNDP
 10
0.343701
 20
-0.314961
 30
0.000000
 41
0.074000
 42
0.074000
 43
1.000000
 50
180.000000
  0
INSERT
  8
17
  2
ROUNDP
 10
-1.456693
 20
-0.393701
 30
0.000000
 41
0.118110
 42
0.118110
 43
1.000000
 50
90.000000
  0
INSERT
  8
17
  2
ROUNDP
 10
-1.456693
 20
-0.393701
 30
0.000000
 41
0.118110
 42
0.118110
 43
1.000000
 50
90.000000
  0
INSERT
  8
17
  2
ROUNDP
 10
-1.358268
 20
-0.295276
 30
0.000000
 41
0.118110
 42
0.118110
 43
1.000000
 50
90.000000
  0
INSERT
  8
17
  2
ROUNDP
 10
-1.358268
 20
-0.295276
 30
0.000000
 41
0.118110
 42
0.118110
 43
1.000000
 50
90.000000
  0
INSERT
  8
17
  2
ROUNDP
 10
-1.358268
 20
-0.492126
 30
0.000000
 41
0.118110
 42
0.118110
 43
1.000000
 50
90.000000
  0
INSERT
  8
17
  2
ROUNDP
 10
-1.358268
 20
-0.492126
 30
0.000000
 41
0.118110
 42
0.118110
 43
1.000000
 50
90.000000
  0
INSERT
  8
17
  2
ROUNDP
 10
-1.409449
 20
2.125984
 30
0.000000
 41
0.074000
 42
0.074000
 43
1.000000
 50
90.000000
  0
INSERT
  8
17
  2
ROUNDP
 10
-1.409449
 20
2.125984
 30
0.000000
 41
0.074000
 42
0.074000
 43
1.000000
 50
90.000000
  0
INSERT
  8
17
  2
ROUNDP
 10
-1.309449
 20
2.125984
 30
0.000000
 41
0.074000
 42
0.074000
 43
1.000000
 50
90.000000
  0
INSERT
  8
17
  2
ROUNDP
 10
-1.309449
 20
2.125984
 30
0.000000
 41
0.074000
 42
0.074000
 43
1.000000
 50
90.000000
  0
INSERT
  8
17
  2
ROUNDP
 10
0.196850
 20
3.622047
 30
0.000000
 41
0.074000
 42
0.074000
 43
1.000000
 50
90.000000
  0
INSERT
  8
17
  2
ROUNDP
 10
0.196850
 20
3.622047
 30
0.000000
 41
0.074000
 42
0.074000
 43
1.000000
 50
90.000000
  0
INSERT
  8
17
  2
ROUNDP
 10
0.196850
 20
2.909449
 30
0.000000
 41
0.074000
 42
0.074000
 43
1.000000
 50
90.000000
  0
INSERT
  8
17
  2
ROUNDP
 10
0.196850
 20
2.909449
 30
0.000000
 41
0.074000
 42
0.074000
 43
1.000000
 50
90.000000
  0
INSERT
  8
17
  2
ROUNDP
 10
-1.375984
 20
2.909449
 30
0.000000
 41
0.074000
 42
0.074000
 43
1.000000
 50
90.000000
  0
INSERT
  8
17
  2
ROUNDP
 10
-1.375984
 20
2.909449
 30
0.000000
 41
0.074000
 42
0.074000
 43
1.000000
 50
90.000000
  0
INSERT
  8
17
  2
ROUNDP
 10
-1.375984
 20
3.622047
 30
0.000000
 41
0.074000
 42
0.074000
 43
1.000000
 50
90.000000
  0
INSERT
  8
17
  2
ROUNDP
 10
-1.375984
 20
3.622047
 30
0.000000
 41
0.074000
 42
0.074000
 43
1.000000
 50
90.000000
  0
INSERT
  8
17
  2
ROUNDP
 10
-0.489764
 20
1.112205
 30
0.000000
 41
0.074000
 42
0.074000
 43
1.000000
 50
180.000000
  0
INSERT
  8
17
  2
ROUNDP
 10
-0.489764
 20
1.112205
 30
0.000000
 41
0.074000
 42
0.074000
 43
1.000000
 50
180.000000
  0
INSERT
  8
17
  2
ROUNDP
 10
-0.789764
 20
1.112205
 30
0.000000
 41
0.074000
 42
0.074000
 43
1.000000
 50
180.000000
  0
INSERT
  8
17
  2
ROUNDP
 10
-0.789764
 20
1.112205
 30
0.000000
 41
0.074000
 42
0.074000
 43
1.000000
 50
180.000000
  0
INSERT
  8
17
  2
ROUNDP
 10
-0.489764
 20
0.561024
 30
0.000000
 41
0.074000
 42
0.074000
 43
1.000000
 50
180.000000
  0
INSERT
  8
17
  2
ROUNDP
 10
-0.489764
 20
0.561024
 30
0.000000
 41
0.074000
 42
0.074000
 43
1.000000
 50
180.000000
  0
INSERT
  8
17
  2
ROUNDP
 10
-0.789764
 20
0.561024
 30
0.000000
 41
0.074000
 42
0.074000
 43
1.000000
 50
180.000000
  0
INSERT
  8
17
  2
ROUNDP
 10
-0.789764
 20
0.561024
 30
0.000000
 41
0.074000
 42
0.074000
 43
1.000000
 50
180.000000
  0
INSERT
  8
17
  2
ROUNDP
 10
0.243701
 20
-0.629921
 30
0.000000
 41
0.074000
 42
0.074000
 43
1.000000
 50
0.000000
  0
INSERT
  8
17
  2
ROUNDP
 10
0.243701
 20
-0.629921
 30
0.000000
 41
0.074000
 42
0.074000
 43
1.000000
 50
0.000000
  0
INSERT
  8
17
  2
ROUNDP
 10
0.543701
 20
-0.629921
 30
0.000000
 41
0.074000
 42
0.074000
 43
1.000000
 50
0.000000
  0
INSERT
  8
17
  2
ROUNDP
 10
0.543701
 20
-0.629921
 30
0.000000
 41
0.074000
 42
0.074000
 43
1.000000
 50
0.000000
  0
INSERT
  8
17
  2
ROUNDP
 10
-1.456693
 20
0.551181
 30
0.000000
 41
0.118110
 42
0.118110
 43
1.000000
 50
90.000000
  0
INSERT
  8
17
  2
ROUNDP
 10
-1.456693
 20
0.551181
 30
0.000000
 41
0.118110
 42
0.118110
 43
1.000000
 50
90.000000
  0
INSERT
  8
17
  2
ROUNDP
 10
-1.358268
 20
0.649606
 30
0.000000
 41
0.118110
 42
0.118110
 43
1.000000
 50
90.000000
  0
INSERT
  8
17
  2
ROUNDP
 10
-1.358268
 20
0.649606
 30
0.000000
 41
0.118110
 42
0.118110
 43
1.000000
 50
90.000000
  0
INSERT
  8
17
  2
ROUNDP
 10
-1.358268
 20
0.452756
 30
0.000000
 41
0.118110
 42
0.118110
 43
1.000000
 50
90.000000
  0
INSERT
  8
17
  2
ROUNDP
 10
-1.358268
 20
0.452756
 30
0.000000
 41
0.118110
 42
0.118110
 43
1.000000
 50
90.000000
  0
INSERT
  8
17
  2
ROUNDP
 10
-1.456693
 20
0.078740
 30
0.000000
 41
0.118110
 42
0.118110
 43
1.000000
 50
90.000000
  0
INSERT
  8
17
  2
ROUNDP
 10
-1.456693
 20
0.078740
 30
0.000000
 41
0.118110
 42
0.118110
 43
1.000000
 50
90.000000
  0
INSERT
  8
17
  2
ROUNDP
 10
-1.358268
 20
0.177165
 30
0.000000
 41
0.118110
 42
0.118110
 43
1.000000
 50
90.000000
  0
INSERT
  8
17
  2
ROUNDP
 10
-1.358268
 20
0.177165
 30
0.000000
 41
0.118110
 42
0.118110
 43
1.000000
 50
90.000000
  0
INSERT
  8
17
  2
ROUNDP
 10
-1.358268
 20
-0.019685
 30
0.000000
 41
0.118110
 42
0.118110
 43
1.000000
 50
90.000000
  0
INSERT
  8
17
  2
ROUNDP
 10
-1.358268
 20
-0.019685
 30
0.000000
 41
0.118110
 42
0.118110
 43
1.000000
 50
90.000000
  0
INSERT
  8
17
  2
LONGP100
 10
0.584252
 20
2.131102
 30
0.000000
 41
0.055496
 42
0.055496
 43
1.000000
 50
180.000000
  0
INSERT
  8
17
  2
LONGP100
 10
0.584252
 20
2.131102
 30
0.000000
 41
0.055496
 42
0.055496
 43
1.000000
 50
180.000000
  0
INSERT
  8
17
  2
LONGP100
 10
0.584252
 20
1.131102
 30
0.000000
 41
0.055496
 42
0.055496
 43
1.000000
 50
0.000000
  0
INSERT
  8
17
  2
LONGP100
 10
0.584252
 20
1.131102
 30
0.000000
 41
0.055496
 42
0.055496
 43
1.000000
 50
0.000000
  0
INSERT
  8
17
  2
LONGP100
 10
0.584252
 20
1.931102
 30
0.000000
 41
0.055496
 42
0.055496
 43
1.000000
 50
0.000000
  0
INSERT
  8
17
  2
LONGP100
 10
0.584252
 20
1.931102
 30
0.000000
 41
0.055496
 42
0.055496
 43
1.000000
 50
0.000000
  0
INSERT
  8
17
  2
LONGP100
 10
0.584252
 20
1.831102
 30
0.000000
 41
0.055496
 42
0.055496
 43
1.000000
 50
0.000000
  0
INSERT
  8
17
  2
LONGP100
 10
0.584252
 20
1.831102
 30
0.000000
 41
0.055496
 42
0.055496
 43
1.000000
 50
0.000000
  0
INSERT
  8
17
  2
LONGP100
 10
0.584252
 20
1.731102
 30
0.000000
 41
0.055496
 42
0.055496
 43
1.000000
 50
0.000000
  0
INSERT
  8
17
  2
LONGP100
 10
0.584252
 20
1.731102
 30
0.000000
 41
0.055496
 42
0.055496
 43
1.000000
 50
0.000000
  0
INSERT
  8
17
  2
LONGP100
 10
0.584252
 20
1.631102
 30
0.000000
 41
0.055496
 42
0.055496
 43
1.000000
 50
0.000000
  0
INSERT
  8
17
  2
LONGP100
 10
0.584252
 20
1.631102
 30
0.000000
 41
0.055496
 42
0.055496
 43
1.000000
 50
0.000000
  0
INSERT
  8
17
  2
LONGP100
 10
0.584252
 20
1.531102
 30
0.000000
 41
0.055496
 42
0.055496
 43
1.000000
 50
180.000000
  0
INSERT
  8
17
  2
LONGP100
 10
0.584252
 20
1.531102
 30
0.000000
 41
0.055496
 42
0.055496
 43
1.000000
 50
180.000000
  0
INSERT
  8
17
  2
LONGP100
 10
0.584252
 20
1.431102
 30
0.000000
 41
0.055496
 42
0.055496
 43
1.000000
 50
180.000000
  0
INSERT
  8
17
  2
LONGP100
 10
0.584252
 20
1.431102
 30
0.000000
 41
0.055496
 42
0.055496
 43
1.000000
 50
180.000000
  0
INSERT
  8
17
  2
LONGP100
 10
0.584252
 20
1.331102
 30
0.000000
 41
0.055496
 42
0.055496
 43
1.000000
 50
180.000000
  0
INSERT
  8
17
  2
LONGP100
 10
0.584252
 20
1.331102
 30
0.000000
 41
0.055496
 42
0.055496
 43
1.000000
 50
180.000000
  0
INSERT
  8
17
  2
LONGP100
 10
0.584252
 20
1.231102
 30
0.000000
 41
0.055496
 42
0.055496
 43
1.000000
 50
180.000000
  0
INSERT
  8
17
  2
LONGP100
 10
0.584252
 20
1.231102
 30
0.000000
 41
0.055496
 42
0.055496
 43
1.000000
 50
180.000000
  0
INSERT
  8
17
  2
LONGP100
 10
0.584252
 20
2.031102
 30
0.000000
 41
0.055496
 42
0.055496
 43
1.000000
 50
180.000000
  0
INSERT
  8
17
  2
LONGP100
 10
0.584252
 20
2.031102
 30
0.000000
 41
0.055496
 42
0.055496
 43
1.000000
 50
180.000000
  0
INSERT
  8
17
  2
LONGP100
 10
1.184252
 20
1.231102
 30
0.000000
 41
0.055496
 42
0.055496
 43
1.000000
 50
0.000000
  0
INSERT
  8
17
  2
LONGP100
 10
1.184252
 20
1.231102
 30
0.000000
 41
0.055496
 42
0.055496
 43
1.000000
 50
0.000000
  0
INSERT
  8
17
  2
LONGP100
 10
1.184252
 20
1.331102
 30
0.000000
 41
0.055496
 42
0.055496
 43
1.000000
 50
0.000000
  0
INSERT
  8
17
  2
LONGP100
 10
1.184252
 20
1.331102
 30
0.000000
 41
0.055496
 42
0.055496
 43
1.000000
 50
0.000000
  0
INSERT
  8
17
  2
LONGP100
 10
1.184252
 20
1.431102
 30
0.000000
 41
0.055496
 42
0.055496
 43
1.000000
 50
0.000000
  0
INSERT
  8
17
  2
LONGP100
 10
1.184252
 20
1.431102
 30
0.000000
 41
0.055496
 42
0.055496
 43
1.000000
 50
0.000000
  0
INSERT
  8
17
  2
LONGP100
 10
1.184252
 20
1.531102
 30
0.000000
 41
0.055496
 42
0.055496
 43
1.000000
 50
0.000000
  0
INSERT
  8
17
  2
LONGP100
 10
1.184252
 20
1.531102
 30
0.000000
 41
0.055496
 42
0.055496
 43
1.000000
 50
0.000000
  0
INSERT
  8
17
  2
LONGP100
 10
1.184252
 20
1.631102
 30
0.000000
 41
0.055496
 42
0.055496
 43
1.000000
 50
0.000000
  0
INSERT
  8
17
  2
LONGP100
 10
1.184252
 20
1.631102
 30
0.000000
 41
0.055496
 42
0.055496
 43
1.000000
 50
0.000000
  0
INSERT
  8
17
  2
LONGP100
 10
1.184252
 20
1.731102
 30
0.000000
 41
0.055496
 42
0.055496
 43
1.000000
 50
0.000000
  0
INSERT
  8
17
  2
LONGP100
 10
1.184252
 20
1.731102
 30
0.000000
 41
0.055496
 42
0.055496
 43
1.000000
 50
0.000000
  0
INSERT
  8
17
  2
LONGP100
 10
1.184252
 20
1.831102
 30
0.000000
 41
0.055496
 42
0.055496
 43
1.000000
 50
0.000000
  0
INSERT
  8
17
  2
LONGP100
 10
1.184252
 20
1.831102
 30
0.000000
 41
0.055496
 42
0.055496
 43
1.000000
 50
0.000000
  0
INSERT
  8
17
  2
LONGP100
 10
1.184252
 20
1.931102
 30
0.000000
 41
0.055496
 42
0.055496
 43
1.000000
 50
0.000000
  0
INSERT
  8
17
  2
LONGP100
 10
1.184252
 20
1.931102
 30
0.000000
 41
0.055496
 42
0.055496
 43
1.000000
 50
0.000000
  0
INSERT
  8
17
  2
LONGP100
 10
1.184252
 20
2.031102
 30
0.000000
 41
0.055496
 42
0.055496
 43
1.000000
 50
0.000000
  0
INSERT
  8
17
  2
LONGP100
 10
1.184252
 20
2.031102
 30
0.000000
 41
0.055496
 42
0.055496
 43
1.000000
 50
0.000000
  0
INSERT
  8
17
  2
LONGP100
 10
1.184252
 20
2.131102
 30
0.000000
 41
0.055496
 42
0.055496
 43
1.000000
 50
0.000000
  0
INSERT
  8
17
  2
LONGP100
 10
1.184252
 20
2.131102
 30
0.000000
 41
0.055496
 42
0.055496
 43
1.000000
 50
0.000000
  0
INSERT
  8
17
  2
LONGP100
 10
1.184252
 20
2.231102
 30
0.000000
 41
0.055496
 42
0.055496
 43
1.000000
 50
0.000000
  0
INSERT
  8
17
  2
LONGP100
 10
1.184252
 20
2.231102
 30
0.000000
 41
0.055496
 42
0.055496
 43
1.000000
 50
0.000000
  0
INSERT
  8
17
  2
LONGP100
 10
0.584252
 20
2.231102
 30
0.000000
 41
0.055496
 42
0.055496
 43
1.000000
 50
0.000000
  0
INSERT
  8
17
  2
LONGP100
 10
0.584252
 20
2.231102
 30
0.000000
 41
0.055496
 42
0.055496
 43
1.000000
 50
0.000000
  0
INSERT
  8
17
  2
LONGP100
 10
0.584252
 20
0.931102
 30
0.000000
 41
0.055496
 42
0.055496
 43
1.000000
 50
0.000000
  0
INSERT
  8
17
  2
LONGP100
 10
0.584252
 20
0.931102
 30
0.000000
 41
0.055496
 42
0.055496
 43
1.000000
 50
0.000000
  0
INSERT
  8
17
  2
LONGP100
 10
1.184252
 20
1.131102
 30
0.000000
 41
0.055496
 42
0.055496
 43
1.000000
 50
0.000000
  0
INSERT
  8
17
  2
LONGP100
 10
1.184252
 20
1.131102
 30
0.000000
 41
0.055496
 42
0.055496
 43
1.000000
 50
0.000000
  0
INSERT
  8
17
  2
LONGP100
 10
0.584252
 20
0.831102
 30
0.000000
 41
0.055496
 42
0.055496
 43
1.000000
 50
0.000000
  0
INSERT
  8
17
  2
LONGP100
 10
0.584252
 20
0.831102
 30
0.000000
 41
0.055496
 42
0.055496
 43
1.000000
 50
0.000000
  0
INSERT
  8
17
  2
LONGP100
 10
0.584252
 20
1.031102
 30
0.000000
 41
0.055496
 42
0.055496
 43
1.000000
 50
0.000000
  0
INSERT
  8
17
  2
LONGP100
 10
0.584252
 20
1.031102
 30
0.000000
 41
0.055496
 42
0.055496
 43
1.000000
 50
0.000000
  0
INSERT
  8
17
  2
LONGP100
 10
1.184252
 20
1.031102
 30
0.000000
 41
0.055496
 42
0.055496
 43
1.000000
 50
0.000000
  0
INSERT
  8
17
  2
LONGP100
 10
1.184252
 20
1.031102
 30
0.000000
 41
0.055496
 42
0.055496
 43
1.000000
 50
0.000000
  0
INSERT
  8
17
  2
LONGP100
 10
1.184252
 20
0.931102
 30
0.000000
 41
0.055496
 42
0.055496
 43
1.000000
 50
0.000000
  0
INSERT
  8
17
  2
LONGP100
 10
1.184252
 20
0.931102
 30
0.000000
 41
0.055496
 42
0.055496
 43
1.000000
 50
0.000000
  0
INSERT
  8
17
  2
LONGP100
 10
1.184252
 20
0.831102
 30
0.000000
 41
0.055496
 42
0.055496
 43
1.000000
 50
0.000000
  0
INSERT
  8
17
  2
LONGP100
 10
1.184252
 20
0.831102
 30
0.000000
 41
0.055496
 42
0.055496
 43
1.000000
 50
0.000000
  0
INSERT
  8
17
  2
LONGP100
 10
-2.372047
 20
-3.375984
 30
0.000000
 41
0.118110
 42
0.118110
 43
1.000000
 50
180.000000
  0
INSERT
  8
17
  2
LONGP100
 10
-2.372047
 20
-3.375984
 30
0.000000
 41
0.118110
 42
0.118110
 43
1.000000
 50
180.000000
  0
INSERT
  8
17
  2
LONGP100
 10
-2.372047
 20
-3.218504
 30
0.000000
 41
0.118110
 42
0.118110
 43
1.000000
 50
180.000000
  0
INSERT
  8
17
  2
LONGP100
 10
-2.372047
 20
-3.218504
 30
0.000000
 41
0.118110
 42
0.118110
 43
1.000000
 50
180.000000
  0
INSERT
  8
17
  2
LONGP100
 10
-2.372047
 20
-3.061024
 30
0.000000
 41
0.118110
 42
0.118110
 43
1.000000
 50
180.000000
  0
INSERT
  8
17
  2
LONGP100
 10
-2.372047
 20
-3.061024
 30
0.000000
 41
0.118110
 42
0.118110
 43
1.000000
 50
180.000000
  0
INSERT
  8
17
  2
LONGP100
 10
-2.372047
 20
-2.903543
 30
0.000000
 41
0.118110
 42
0.118110
 43
1.000000
 50
180.000000
  0
INSERT
  8
17
  2
LONGP100
 10
-2.372047
 20
-2.903543
 30
0.000000
 41
0.118110
 42
0.118110
 43
1.000000
 50
180.000000
  0
INSERT
  8
17
  2
LONGP100
 10
-2.372047
 20
-2.746063
 30
0.000000
 41
0.118110
 42
0.118110
 43
1.000000
 50
180.000000
  0
INSERT
  8
17
  2
LONGP100
 10
-2.372047
 20
-2.746063
 30
0.000000
 41
0.118110
 42
0.118110
 43
1.000000
 50
180.000000
  0
INSERT
  8
17
  2
LONGP100
 10
-2.372047
 20
-2.588583
 30
0.000000
 41
0.118110
 42
0.118110
 43
1.000000
 50
180.000000
  0
INSERT
  8
17
  2
LONGP100
 10
-2.372047
 20
-2.588583
 30
0.000000
 41
0.118110
 42
0.118110
 43
1.000000
 50
180.000000
  0
INSERT
  8
17
  2
LONGP100
 10
-2.372047
 20
-2.431102
 30
0.000000
 41
0.118110
 42
0.118110
 43
1.000000
 50
180.000000
  0
INSERT
  8
17
  2
LONGP100
 10
-2.372047
 20
-2.431102
 30
0.000000
 41
0.118110
 42
0.118110
 43
1.000000
 50
180.000000
  0
INSERT
  8
17
  2
LONGP100
 10
-2.372047
 20
-2.273622
 30
0.000000
 41
0.118110
 42
0.118110
 43
1.000000
 50
180.000000
  0
INSERT
  8
17
  2
LONGP100
 10
-2.372047
 20
-2.273622
 30
0.000000
 41
0.118110
 42
0.118110
 43
1.000000
 50
180.000000
  0
INSERT
  8
17
  2
LONGP100
 10
-2.372047
 20
-2.116142
 30
0.000000
 41
0.118110
 42
0.118110
 43
1.000000
 50
180.000000
  0
INSERT
  8
17
  2
LONGP100
 10
-2.372047
 20
-2.116142
 30
0.000000
 41
0.118110
 42
0.118110
 43
1.000000
 50
180.000000
  0
INSERT
  8
17
  2
LONGP100
 10
-2.372047
 20
-1.958661
 30
0.000000
 41
0.118110
 42
0.118110
 43
1.000000
 50
180.000000
  0
INSERT
  8
17
  2
LONGP100
 10
-2.372047
 20
-1.958661
 30
0.000000
 41
0.118110
 42
0.118110
 43
1.000000
 50
180.000000
  0
INSERT
  8
17
  2
LONGP100
 10
-2.372047
 20
2.312992
 30
0.000000
 41
0.118110
 42
0.118110
 43
1.000000
 50
0.000000
  0
INSERT
  8
17
  2
LONGP100
 10
-2.372047
 20
2.312992
 30
0.000000
 41
0.118110
 42
0.118110
 43
1.000000
 50
0.000000
  0
INSERT
  8
17
  2
LONGP100
 10
-2.372047
 20
2.470472
 30
0.000000
 41
0.118110
 42
0.118110
 43
1.000000
 50
0.000000
  0
INSERT
  8
17
  2
LONGP100
 10
-2.372047
 20
2.470472
 30
0.000000
 41
0.118110
 42
0.118110
 43
1.000000
 50
0.000000
  0
INSERT
  8
17
  2
LONGP100
 10
-2.372047
 20
2.627953
 30
0.000000
 41
0.118110
 42
0.118110
 43
1.000000
 50
0.000000
  0
INSERT
  8
17
  2
LONGP100
 10
-2.372047
 20
2.627953
 30
0.000000
 41
0.118110
 42
0.118110
 43
1.000000
 50
0.000000
  0
INSERT
  8
17
  2
LONGP100
 10
-2.372047
 20
2.785433
 30
0.000000
 41
0.118110
 42
0.118110
 43
1.000000
 50
180.000000
  0
INSERT
  8
17
  2
LONGP100
 10
-2.372047
 20
2.785433
 30
0.000000
 41
0.118110
 42
0.118110
 43
1.000000
 50
180.000000
  0
INSERT
  8
17
  2
LONGP100
 10
-2.372047
 20
2.942913
 30
0.000000
 41
0.118110
 42
0.118110
 43
1.000000
 50
0.000000
  0
INSERT
  8
17
  2
LONGP100
 10
-2.372047
 20
2.942913
 30
0.000000
 41
0.118110
 42
0.118110
 43
1.000000
 50
0.000000
  0
INSERT
  8
17
  2
LONGP100
 10
-2.372047
 20
3.100394
 30
0.000000
 41
0.118110
 42
0.118110
 43
1.000000
 50
0.000000
  0
INSERT
  8
17
  2
LONGP100
 10
-2.372047
 20
3.100394
 30
0.000000
 41
0.118110
 42
0.118110
 43
1.000000
 50
0.000000
  0
INSERT
  8
17
  2
LONGP100
 10
-2.372047
 20
3.257874
 30
0.000000
 41
0.118110
 42
0.118110
 43
1.000000
 50
0.000000
  0
INSERT
  8
17
  2
LONGP100
 10
-2.372047
 20
3.257874
 30
0.000000
 41
0.118110
 42
0.118110
 43
1.000000
 50
0.000000
  0
INSERT
  8
17
  2
LONGP100
 10
-2.372047
 20
3.415354
 30
0.000000
 41
0.118110
 42
0.118110
 43
1.000000
 50
0.000000
  0
INSERT
  8
17
  2
LONGP100
 10
-2.372047
 20
3.415354
 30
0.000000
 41
0.118110
 42
0.118110
 43
1.000000
 50
0.000000
  0
INSERT
  8
17
  2
LONGP100
 10
2.372047
 20
3.405512
 30
0.000000
 41
0.118110
 42
0.118110
 43
1.000000
 50
0.000000
  0
INSERT
  8
17
  2
LONGP100
 10
2.372047
 20
3.405512
 30
0.000000
 41
0.118110
 42
0.118110
 43
1.000000
 50
0.000000
  0
INSERT
  8
17
  2
LONGP100
 10
2.372047
 20
3.248031
 30
0.000000
 41
0.118110
 42
0.118110
 43
1.000000
 50
0.000000
  0
INSERT
  8
17
  2
LONGP100
 10
2.372047
 20
3.248031
 30
0.000000
 41
0.118110
 42
0.118110
 43
1.000000
 50
0.000000
  0
INSERT
  8
17
  2
LONGP100
 10
2.372047
 20
3.090551
 30
0.000000
 41
0.118110
 42
0.118110
 43
1.000000
 50
0.000000
  0
INSERT
  8
17
  2
LONGP100
 10
2.372047
 20
3.090551
 30
0.000000
 41
0.118110
 42
0.118110
 43
1.000000
 50
0.000000
  0
INSERT
  8
17
  2
LONGP100
 10
2.372047
 20
2.933071
 30
0.000000
 41
0.118110
 42
0.118110
 43
1.000000
 50
0.000000
  0
INSERT
  8
17
  2
LONGP100
 10
2.372047
 20
2.933071
 30
0.000000
 41
0.118110
 42
0.118110
 43
1.000000
 50
0.000000
  0
INSERT
  8
17
  2
LONGP100
 10
2.372047
 20
2.775591
 30
0.000000
 41
0.118110
 42
0.118110
 43
1.000000
 50
0.000000
  0
INSERT
  8
17
  2
LONGP100
 10
2.372047
 20
2.775591
 30
0.000000
 41
0.118110
 42
0.118110
 43
1.000000
 50
0.000000
  0
INSERT
  8
17
  2
LONGP100
 10
2.372047
 20
2.618110
 30
0.000000
 41
0.118110
 42
0.118110
 43
1.000000
 50
0.000000
  0
INSERT
  8
17
  2
LONGP100
 10
2.372047
 20
2.618110
 30
0.000000
 41
0.118110
 42
0.118110
 43
1.000000
 50
0.000000
  0
INSERT
  8
17
  2
LONGP100
 10
2.372047
 20
2.460630
 30
0.000000
 41
0.118110
 42
0.118110
 43
1.000000
 50
0.000000
  0
INSERT
  8
17
  2
LONGP100
 10
2.372047
 20
2.460630
 30
0.000000
 41
0.118110
 42
0.118110
 43
1.000000
 50
0.000000
  0
INSERT
  8
17
  2
LONGP100
 10
2.372047
 20
2.303150
 30
0.000000
 41
0.118110
 42
0.118110
 43
1.000000
 50
0.000000
  0
INSERT
  8
17
  2
LONGP100
 10
2.372047
 20
2.303150
 30
0.000000
 41
0.118110
 42
0.118110
 43
1.000000
 50
0.000000
  0
INSERT
  8
17
  2
LONGP100
 10
2.372047
 20
2.145669
 30
0.000000
 41
0.118110
 42
0.118110
 43
1.000000
 50
0.000000
  0
INSERT
  8
17
  2
LONGP100
 10
2.372047
 20
2.145669
 30
0.000000
 41
0.118110
 42
0.118110
 43
1.000000
 50
0.000000
  0
INSERT
  8
17
  2
LONGP100
 10
2.372047
 20
1.988189
 30
0.000000
 41
0.118110
 42
0.118110
 43
1.000000
 50
0.000000
  0
INSERT
  8
17
  2
LONGP100
 10
2.372047
 20
1.988189
 30
0.000000
 41
0.118110
 42
0.118110
 43
1.000000
 50
0.000000
  0
INSERT
  8
17
  2
LONGP100
 10
2.372047
 20
1.830709
 30
0.000000
 41
0.118110
 42
0.118110
 43
1.000000
 50
0.000000
  0
INSERT
  8
17
  2
LONGP100
 10
2.372047
 20
1.830709
 30
0.000000
 41
0.118110
 42
0.118110
 43
1.000000
 50
0.000000
  0
INSERT
  8
17
  2
LONGP100
 10
2.372047
 20
1.673228
 30
0.000000
 41
0.118110
 42
0.118110
 43
1.000000
 50
0.000000
  0
INSERT
  8
17
  2
LONGP100
 10
2.372047
 20
1.673228
 30
0.000000
 41
0.118110
 42
0.118110
 43
1.000000
 50
0.000000
  0
INSERT
  8
17
  2
LONGP100
 10
2.372047
 20
1.515748
 30
0.000000
 41
0.118110
 42
0.118110
 43
1.000000
 50
0.000000
  0
INSERT
  8
17
  2
LONGP100
 10
2.372047
 20
1.515748
 30
0.000000
 41
0.118110
 42
0.118110
 43
1.000000
 50
0.000000
  0
INSERT
  8
17
  2
LONGP100
 10
2.372047
 20
1.358268
 30
0.000000
 41
0.118110
 42
0.118110
 43
1.000000
 50
0.000000
  0
INSERT
  8
17
  2
LONGP100
 10
2.372047
 20
1.358268
 30
0.000000
 41
0.118110
 42
0.118110
 43
1.000000
 50
0.000000
  0
INSERT
  8
17
  2
LONGP100
 10
2.372047
 20
0.403543
 30
0.000000
 41
0.118110
 42
0.118110
 43
1.000000
 50
0.000000
  0
INSERT
  8
17
  2
LONGP100
 10
2.372047
 20
0.403543
 30
0.000000
 41
0.118110
 42
0.118110
 43
1.000000
 50
0.000000
  0
INSERT
  8
17
  2
LONGP100
 10
2.372047
 20
0.246063
 30
0.000000
 41
0.118110
 42
0.118110
 43
1.000000
 50
0.000000
  0
INSERT
  8
17
  2
LONGP100
 10
2.372047
 20
0.246063
 30
0.000000
 41
0.118110
 42
0.118110
 43
1.000000
 50
0.000000
  0
INSERT
  8
17
  2
LONGP100
 10
2.372047
 20
0.088583
 30
0.000000
 41
0.118110
 42
0.118110
 43
1.000000
 50
0.000000
  0
INSERT
  8
17
  2
LONGP100
 10
2.372047
 20
0.088583
 30
0.000000
 41
0.118110
 42
0.118110
 43
1.000000
 50
0.000000
  0
INSERT
  8
17
  2
LONGP100
 10
2.372047
 20
-0.068898
 30
0.000000
 41
0.118110
 42
0.118110
 43
1.000000
 50
0.000000
  0
INSERT
  8
17
  2
LONGP100
 10
2.372047
 20
-0.068898
 30
0.000000
 41
0.118110
 42
0.118110
 43
1.000000
 50
0.000000
  0
INSERT
  8
17
  2
LONGP100
 10
2.372047
 20
-0.226378
 30
0.000000
 41
0.118110
 42
0.118110
 43
1.000000
 50
0.000000
  0
INSERT
  8
17
  2
LONGP100
 10
2.372047
 20
-0.226378
 30
0.000000
 41
0.118110
 42
0.118110
 43
1.000000
 50
0.000000
  0
INSERT
  8
17
  2
LONGP100
 10
2.372047
 20
-0.383858
 30
0.000000
 41
0.118110
 42
0.118110
 43
1.000000
 50
0.000000
  0
INSERT
  8
17
  2
LONGP100
 10
2.372047
 20
-0.383858
 30
0.000000
 41
0.118110
 42
0.118110
 43
1.000000
 50
0.000000
  0
INSERT
  8
17
  2
LONGP100
 10
2.372047
 20
-0.541339
 30
0.000000
 41
0.118110
 42
0.118110
 43
1.000000
 50
0.000000
  0
INSERT
  8
17
  2
LONGP100
 10
2.372047
 20
-0.541339
 30
0.000000
 41
0.118110
 42
0.118110
 43
1.000000
 50
0.000000
  0
INSERT
  8
17
  2
LONGP100
 10
2.372047
 20
-0.698819
 30
0.000000
 41
0.118110
 42
0.118110
 43
1.000000
 50
0.000000
  0
INSERT
  8
17
  2
LONGP100
 10
2.372047
 20
-0.698819
 30
0.000000
 41
0.118110
 42
0.118110
 43
1.000000
 50
0.000000
  0
INSERT
  8
17
  2
LONGP100
 10
2.372047
 20
-0.856299
 30
0.000000
 41
0.118110
 42
0.118110
 43
1.000000
 50
0.000000
  0
INSERT
  8
17
  2
LONGP100
 10
2.372047
 20
-0.856299
 30
0.000000
 41
0.118110
 42
0.118110
 43
1.000000
 50
0.000000
  0
INSERT
  8
17
  2
LONGP100
 10
2.372047
 20
-1.013780
 30
0.000000
 41
0.118110
 42
0.118110
 43
1.000000
 50
0.000000
  0
INSERT
  8
17
  2
LONGP100
 10
2.372047
 20
-1.013780
 30
0.000000
 41
0.118110
 42
0.118110
 43
1.000000
 50
0.000000
  0
INSERT
  8
17
  2
LONGP100
 10
2.372047
 20
-1.171260
 30
0.000000
 41
0.118110
 42
0.118110
 43
1.000000
 50
0.000000
  0
INSERT
  8
17
  2
LONGP100
 10
2.372047
 20
-1.171260
 30
0.000000
 41
0.118110
 42
0.118110
 43
1.000000
 50
0.000000
  0
INSERT
  8
17
  2
LONGP100
 10
2.372047
 20
-1.328740
 30
0.000000
 41
0.118110
 42
0.118110
 43
1.000000
 50
0.000000
  0
INSERT
  8
17
  2
LONGP100
 10
2.372047
 20
-1.328740
 30
0.000000
 41
0.118110
 42
0.118110
 43
1.000000
 50
0.000000
  0
INSERT
  8
17
  2
LONGP100
 10
-1.899606
 20
-3.582677
 30
0.000000
 41
0.076772
 42
0.076772
 43
1.000000
 50
135.000000
  0
INSERT
  8
17
  2
LONGP100
 10
-1.899606
 20
-3.582677
 30
0.000000
 41
0.076772
 42
0.076772
 43
1.000000
 50
135.000000
  0
INSERT
  8
17
  2
LONGP100
 10
-1.505906
 20
-3.188976
 30
0.000000
 41
0.076772
 42
0.076772
 43
1.000000
 50
135.000000
  0
INSERT
  8
17
  2
LONGP100
 10
-1.505906
 20
-3.188976
 30
0.000000
 41
0.076772
 42
0.076772
 43
1.000000
 50
135.000000
  0
INSERT
  8
17
  2
LONGP100
 10
-1.190945
 20
-3.582677
 30
0.000000
 41
0.076772
 42
0.076772
 43
1.000000
 50
135.000000
  0
INSERT
  8
17
  2
LONGP100
 10
-1.190945
 20
-3.582677
 30
0.000000
 41
0.076772
 42
0.076772
 43
1.000000
 50
135.000000
  0
INSERT
  8
17
  2
LONGP100
 10
-0.797244
 20
-3.188976
 30
0.000000
 41
0.076772
 42
0.076772
 43
1.000000
 50
135.000000
  0
INSERT
  8
17
  2
LONGP100
 10
-0.797244
 20
-3.188976
 30
0.000000
 41
0.076772
 42
0.076772
 43
1.000000
 50
135.000000
  0
INSERT
  8
17
  2
LONGP100
 10
-0.462598
 20
-3.582677
 30
0.000000
 41
0.076772
 42
0.076772
 43
1.000000
 50
135.000000
  0
INSERT
  8
17
  2
LONGP100
 10
-0.462598
 20
-3.582677
 30
0.000000
 41
0.076772
 42
0.076772
 43
1.000000
 50
135.000000
  0
INSERT
  8
17
  2
LONGP100
 10
-0.068898
 20
-3.188976
 30
0.000000
 41
0.076772
 42
0.076772
 43
1.000000
 50
135.000000
  0
INSERT
  8
17
  2
LONGP100
 10
-0.068898
 20
-3.188976
 30
0.000000
 41
0.076772
 42
0.076772
 43
1.000000
 50
135.000000
  0
INSERT
  8
17
  2
LONGP100
 10
0.265748
 20
-3.582677
 30
0.000000
 41
0.076772
 42
0.076772
 43
1.000000
 50
135.000000
  0
INSERT
  8
17
  2
LONGP100
 10
0.265748
 20
-3.582677
 30
0.000000
 41
0.076772
 42
0.076772
 43
1.000000
 50
135.000000
  0
INSERT
  8
17
  2
LONGP100
 10
0.659449
 20
-3.188976
 30
0.000000
 41
0.076772
 42
0.076772
 43
1.000000
 50
135.000000
  0
INSERT
  8
17
  2
LONGP100
 10
0.659449
 20
-3.188976
 30
0.000000
 41
0.076772
 42
0.076772
 43
1.000000
 50
135.000000
  0
INSERT
  8
17
  2
LONGP100
 10
1.505906
 20
-3.582677
 30
0.000000
 41
0.076772
 42
0.076772
 43
1.000000
 50
135.000000
  0
INSERT
  8
17
  2
LONGP100
 10
1.505906
 20
-3.582677
 30
0.000000
 41
0.076772
 42
0.076772
 43
1.000000
 50
135.000000
  0
INSERT
  8
17
  2
LONGP100
 10
1.899606
 20
-3.188976
 30
0.000000
 41
0.076772
 42
0.076772
 43
1.000000
 50
135.000000
  0
INSERT
  8
17
  2
LONGP100
 10
1.899606
 20
-3.188976
 30
0.000000
 41
0.076772
 42
0.076772
 43
1.000000
 50
135.000000
  0
INSERT
  8
17
  2
LONGP100
 10
1.003937
 20
-3.200787
 30
0.000000
 41
0.088583
 42
0.088583
 43
1.000000
 50
90.000000
  0
INSERT
  8
17
  2
LONGP100
 10
1.003937
 20
-3.200787
 30
0.000000
 41
0.088583
 42
0.088583
 43
1.000000
 50
90.000000
  0
INSERT
  8
17
  2
LONGP100
 10
1.003937
 20
-3.570866
 30
0.000000
 41
0.088583
 42
0.088583
 43
1.000000
 50
90.000000
  0
INSERT
  8
17
  2
LONGP100
 10
1.003937
 20
-3.570866
 30
0.000000
 41
0.088583
 42
0.088583
 43
1.000000
 50
90.000000
  0
INSERT
  8
17
  2
LONGP100
 10
1.141732
 20
-3.385827
 30
0.000000
 41
0.088583
 42
0.088583
 43
1.000000
 50
90.000000
  0
INSERT
  8
17
  2
LONGP100
 10
1.141732
 20
-3.385827
 30
0.000000
 41
0.088583
 42
0.088583
 43
1.000000
 50
90.000000
  0
INSERT
  8
17
  2
LONGP100
 10
2.372047
 20
-2.293307
 30
0.000000
 41
0.118110
 42
0.118110
 43
1.000000
 50
180.000000
  0
INSERT
  8
17
  2
LONGP100
 10
2.372047
 20
-2.293307
 30
0.000000
 41
0.118110
 42
0.118110
 43
1.000000
 50
180.000000
  0
INSERT
  8
17
  2
LONGP100
 10
2.372047
 20
-2.450787
 30
0.000000
 41
0.118110
 42
0.118110
 43
1.000000
 50
180.000000
  0
INSERT
  8
17
  2
LONGP100
 10
2.372047
 20
-2.450787
 30
0.000000
 41
0.118110
 42
0.118110
 43
1.000000
 50
180.000000
  0
INSERT
  8
17
  2
LONGP100
 10
2.372047
 20
-2.608268
 30
0.000000
 41
0.118110
 42
0.118110
 43
1.000000
 50
180.000000
  0
INSERT
  8
17
  2
LONGP100
 10
2.372047
 20
-2.608268
 30
0.000000
 41
0.118110
 42
0.118110
 43
1.000000
 50
180.000000
  0
INSERT
  8
17
  2
LONGP100
 10
2.372047
 20
-2.765748
 30
0.000000
 41
0.118110
 42
0.118110
 43
1.000000
 50
0.000000
  0
INSERT
  8
17
  2
LONGP100
 10
2.372047
 20
-2.765748
 30
0.000000
 41
0.118110
 42
0.118110
 43
1.000000
 50
0.000000
  0
INSERT
  8
17
  2
LONGP100
 10
2.372047
 20
-2.923228
 30
0.000000
 41
0.118110
 42
0.118110
 43
1.000000
 50
180.000000
  0
INSERT
  8
17
  2
LONGP100
 10
2.372047
 20
-2.923228
 30
0.000000
 41
0.118110
 42
0.118110
 43
1.000000
 50
180.000000
  0
INSERT
  8
17
  2
LONGP100
 10
2.372047
 20
-3.080709
 30
0.000000
 41
0.118110
 42
0.118110
 43
1.000000
 50
180.000000
  0
INSERT
  8
17
  2
LONGP100
 10
2.372047
 20
-3.080709
 30
0.000000
 41
0.118110
 42
0.118110
 43
1.000000
 50
180.000000
  0
INSERT
  8
17
  2
LONGP100
 10
2.372047
 20
-3.238189
 30
0.000000
 41
0.118110
 42
0.118110
 43
1.000000
 50
180.000000
  0
INSERT
  8
17
  2
LONGP100
 10
2.372047
 20
-3.238189
 30
0.000000
 41
0.118110
 42
0.118110
 43
1.000000
 50
180.000000
  0
INSERT
  8
17
  2
LONGP100
 10
2.372047
 20
-3.395669
 30
0.000000
 41
0.118110
 42
0.118110
 43
1.000000
 50
180.000000
  0
INSERT
  8
17
  2
LONGP100
 10
2.372047
 20
-3.395669
 30
0.000000
 41
0.118110
 42
0.118110
 43
1.000000
 50
180.000000
  0
ENDSEC
  0
EOF
