%
M48
M72
T01C0.02362
T02C0.03150
T03C0.03200
T04C0.03543
T05C0.03937
T06C0.04000
T07C0.05118
T08C0.05906
T09C0.07874
T10C0.15748
%
T01
X59871Y151406
X93335Y162233
X93335Y200619
X119910Y208493
X150422Y177981
X59871Y200619
X258690Y448650
X300028Y407312
X318965Y390540
X377076Y448650
X420107Y489005
X429950Y472272
X439792Y472272
X449635Y472272
X459477Y472272
X459477Y171091
X449635Y165186
X439792Y159280
X429950Y121879
X420107Y105146
X113020Y612824
X81524Y615973
X71682Y615973
X61839Y615973
X51997Y615973
X81524Y683887
X71682Y699635
X61839Y715383
X51997Y731131
X113020Y738020
T02
X323020Y612706
X323020Y602706
X323020Y592706
X323020Y582706
X323020Y572706
X323020Y562706
X323020Y552706
X323020Y542706
X323020Y532706
X323020Y522706
X323020Y512706
X323020Y502706
X323020Y492706
X323020Y482706
X323020Y472706
X383020Y472706
X383020Y482706
X383020Y492706
X383020Y502706
X383020Y512706
X383020Y522706
X383020Y532706
X383020Y542706
X383020Y552706
X383020Y562706
X383020Y572706
X383020Y582706
X383020Y592706
X383020Y602706
X383020Y612706
T03
X308965Y358099
X298965Y358099
T04
X288965Y326603
X318965Y326603
X215619Y445698
X215619Y473257
X215619Y500816
X215619Y528375
X185619Y528375
X185619Y500816
X185619Y473257
X185619Y445698
X181170Y421091
X151170Y421091
X103178Y408060
X103178Y438060
T05
X27391Y51997
X27391Y67745
X27391Y83493
X27391Y99241
X27391Y114989
X27391Y130737
X27391Y146485
X27391Y162233
X27391Y177981
X27391Y193729
X27391Y620894
X27391Y636643
X27391Y652391
X27391Y668139
X27391Y683887
X27391Y699635
X27391Y715383
X27391Y731131
X501800Y730146
X501800Y714398
X501800Y698650
X501800Y682902
X501800Y667154
X501800Y651406
X501800Y635658
X501800Y619910
X501800Y604162
X501800Y588414
X501800Y572666
X501800Y556918
X501800Y541170
X501800Y525422
X501800Y429950
X501800Y414202
X501800Y398454
X501800Y382706
X501800Y366957
X501800Y351209
X501800Y335461
X501800Y319713
X501800Y303965
X501800Y288217
X501800Y272469
X501800Y256721
X501800Y160265
X501800Y144517
X501800Y128769
X501800Y113020
X501800Y97272
X501800Y81524
X501800Y65776
X501800Y50028
T06
X143729Y275422
X143729Y287233
X133729Y287233
X133729Y275422
X123729Y275422
X123729Y287233
X113729Y287233
X113729Y275422
X113808Y578572
X123808Y578572
X133808Y578572
X143808Y578572
X133650Y602194
X123650Y602194
X126997Y680540
X126997Y751800
X284280Y751800
X284280Y680540
T07
X257706Y70698
X291170Y31328
X330540Y70698
X415186Y31328
X454556Y70698
X218335Y31328
X184871Y70698
X145501Y31328
X114005Y70698
X74635Y31328
T08
X364989Y32509
X378769Y51013
X364989Y69517
T09
X128769Y340383
X118926Y350225
X128769Y360068
X128769Y387627
X118926Y397469
X128769Y407312
X128769Y434871
X118926Y444713
X128769Y454556
X128769Y482115
X118926Y491957
X128769Y501800
X128769Y529359
X118926Y539202
X128769Y549044
T10
X52981Y751800
X476209Y751800
X476209Y27391
X52981Y27391
M30
