G75*
%MOIN*%
%OFA0B0*%
%FSLAX25Y25*%
%IPPOS*%
%LPD*%
%AMOC8*
5,1,8,0,0,1.08239X$1,22.5*
%
%ADD10C,0.01600*%
%ADD11C,0.00800*%
%ADD12C,0.00100*%
%ADD13C,0.00600*%
%ADD14C,0.00500*%
%ADD15C,0.00400*%
D10*
X0091367Y0232115D02*
X0166170Y0232115D01*
X0166170Y0619910D01*
X0091367Y0619910D01*
X0091367Y0232115D01*
D11*
X0111229Y0270422D02*
X0108729Y0272922D01*
X0108729Y0277922D01*
X0111229Y0280422D01*
X0116229Y0280422D01*
X0118729Y0277922D01*
X0121229Y0280422D01*
X0126229Y0280422D01*
X0128729Y0277922D01*
X0131229Y0280422D01*
X0136229Y0280422D01*
X0138729Y0277922D01*
X0141229Y0280422D01*
X0146229Y0280422D01*
X0148729Y0277922D01*
X0148729Y0272922D01*
X0146229Y0270422D01*
X0141229Y0270422D01*
X0138729Y0272922D01*
X0136229Y0270422D01*
X0131229Y0270422D01*
X0128729Y0272922D01*
X0126229Y0270422D01*
X0121229Y0270422D01*
X0118729Y0272922D01*
X0116229Y0270422D01*
X0111229Y0270422D01*
X0111229Y0282233D02*
X0108729Y0284733D01*
X0108729Y0289733D01*
X0111229Y0292233D01*
X0116229Y0292233D01*
X0118729Y0289733D01*
X0121229Y0292233D01*
X0126229Y0292233D01*
X0128729Y0289733D01*
X0131229Y0292233D01*
X0136229Y0292233D01*
X0138729Y0289733D01*
X0141229Y0292233D01*
X0146229Y0292233D01*
X0148729Y0289733D01*
X0148729Y0284733D01*
X0146229Y0282233D01*
X0141229Y0282233D01*
X0138729Y0284733D01*
X0136229Y0282233D01*
X0131229Y0282233D01*
X0128729Y0284733D01*
X0126229Y0282233D01*
X0121229Y0282233D01*
X0118729Y0284733D01*
X0116229Y0282233D01*
X0111229Y0282233D01*
X0103178Y0412060D02*
X0103178Y0413060D01*
X0100178Y0413060D01*
X0100178Y0433060D01*
X0103178Y0433060D01*
X0103178Y0434060D01*
X0103178Y0433060D02*
X0106178Y0433060D01*
X0106178Y0413060D01*
X0103178Y0413060D01*
X0155170Y0421091D02*
X0156170Y0421091D01*
X0156170Y0424091D01*
X0176170Y0424091D01*
X0176170Y0421091D01*
X0177170Y0421091D01*
X0176170Y0421091D02*
X0176170Y0418091D01*
X0156170Y0418091D01*
X0156170Y0421091D01*
X0189619Y0445698D02*
X0190619Y0445698D01*
X0190619Y0448698D01*
X0210619Y0448698D01*
X0210619Y0445698D01*
X0211619Y0445698D01*
X0210619Y0445698D02*
X0210619Y0442698D01*
X0190619Y0442698D01*
X0190619Y0445698D01*
X0190619Y0470257D02*
X0190619Y0473257D01*
X0189619Y0473257D01*
X0190619Y0473257D02*
X0190619Y0476257D01*
X0210619Y0476257D01*
X0210619Y0473257D01*
X0211619Y0473257D01*
X0210619Y0473257D02*
X0210619Y0470257D01*
X0190619Y0470257D01*
X0190619Y0497816D02*
X0190619Y0500816D01*
X0189619Y0500816D01*
X0190619Y0500816D02*
X0190619Y0503816D01*
X0210619Y0503816D01*
X0210619Y0500816D01*
X0211619Y0500816D01*
X0210619Y0500816D02*
X0210619Y0497816D01*
X0190619Y0497816D01*
X0190619Y0525375D02*
X0190619Y0528375D01*
X0189619Y0528375D01*
X0190619Y0528375D02*
X0190619Y0531375D01*
X0210619Y0531375D01*
X0210619Y0528375D01*
X0211619Y0528375D01*
X0210619Y0528375D02*
X0210619Y0525375D01*
X0190619Y0525375D01*
X0146308Y0573572D02*
X0148808Y0576072D01*
X0148808Y0581072D01*
X0146308Y0583572D01*
X0141308Y0583572D01*
X0138808Y0581072D01*
X0136308Y0583572D01*
X0131308Y0583572D01*
X0128808Y0581072D01*
X0126308Y0583572D01*
X0121308Y0583572D01*
X0118808Y0581072D01*
X0116308Y0583572D01*
X0111308Y0583572D01*
X0108808Y0581072D01*
X0108808Y0576072D01*
X0111308Y0573572D01*
X0116308Y0573572D01*
X0118808Y0576072D01*
X0121308Y0573572D01*
X0126308Y0573572D01*
X0128808Y0576072D01*
X0131308Y0573572D01*
X0136308Y0573572D01*
X0138808Y0576072D01*
X0141308Y0573572D01*
X0146308Y0573572D01*
X0136150Y0597194D02*
X0131150Y0597194D01*
X0128650Y0599694D01*
X0126150Y0597194D01*
X0121150Y0597194D01*
X0118650Y0599694D01*
X0118650Y0604694D01*
X0121150Y0607194D01*
X0126150Y0607194D01*
X0128650Y0604694D01*
X0131150Y0607194D01*
X0136150Y0607194D01*
X0138650Y0604694D01*
X0138650Y0599694D01*
X0136150Y0597194D01*
X0129497Y0675540D02*
X0124497Y0675540D01*
X0121997Y0678040D01*
X0121997Y0683040D01*
X0124497Y0685540D01*
X0129497Y0685540D01*
X0131997Y0683040D01*
X0131997Y0678040D01*
X0129497Y0675540D01*
X0129497Y0746800D02*
X0124497Y0746800D01*
X0121997Y0749300D01*
X0121997Y0754300D01*
X0124497Y0756800D01*
X0129497Y0756800D01*
X0131997Y0754300D01*
X0131997Y0749300D01*
X0129497Y0746800D01*
X0279280Y0749300D02*
X0281780Y0746800D01*
X0286780Y0746800D01*
X0289280Y0749300D01*
X0289280Y0754300D01*
X0286780Y0756800D01*
X0281780Y0756800D01*
X0279280Y0754300D01*
X0279280Y0749300D01*
X0281780Y0685540D02*
X0279280Y0683040D01*
X0279280Y0678040D01*
X0281780Y0675540D01*
X0286780Y0675540D01*
X0289280Y0678040D01*
X0289280Y0683040D01*
X0286780Y0685540D01*
X0281780Y0685540D01*
X0293965Y0365599D02*
X0293965Y0350599D01*
X0293965Y0329603D02*
X0293965Y0326603D01*
X0292965Y0326603D01*
X0293965Y0326603D02*
X0293965Y0323603D01*
X0313965Y0323603D01*
X0313965Y0326603D01*
X0314965Y0326603D01*
X0313965Y0326603D02*
X0313965Y0329603D01*
X0293965Y0329603D01*
D12*
X0293636Y0350290D02*
X0294356Y0350830D01*
X0294355Y0350829D02*
X0294536Y0350596D01*
X0294722Y0350368D01*
X0294914Y0350144D01*
X0295111Y0349925D01*
X0295313Y0349711D01*
X0295521Y0349502D01*
X0295734Y0349299D01*
X0295951Y0349100D01*
X0296174Y0348907D01*
X0296401Y0348719D01*
X0296632Y0348537D01*
X0296868Y0348360D01*
X0297109Y0348190D01*
X0297353Y0348025D01*
X0297601Y0347867D01*
X0297853Y0347714D01*
X0298109Y0347568D01*
X0298368Y0347428D01*
X0298631Y0347294D01*
X0298896Y0347167D01*
X0299165Y0347046D01*
X0299437Y0346932D01*
X0299711Y0346825D01*
X0299988Y0346724D01*
X0300267Y0346630D01*
X0300549Y0346543D01*
X0300832Y0346463D01*
X0301118Y0346390D01*
X0301405Y0346324D01*
X0301694Y0346265D01*
X0301984Y0346213D01*
X0302275Y0346168D01*
X0302567Y0346130D01*
X0302860Y0346100D01*
X0303154Y0346076D01*
X0303448Y0346060D01*
X0303742Y0346051D01*
X0304037Y0346049D01*
X0304332Y0346055D01*
X0304626Y0346067D01*
X0304920Y0346087D01*
X0305213Y0346114D01*
X0305506Y0346148D01*
X0305798Y0346189D01*
X0306088Y0346238D01*
X0306378Y0346293D01*
X0306665Y0346355D01*
X0306952Y0346425D01*
X0307236Y0346502D01*
X0307519Y0346585D01*
X0307799Y0346675D01*
X0308077Y0346772D01*
X0308353Y0346876D01*
X0308626Y0346987D01*
X0308896Y0347104D01*
X0309164Y0347228D01*
X0309428Y0347358D01*
X0309689Y0347495D01*
X0309946Y0347638D01*
X0310200Y0347788D01*
X0310451Y0347943D01*
X0310697Y0348105D01*
X0310939Y0348272D01*
X0311177Y0348446D01*
X0311411Y0348625D01*
X0311641Y0348810D01*
X0311865Y0349000D01*
X0312086Y0349196D01*
X0312301Y0349397D01*
X0312511Y0349604D01*
X0312716Y0349815D01*
X0312916Y0350032D01*
X0313111Y0350253D01*
X0313300Y0350479D01*
X0313483Y0350709D01*
X0313661Y0350944D01*
X0313833Y0351184D01*
X0313999Y0351427D01*
X0314159Y0351674D01*
X0314313Y0351925D01*
X0314461Y0352180D01*
X0314603Y0352439D01*
X0314738Y0352700D01*
X0314867Y0352965D01*
X0314989Y0353233D01*
X0315105Y0353504D01*
X0315214Y0353778D01*
X0315316Y0354054D01*
X0315411Y0354333D01*
X0315500Y0354614D01*
X0315582Y0354897D01*
X0315657Y0355182D01*
X0315724Y0355469D01*
X0315785Y0355757D01*
X0315839Y0356047D01*
X0315886Y0356338D01*
X0315925Y0356630D01*
X0315957Y0356922D01*
X0315983Y0357216D01*
X0316001Y0357510D01*
X0316011Y0357804D01*
X0316015Y0358099D01*
X0316011Y0358394D01*
X0316001Y0358688D01*
X0315983Y0358982D01*
X0315957Y0359276D01*
X0315925Y0359568D01*
X0315886Y0359860D01*
X0315839Y0360151D01*
X0315785Y0360441D01*
X0315724Y0360729D01*
X0315657Y0361016D01*
X0315582Y0361301D01*
X0315500Y0361584D01*
X0315411Y0361865D01*
X0315316Y0362144D01*
X0315214Y0362420D01*
X0315105Y0362694D01*
X0314989Y0362965D01*
X0314867Y0363233D01*
X0314738Y0363498D01*
X0314603Y0363759D01*
X0314461Y0364018D01*
X0314313Y0364273D01*
X0314159Y0364524D01*
X0313999Y0364771D01*
X0313833Y0365014D01*
X0313661Y0365254D01*
X0313483Y0365489D01*
X0313300Y0365719D01*
X0313111Y0365945D01*
X0312916Y0366166D01*
X0312716Y0366383D01*
X0312511Y0366594D01*
X0312301Y0366801D01*
X0312086Y0367002D01*
X0311865Y0367198D01*
X0311641Y0367388D01*
X0311411Y0367573D01*
X0311177Y0367752D01*
X0310939Y0367926D01*
X0310697Y0368093D01*
X0310451Y0368255D01*
X0310200Y0368410D01*
X0309946Y0368560D01*
X0309689Y0368703D01*
X0309428Y0368840D01*
X0309164Y0368970D01*
X0308896Y0369094D01*
X0308626Y0369211D01*
X0308353Y0369322D01*
X0308077Y0369426D01*
X0307799Y0369523D01*
X0307519Y0369613D01*
X0307236Y0369696D01*
X0306952Y0369773D01*
X0306665Y0369843D01*
X0306378Y0369905D01*
X0306088Y0369960D01*
X0305798Y0370009D01*
X0305506Y0370050D01*
X0305213Y0370084D01*
X0304920Y0370111D01*
X0304626Y0370131D01*
X0304332Y0370143D01*
X0304037Y0370149D01*
X0303742Y0370147D01*
X0303448Y0370138D01*
X0303154Y0370122D01*
X0302860Y0370098D01*
X0302567Y0370068D01*
X0302275Y0370030D01*
X0301984Y0369985D01*
X0301694Y0369933D01*
X0301405Y0369874D01*
X0301118Y0369808D01*
X0300832Y0369735D01*
X0300549Y0369655D01*
X0300267Y0369568D01*
X0299988Y0369474D01*
X0299711Y0369373D01*
X0299437Y0369266D01*
X0299165Y0369152D01*
X0298896Y0369031D01*
X0298631Y0368904D01*
X0298368Y0368770D01*
X0298109Y0368630D01*
X0297853Y0368484D01*
X0297601Y0368331D01*
X0297353Y0368173D01*
X0297109Y0368008D01*
X0296868Y0367838D01*
X0296632Y0367661D01*
X0296401Y0367479D01*
X0296174Y0367291D01*
X0295951Y0367098D01*
X0295734Y0366899D01*
X0295521Y0366696D01*
X0295313Y0366487D01*
X0295111Y0366273D01*
X0294914Y0366054D01*
X0294722Y0365830D01*
X0294536Y0365602D01*
X0294355Y0365369D01*
X0293636Y0365908D01*
X0293635Y0365909D01*
X0293829Y0366159D01*
X0294029Y0366405D01*
X0294235Y0366645D01*
X0294447Y0366880D01*
X0294665Y0367110D01*
X0294888Y0367335D01*
X0295116Y0367554D01*
X0295350Y0367768D01*
X0295589Y0367976D01*
X0295833Y0368178D01*
X0296082Y0368373D01*
X0296336Y0368563D01*
X0296594Y0368746D01*
X0296856Y0368923D01*
X0297123Y0369094D01*
X0297394Y0369258D01*
X0297669Y0369415D01*
X0297947Y0369566D01*
X0298230Y0369710D01*
X0298515Y0369846D01*
X0298804Y0369976D01*
X0299096Y0370099D01*
X0299391Y0370214D01*
X0299688Y0370322D01*
X0299989Y0370423D01*
X0300291Y0370517D01*
X0300596Y0370603D01*
X0300903Y0370682D01*
X0301211Y0370753D01*
X0301521Y0370816D01*
X0301833Y0370872D01*
X0302146Y0370921D01*
X0302460Y0370961D01*
X0302775Y0370994D01*
X0303091Y0371019D01*
X0303407Y0371037D01*
X0303723Y0371047D01*
X0304040Y0371049D01*
X0304357Y0371043D01*
X0304673Y0371030D01*
X0304989Y0371008D01*
X0305304Y0370980D01*
X0305619Y0370943D01*
X0305932Y0370899D01*
X0306245Y0370847D01*
X0306556Y0370787D01*
X0306865Y0370720D01*
X0307173Y0370645D01*
X0307479Y0370563D01*
X0307782Y0370474D01*
X0308084Y0370377D01*
X0308383Y0370272D01*
X0308679Y0370160D01*
X0308973Y0370042D01*
X0309263Y0369916D01*
X0309550Y0369783D01*
X0309835Y0369642D01*
X0310115Y0369495D01*
X0310392Y0369342D01*
X0310665Y0369181D01*
X0310934Y0369014D01*
X0311199Y0368840D01*
X0311459Y0368660D01*
X0311715Y0368474D01*
X0311966Y0368281D01*
X0312213Y0368083D01*
X0312455Y0367878D01*
X0312691Y0367668D01*
X0312923Y0367451D01*
X0313148Y0367229D01*
X0313369Y0367002D01*
X0313584Y0366770D01*
X0313793Y0366532D01*
X0313996Y0366289D01*
X0314194Y0366041D01*
X0314385Y0365789D01*
X0314570Y0365532D01*
X0314748Y0365270D01*
X0314920Y0365004D01*
X0315086Y0364735D01*
X0315245Y0364461D01*
X0315397Y0364183D01*
X0315542Y0363902D01*
X0315681Y0363617D01*
X0315812Y0363329D01*
X0315936Y0363037D01*
X0316054Y0362743D01*
X0316164Y0362446D01*
X0316266Y0362147D01*
X0316361Y0361845D01*
X0316449Y0361541D01*
X0316530Y0361234D01*
X0316603Y0360926D01*
X0316668Y0360616D01*
X0316726Y0360305D01*
X0316776Y0359992D01*
X0316818Y0359678D01*
X0316853Y0359364D01*
X0316880Y0359048D01*
X0316900Y0358732D01*
X0316911Y0358416D01*
X0316915Y0358099D01*
X0316911Y0357782D01*
X0316900Y0357466D01*
X0316880Y0357150D01*
X0316853Y0356834D01*
X0316818Y0356520D01*
X0316776Y0356206D01*
X0316726Y0355893D01*
X0316668Y0355582D01*
X0316603Y0355272D01*
X0316530Y0354964D01*
X0316449Y0354657D01*
X0316361Y0354353D01*
X0316266Y0354051D01*
X0316164Y0353752D01*
X0316054Y0353455D01*
X0315936Y0353161D01*
X0315812Y0352869D01*
X0315681Y0352581D01*
X0315542Y0352296D01*
X0315397Y0352015D01*
X0315245Y0351737D01*
X0315086Y0351463D01*
X0314920Y0351194D01*
X0314748Y0350928D01*
X0314570Y0350666D01*
X0314385Y0350409D01*
X0314194Y0350157D01*
X0313996Y0349909D01*
X0313793Y0349666D01*
X0313584Y0349428D01*
X0313369Y0349196D01*
X0313148Y0348969D01*
X0312923Y0348747D01*
X0312691Y0348530D01*
X0312455Y0348320D01*
X0312213Y0348115D01*
X0311966Y0347917D01*
X0311715Y0347724D01*
X0311459Y0347538D01*
X0311199Y0347358D01*
X0310934Y0347184D01*
X0310665Y0347017D01*
X0310392Y0346856D01*
X0310115Y0346703D01*
X0309835Y0346556D01*
X0309550Y0346415D01*
X0309263Y0346282D01*
X0308973Y0346156D01*
X0308679Y0346038D01*
X0308383Y0345926D01*
X0308084Y0345821D01*
X0307782Y0345724D01*
X0307479Y0345635D01*
X0307173Y0345553D01*
X0306865Y0345478D01*
X0306556Y0345411D01*
X0306245Y0345351D01*
X0305932Y0345299D01*
X0305619Y0345255D01*
X0305304Y0345218D01*
X0304989Y0345190D01*
X0304673Y0345168D01*
X0304357Y0345155D01*
X0304040Y0345149D01*
X0303723Y0345151D01*
X0303407Y0345161D01*
X0303091Y0345179D01*
X0302775Y0345204D01*
X0302460Y0345237D01*
X0302146Y0345277D01*
X0301833Y0345326D01*
X0301521Y0345382D01*
X0301211Y0345445D01*
X0300903Y0345516D01*
X0300596Y0345595D01*
X0300291Y0345681D01*
X0299989Y0345775D01*
X0299688Y0345876D01*
X0299391Y0345984D01*
X0299096Y0346099D01*
X0298804Y0346222D01*
X0298515Y0346352D01*
X0298230Y0346488D01*
X0297947Y0346632D01*
X0297669Y0346783D01*
X0297394Y0346940D01*
X0297123Y0347104D01*
X0296856Y0347275D01*
X0296594Y0347452D01*
X0296336Y0347635D01*
X0296082Y0347825D01*
X0295833Y0348020D01*
X0295589Y0348222D01*
X0295350Y0348430D01*
X0295116Y0348644D01*
X0294888Y0348863D01*
X0294665Y0349088D01*
X0294447Y0349318D01*
X0294235Y0349553D01*
X0294029Y0349793D01*
X0293829Y0350039D01*
X0293635Y0350289D01*
X0293710Y0350345D01*
X0293903Y0350097D01*
X0294102Y0349853D01*
X0294306Y0349615D01*
X0294516Y0349381D01*
X0294732Y0349153D01*
X0294954Y0348930D01*
X0295181Y0348712D01*
X0295413Y0348500D01*
X0295650Y0348294D01*
X0295892Y0348093D01*
X0296140Y0347899D01*
X0296391Y0347711D01*
X0296648Y0347529D01*
X0296908Y0347353D01*
X0297173Y0347184D01*
X0297442Y0347021D01*
X0297715Y0346865D01*
X0297991Y0346715D01*
X0298271Y0346573D01*
X0298555Y0346437D01*
X0298842Y0346308D01*
X0299132Y0346186D01*
X0299424Y0346072D01*
X0299720Y0345964D01*
X0300018Y0345864D01*
X0300318Y0345771D01*
X0300621Y0345686D01*
X0300925Y0345608D01*
X0301231Y0345537D01*
X0301539Y0345474D01*
X0301849Y0345418D01*
X0302159Y0345370D01*
X0302471Y0345330D01*
X0302784Y0345297D01*
X0303097Y0345272D01*
X0303411Y0345255D01*
X0303725Y0345245D01*
X0304040Y0345243D01*
X0304354Y0345249D01*
X0304668Y0345262D01*
X0304982Y0345283D01*
X0305295Y0345312D01*
X0305607Y0345348D01*
X0305918Y0345392D01*
X0306228Y0345444D01*
X0306537Y0345503D01*
X0306844Y0345570D01*
X0307150Y0345644D01*
X0307453Y0345725D01*
X0307755Y0345814D01*
X0308054Y0345911D01*
X0308351Y0346014D01*
X0308645Y0346125D01*
X0308936Y0346243D01*
X0309225Y0346368D01*
X0309510Y0346500D01*
X0309792Y0346639D01*
X0310070Y0346785D01*
X0310345Y0346938D01*
X0310616Y0347097D01*
X0310883Y0347263D01*
X0311146Y0347436D01*
X0311405Y0347614D01*
X0311659Y0347799D01*
X0311908Y0347991D01*
X0312153Y0348188D01*
X0312393Y0348391D01*
X0312628Y0348600D01*
X0312858Y0348815D01*
X0313082Y0349035D01*
X0313301Y0349260D01*
X0313514Y0349491D01*
X0313722Y0349727D01*
X0313924Y0349969D01*
X0314119Y0350214D01*
X0314309Y0350465D01*
X0314493Y0350720D01*
X0314670Y0350980D01*
X0314841Y0351244D01*
X0315005Y0351512D01*
X0315163Y0351784D01*
X0315314Y0352059D01*
X0315458Y0352339D01*
X0315596Y0352621D01*
X0315726Y0352907D01*
X0315850Y0353196D01*
X0315966Y0353489D01*
X0316075Y0353783D01*
X0316177Y0354081D01*
X0316271Y0354380D01*
X0316359Y0354683D01*
X0316439Y0354987D01*
X0316511Y0355292D01*
X0316576Y0355600D01*
X0316633Y0355909D01*
X0316683Y0356220D01*
X0316725Y0356531D01*
X0316760Y0356844D01*
X0316786Y0357157D01*
X0316806Y0357471D01*
X0316817Y0357785D01*
X0316821Y0358099D01*
X0316817Y0358413D01*
X0316806Y0358727D01*
X0316786Y0359041D01*
X0316760Y0359354D01*
X0316725Y0359667D01*
X0316683Y0359978D01*
X0316633Y0360289D01*
X0316576Y0360598D01*
X0316511Y0360906D01*
X0316439Y0361211D01*
X0316359Y0361515D01*
X0316271Y0361818D01*
X0316177Y0362117D01*
X0316075Y0362415D01*
X0315966Y0362709D01*
X0315850Y0363002D01*
X0315726Y0363291D01*
X0315596Y0363577D01*
X0315458Y0363859D01*
X0315314Y0364139D01*
X0315163Y0364414D01*
X0315005Y0364686D01*
X0314841Y0364954D01*
X0314670Y0365218D01*
X0314493Y0365478D01*
X0314309Y0365733D01*
X0314119Y0365984D01*
X0313924Y0366229D01*
X0313722Y0366471D01*
X0313514Y0366707D01*
X0313301Y0366938D01*
X0313082Y0367163D01*
X0312858Y0367383D01*
X0312628Y0367598D01*
X0312393Y0367807D01*
X0312153Y0368010D01*
X0311908Y0368207D01*
X0311659Y0368399D01*
X0311405Y0368584D01*
X0311146Y0368762D01*
X0310883Y0368935D01*
X0310616Y0369101D01*
X0310345Y0369260D01*
X0310070Y0369413D01*
X0309792Y0369559D01*
X0309510Y0369698D01*
X0309225Y0369830D01*
X0308936Y0369955D01*
X0308645Y0370073D01*
X0308351Y0370184D01*
X0308054Y0370287D01*
X0307755Y0370384D01*
X0307453Y0370473D01*
X0307150Y0370554D01*
X0306844Y0370628D01*
X0306537Y0370695D01*
X0306228Y0370754D01*
X0305918Y0370806D01*
X0305607Y0370850D01*
X0305295Y0370886D01*
X0304982Y0370915D01*
X0304668Y0370936D01*
X0304354Y0370949D01*
X0304040Y0370955D01*
X0303725Y0370953D01*
X0303411Y0370943D01*
X0303097Y0370926D01*
X0302784Y0370901D01*
X0302471Y0370868D01*
X0302159Y0370828D01*
X0301849Y0370780D01*
X0301539Y0370724D01*
X0301231Y0370661D01*
X0300925Y0370590D01*
X0300621Y0370512D01*
X0300318Y0370427D01*
X0300018Y0370334D01*
X0299720Y0370234D01*
X0299424Y0370126D01*
X0299132Y0370012D01*
X0298842Y0369890D01*
X0298555Y0369761D01*
X0298271Y0369625D01*
X0297991Y0369483D01*
X0297715Y0369333D01*
X0297442Y0369177D01*
X0297173Y0369014D01*
X0296908Y0368845D01*
X0296648Y0368669D01*
X0296391Y0368487D01*
X0296140Y0368299D01*
X0295892Y0368105D01*
X0295650Y0367904D01*
X0295413Y0367698D01*
X0295181Y0367486D01*
X0294954Y0367268D01*
X0294732Y0367045D01*
X0294516Y0366817D01*
X0294306Y0366583D01*
X0294102Y0366345D01*
X0293903Y0366101D01*
X0293710Y0365853D01*
X0293785Y0365796D01*
X0293977Y0366043D01*
X0294174Y0366285D01*
X0294377Y0366522D01*
X0294586Y0366753D01*
X0294800Y0366980D01*
X0295020Y0367202D01*
X0295245Y0367418D01*
X0295476Y0367628D01*
X0295711Y0367833D01*
X0295952Y0368032D01*
X0296197Y0368225D01*
X0296447Y0368411D01*
X0296701Y0368592D01*
X0296960Y0368767D01*
X0297223Y0368935D01*
X0297490Y0369096D01*
X0297761Y0369251D01*
X0298035Y0369400D01*
X0298313Y0369541D01*
X0298595Y0369676D01*
X0298879Y0369804D01*
X0299167Y0369925D01*
X0299458Y0370039D01*
X0299751Y0370145D01*
X0300047Y0370245D01*
X0300345Y0370337D01*
X0300645Y0370422D01*
X0300948Y0370499D01*
X0301252Y0370569D01*
X0301557Y0370632D01*
X0301864Y0370687D01*
X0302173Y0370735D01*
X0302482Y0370775D01*
X0302793Y0370807D01*
X0303104Y0370832D01*
X0303415Y0370849D01*
X0303727Y0370859D01*
X0304039Y0370861D01*
X0304351Y0370855D01*
X0304663Y0370842D01*
X0304974Y0370821D01*
X0305285Y0370793D01*
X0305595Y0370756D01*
X0305904Y0370713D01*
X0306212Y0370662D01*
X0306519Y0370603D01*
X0306823Y0370537D01*
X0307127Y0370463D01*
X0307428Y0370382D01*
X0307727Y0370294D01*
X0308024Y0370198D01*
X0308319Y0370095D01*
X0308611Y0369985D01*
X0308900Y0369868D01*
X0309187Y0369744D01*
X0309470Y0369613D01*
X0309750Y0369475D01*
X0310026Y0369330D01*
X0310299Y0369178D01*
X0310568Y0369020D01*
X0310833Y0368855D01*
X0311094Y0368684D01*
X0311350Y0368507D01*
X0311603Y0368323D01*
X0311850Y0368133D01*
X0312093Y0367938D01*
X0312332Y0367736D01*
X0312565Y0367528D01*
X0312793Y0367315D01*
X0313015Y0367097D01*
X0313233Y0366873D01*
X0313444Y0366644D01*
X0313650Y0366409D01*
X0313851Y0366170D01*
X0314045Y0365926D01*
X0314233Y0365677D01*
X0314416Y0365424D01*
X0314592Y0365166D01*
X0314761Y0364904D01*
X0314924Y0364638D01*
X0315081Y0364368D01*
X0315231Y0364094D01*
X0315374Y0363817D01*
X0315511Y0363537D01*
X0315640Y0363253D01*
X0315763Y0362966D01*
X0315878Y0362676D01*
X0315986Y0362383D01*
X0316088Y0362088D01*
X0316182Y0361790D01*
X0316268Y0361490D01*
X0316347Y0361189D01*
X0316419Y0360885D01*
X0316484Y0360580D01*
X0316541Y0360273D01*
X0316590Y0359965D01*
X0316632Y0359655D01*
X0316666Y0359345D01*
X0316693Y0359034D01*
X0316712Y0358723D01*
X0316723Y0358411D01*
X0316727Y0358099D01*
X0316723Y0357787D01*
X0316712Y0357475D01*
X0316693Y0357164D01*
X0316666Y0356853D01*
X0316632Y0356543D01*
X0316590Y0356233D01*
X0316541Y0355925D01*
X0316484Y0355618D01*
X0316419Y0355313D01*
X0316347Y0355009D01*
X0316268Y0354708D01*
X0316182Y0354408D01*
X0316088Y0354110D01*
X0315986Y0353815D01*
X0315878Y0353522D01*
X0315763Y0353232D01*
X0315640Y0352945D01*
X0315511Y0352661D01*
X0315374Y0352381D01*
X0315231Y0352104D01*
X0315081Y0351830D01*
X0314924Y0351560D01*
X0314761Y0351294D01*
X0314592Y0351032D01*
X0314416Y0350774D01*
X0314233Y0350521D01*
X0314045Y0350272D01*
X0313851Y0350028D01*
X0313650Y0349789D01*
X0313444Y0349554D01*
X0313233Y0349325D01*
X0313015Y0349101D01*
X0312793Y0348883D01*
X0312565Y0348670D01*
X0312332Y0348462D01*
X0312093Y0348260D01*
X0311850Y0348065D01*
X0311603Y0347875D01*
X0311350Y0347691D01*
X0311094Y0347514D01*
X0310833Y0347343D01*
X0310568Y0347178D01*
X0310299Y0347020D01*
X0310026Y0346868D01*
X0309750Y0346723D01*
X0309470Y0346585D01*
X0309187Y0346454D01*
X0308900Y0346330D01*
X0308611Y0346213D01*
X0308319Y0346103D01*
X0308024Y0346000D01*
X0307727Y0345904D01*
X0307428Y0345816D01*
X0307127Y0345735D01*
X0306823Y0345661D01*
X0306519Y0345595D01*
X0306212Y0345536D01*
X0305904Y0345485D01*
X0305595Y0345442D01*
X0305285Y0345405D01*
X0304974Y0345377D01*
X0304663Y0345356D01*
X0304351Y0345343D01*
X0304039Y0345337D01*
X0303727Y0345339D01*
X0303415Y0345349D01*
X0303104Y0345366D01*
X0302793Y0345391D01*
X0302482Y0345423D01*
X0302173Y0345463D01*
X0301864Y0345511D01*
X0301557Y0345566D01*
X0301252Y0345629D01*
X0300948Y0345699D01*
X0300645Y0345776D01*
X0300345Y0345861D01*
X0300047Y0345953D01*
X0299751Y0346053D01*
X0299458Y0346159D01*
X0299167Y0346273D01*
X0298879Y0346394D01*
X0298595Y0346522D01*
X0298313Y0346657D01*
X0298035Y0346798D01*
X0297761Y0346947D01*
X0297490Y0347102D01*
X0297223Y0347263D01*
X0296960Y0347431D01*
X0296701Y0347606D01*
X0296447Y0347787D01*
X0296197Y0347973D01*
X0295952Y0348166D01*
X0295711Y0348365D01*
X0295476Y0348570D01*
X0295245Y0348780D01*
X0295020Y0348996D01*
X0294800Y0349218D01*
X0294586Y0349445D01*
X0294377Y0349676D01*
X0294174Y0349913D01*
X0293977Y0350155D01*
X0293785Y0350402D01*
X0293861Y0350458D01*
X0294051Y0350213D01*
X0294246Y0349973D01*
X0294448Y0349738D01*
X0294655Y0349508D01*
X0294868Y0349283D01*
X0295086Y0349063D01*
X0295310Y0348849D01*
X0295539Y0348640D01*
X0295772Y0348437D01*
X0296011Y0348239D01*
X0296254Y0348048D01*
X0296503Y0347862D01*
X0296755Y0347683D01*
X0297012Y0347510D01*
X0297273Y0347343D01*
X0297538Y0347182D01*
X0297807Y0347029D01*
X0298079Y0346881D01*
X0298355Y0346741D01*
X0298635Y0346607D01*
X0298917Y0346480D01*
X0299203Y0346360D01*
X0299491Y0346247D01*
X0299782Y0346141D01*
X0300076Y0346043D01*
X0300372Y0345951D01*
X0300670Y0345867D01*
X0300970Y0345790D01*
X0301272Y0345721D01*
X0301575Y0345658D01*
X0301880Y0345604D01*
X0302186Y0345556D01*
X0302494Y0345517D01*
X0302802Y0345485D01*
X0303110Y0345460D01*
X0303420Y0345443D01*
X0303729Y0345433D01*
X0304039Y0345431D01*
X0304349Y0345437D01*
X0304658Y0345450D01*
X0304967Y0345471D01*
X0305276Y0345499D01*
X0305583Y0345535D01*
X0305890Y0345578D01*
X0306196Y0345629D01*
X0306500Y0345687D01*
X0306803Y0345753D01*
X0307104Y0345826D01*
X0307403Y0345906D01*
X0307700Y0345994D01*
X0307995Y0346089D01*
X0308287Y0346191D01*
X0308577Y0346300D01*
X0308864Y0346417D01*
X0309148Y0346540D01*
X0309429Y0346670D01*
X0309707Y0346807D01*
X0309981Y0346951D01*
X0310252Y0347101D01*
X0310519Y0347258D01*
X0310782Y0347422D01*
X0311041Y0347592D01*
X0311296Y0347768D01*
X0311547Y0347950D01*
X0311792Y0348139D01*
X0312034Y0348333D01*
X0312270Y0348533D01*
X0312501Y0348739D01*
X0312728Y0348951D01*
X0312949Y0349168D01*
X0313164Y0349390D01*
X0313375Y0349617D01*
X0313579Y0349850D01*
X0313778Y0350088D01*
X0313971Y0350330D01*
X0314158Y0350577D01*
X0314339Y0350828D01*
X0314513Y0351084D01*
X0314682Y0351344D01*
X0314844Y0351608D01*
X0314999Y0351876D01*
X0315148Y0352148D01*
X0315290Y0352423D01*
X0315426Y0352702D01*
X0315554Y0352983D01*
X0315676Y0353268D01*
X0315790Y0353556D01*
X0315898Y0353847D01*
X0315998Y0354140D01*
X0316092Y0354435D01*
X0316178Y0354733D01*
X0316256Y0355032D01*
X0316327Y0355334D01*
X0316391Y0355637D01*
X0316448Y0355941D01*
X0316497Y0356247D01*
X0316538Y0356554D01*
X0316572Y0356862D01*
X0316599Y0357171D01*
X0316618Y0357480D01*
X0316629Y0357789D01*
X0316633Y0358099D01*
X0316629Y0358409D01*
X0316618Y0358718D01*
X0316599Y0359027D01*
X0316572Y0359336D01*
X0316538Y0359644D01*
X0316497Y0359951D01*
X0316448Y0360257D01*
X0316391Y0360561D01*
X0316327Y0360864D01*
X0316256Y0361166D01*
X0316178Y0361465D01*
X0316092Y0361763D01*
X0315998Y0362058D01*
X0315898Y0362351D01*
X0315790Y0362642D01*
X0315676Y0362930D01*
X0315554Y0363215D01*
X0315426Y0363496D01*
X0315290Y0363775D01*
X0315148Y0364050D01*
X0314999Y0364322D01*
X0314844Y0364590D01*
X0314682Y0364854D01*
X0314513Y0365114D01*
X0314339Y0365370D01*
X0314158Y0365621D01*
X0313971Y0365868D01*
X0313778Y0366110D01*
X0313579Y0366348D01*
X0313375Y0366581D01*
X0313164Y0366808D01*
X0312949Y0367030D01*
X0312728Y0367247D01*
X0312501Y0367459D01*
X0312270Y0367665D01*
X0312034Y0367865D01*
X0311792Y0368059D01*
X0311547Y0368248D01*
X0311296Y0368430D01*
X0311041Y0368606D01*
X0310782Y0368776D01*
X0310519Y0368940D01*
X0310252Y0369097D01*
X0309981Y0369247D01*
X0309707Y0369391D01*
X0309429Y0369528D01*
X0309148Y0369658D01*
X0308864Y0369781D01*
X0308577Y0369898D01*
X0308287Y0370007D01*
X0307995Y0370109D01*
X0307700Y0370204D01*
X0307403Y0370292D01*
X0307104Y0370372D01*
X0306803Y0370445D01*
X0306500Y0370511D01*
X0306196Y0370569D01*
X0305890Y0370620D01*
X0305583Y0370663D01*
X0305276Y0370699D01*
X0304967Y0370727D01*
X0304658Y0370748D01*
X0304349Y0370761D01*
X0304039Y0370767D01*
X0303729Y0370765D01*
X0303420Y0370755D01*
X0303110Y0370738D01*
X0302802Y0370713D01*
X0302494Y0370681D01*
X0302186Y0370642D01*
X0301880Y0370594D01*
X0301575Y0370540D01*
X0301272Y0370477D01*
X0300970Y0370408D01*
X0300670Y0370331D01*
X0300372Y0370247D01*
X0300076Y0370155D01*
X0299782Y0370057D01*
X0299491Y0369951D01*
X0299203Y0369838D01*
X0298917Y0369718D01*
X0298635Y0369591D01*
X0298355Y0369457D01*
X0298079Y0369317D01*
X0297807Y0369169D01*
X0297538Y0369016D01*
X0297273Y0368855D01*
X0297012Y0368688D01*
X0296755Y0368515D01*
X0296503Y0368336D01*
X0296254Y0368150D01*
X0296011Y0367959D01*
X0295772Y0367761D01*
X0295539Y0367558D01*
X0295310Y0367349D01*
X0295086Y0367135D01*
X0294868Y0366915D01*
X0294655Y0366690D01*
X0294448Y0366460D01*
X0294246Y0366225D01*
X0294051Y0365985D01*
X0293861Y0365740D01*
X0293936Y0365683D01*
X0294124Y0365926D01*
X0294319Y0366165D01*
X0294519Y0366398D01*
X0294724Y0366626D01*
X0294936Y0366850D01*
X0295152Y0367068D01*
X0295374Y0367281D01*
X0295601Y0367488D01*
X0295833Y0367690D01*
X0296070Y0367886D01*
X0296312Y0368076D01*
X0296558Y0368260D01*
X0296809Y0368438D01*
X0297064Y0368610D01*
X0297323Y0368775D01*
X0297586Y0368935D01*
X0297853Y0369087D01*
X0298123Y0369234D01*
X0298397Y0369373D01*
X0298674Y0369506D01*
X0298955Y0369632D01*
X0299238Y0369751D01*
X0299525Y0369863D01*
X0299814Y0369968D01*
X0300105Y0370066D01*
X0300399Y0370157D01*
X0300695Y0370240D01*
X0300992Y0370317D01*
X0301292Y0370386D01*
X0301593Y0370447D01*
X0301896Y0370502D01*
X0302200Y0370548D01*
X0302505Y0370588D01*
X0302810Y0370620D01*
X0303117Y0370644D01*
X0303424Y0370661D01*
X0303731Y0370671D01*
X0304039Y0370673D01*
X0304346Y0370667D01*
X0304653Y0370654D01*
X0304960Y0370634D01*
X0305266Y0370605D01*
X0305572Y0370570D01*
X0305876Y0370527D01*
X0306179Y0370476D01*
X0306481Y0370419D01*
X0306782Y0370353D01*
X0307081Y0370281D01*
X0307377Y0370201D01*
X0307672Y0370114D01*
X0307965Y0370020D01*
X0308255Y0369918D01*
X0308543Y0369810D01*
X0308828Y0369695D01*
X0309110Y0369572D01*
X0309389Y0369443D01*
X0309665Y0369307D01*
X0309937Y0369164D01*
X0310206Y0369015D01*
X0310471Y0368859D01*
X0310732Y0368697D01*
X0310989Y0368528D01*
X0311242Y0368353D01*
X0311490Y0368172D01*
X0311734Y0367985D01*
X0311974Y0367792D01*
X0312208Y0367594D01*
X0312438Y0367389D01*
X0312663Y0367179D01*
X0312882Y0366964D01*
X0313096Y0366743D01*
X0313305Y0366518D01*
X0313508Y0366287D01*
X0313705Y0366051D01*
X0313897Y0365810D01*
X0314082Y0365565D01*
X0314262Y0365316D01*
X0314435Y0365062D01*
X0314602Y0364804D01*
X0314763Y0364542D01*
X0314917Y0364276D01*
X0315065Y0364006D01*
X0315206Y0363733D01*
X0315341Y0363456D01*
X0315468Y0363177D01*
X0315589Y0362894D01*
X0315703Y0362608D01*
X0315809Y0362320D01*
X0315909Y0362029D01*
X0316002Y0361736D01*
X0316087Y0361440D01*
X0316165Y0361143D01*
X0316236Y0360844D01*
X0316299Y0360543D01*
X0316355Y0360241D01*
X0316404Y0359937D01*
X0316445Y0359632D01*
X0316479Y0359327D01*
X0316505Y0359021D01*
X0316524Y0358714D01*
X0316535Y0358406D01*
X0316539Y0358099D01*
X0316535Y0357792D01*
X0316524Y0357484D01*
X0316505Y0357177D01*
X0316479Y0356871D01*
X0316445Y0356566D01*
X0316404Y0356261D01*
X0316355Y0355957D01*
X0316299Y0355655D01*
X0316236Y0355354D01*
X0316165Y0355055D01*
X0316087Y0354758D01*
X0316002Y0354462D01*
X0315909Y0354169D01*
X0315809Y0353878D01*
X0315703Y0353590D01*
X0315589Y0353304D01*
X0315468Y0353021D01*
X0315341Y0352742D01*
X0315206Y0352465D01*
X0315065Y0352192D01*
X0314917Y0351922D01*
X0314763Y0351656D01*
X0314602Y0351394D01*
X0314435Y0351136D01*
X0314262Y0350882D01*
X0314082Y0350633D01*
X0313897Y0350388D01*
X0313705Y0350147D01*
X0313508Y0349911D01*
X0313305Y0349680D01*
X0313096Y0349455D01*
X0312882Y0349234D01*
X0312663Y0349019D01*
X0312438Y0348809D01*
X0312208Y0348604D01*
X0311974Y0348406D01*
X0311734Y0348213D01*
X0311490Y0348026D01*
X0311242Y0347845D01*
X0310989Y0347670D01*
X0310732Y0347501D01*
X0310471Y0347339D01*
X0310206Y0347183D01*
X0309937Y0347034D01*
X0309665Y0346891D01*
X0309389Y0346755D01*
X0309110Y0346626D01*
X0308828Y0346503D01*
X0308543Y0346388D01*
X0308255Y0346280D01*
X0307965Y0346178D01*
X0307672Y0346084D01*
X0307377Y0345997D01*
X0307081Y0345917D01*
X0306782Y0345845D01*
X0306481Y0345779D01*
X0306179Y0345722D01*
X0305876Y0345671D01*
X0305572Y0345628D01*
X0305266Y0345593D01*
X0304960Y0345564D01*
X0304653Y0345544D01*
X0304346Y0345531D01*
X0304039Y0345525D01*
X0303731Y0345527D01*
X0303424Y0345537D01*
X0303117Y0345554D01*
X0302810Y0345578D01*
X0302505Y0345610D01*
X0302200Y0345650D01*
X0301896Y0345696D01*
X0301593Y0345751D01*
X0301292Y0345812D01*
X0300992Y0345881D01*
X0300695Y0345958D01*
X0300399Y0346041D01*
X0300105Y0346132D01*
X0299814Y0346230D01*
X0299525Y0346335D01*
X0299238Y0346447D01*
X0298955Y0346566D01*
X0298674Y0346692D01*
X0298397Y0346825D01*
X0298123Y0346964D01*
X0297853Y0347111D01*
X0297586Y0347263D01*
X0297323Y0347423D01*
X0297064Y0347588D01*
X0296809Y0347760D01*
X0296558Y0347938D01*
X0296312Y0348122D01*
X0296070Y0348312D01*
X0295833Y0348508D01*
X0295601Y0348710D01*
X0295374Y0348917D01*
X0295152Y0349130D01*
X0294936Y0349348D01*
X0294724Y0349572D01*
X0294519Y0349800D01*
X0294319Y0350033D01*
X0294124Y0350272D01*
X0293936Y0350515D01*
X0294011Y0350571D01*
X0294198Y0350330D01*
X0294391Y0350093D01*
X0294590Y0349862D01*
X0294794Y0349635D01*
X0295003Y0349413D01*
X0295218Y0349197D01*
X0295439Y0348986D01*
X0295664Y0348780D01*
X0295894Y0348580D01*
X0296130Y0348385D01*
X0296369Y0348197D01*
X0296614Y0348014D01*
X0296863Y0347837D01*
X0297116Y0347667D01*
X0297373Y0347502D01*
X0297634Y0347344D01*
X0297899Y0347193D01*
X0298167Y0347048D01*
X0298439Y0346909D01*
X0298714Y0346777D01*
X0298993Y0346652D01*
X0299274Y0346534D01*
X0299558Y0346423D01*
X0299845Y0346319D01*
X0300134Y0346221D01*
X0300426Y0346131D01*
X0300719Y0346048D01*
X0301015Y0345973D01*
X0301312Y0345904D01*
X0301611Y0345843D01*
X0301912Y0345789D01*
X0302213Y0345743D01*
X0302516Y0345703D01*
X0302819Y0345672D01*
X0303124Y0345647D01*
X0303428Y0345631D01*
X0303733Y0345621D01*
X0304038Y0345619D01*
X0304343Y0345625D01*
X0304648Y0345638D01*
X0304953Y0345658D01*
X0305257Y0345686D01*
X0305560Y0345721D01*
X0305862Y0345764D01*
X0306163Y0345814D01*
X0306463Y0345871D01*
X0306761Y0345936D01*
X0307057Y0346008D01*
X0307352Y0346087D01*
X0307645Y0346174D01*
X0307935Y0346267D01*
X0308223Y0346368D01*
X0308509Y0346476D01*
X0308792Y0346590D01*
X0309072Y0346712D01*
X0309349Y0346840D01*
X0309622Y0346975D01*
X0309892Y0347116D01*
X0310159Y0347265D01*
X0310422Y0347419D01*
X0310681Y0347580D01*
X0310937Y0347748D01*
X0311188Y0347921D01*
X0311434Y0348101D01*
X0311676Y0348287D01*
X0311914Y0348478D01*
X0312147Y0348675D01*
X0312375Y0348878D01*
X0312598Y0349087D01*
X0312816Y0349300D01*
X0313028Y0349519D01*
X0313235Y0349743D01*
X0313437Y0349973D01*
X0313633Y0350207D01*
X0313823Y0350445D01*
X0314007Y0350689D01*
X0314185Y0350936D01*
X0314357Y0351188D01*
X0314523Y0351445D01*
X0314682Y0351705D01*
X0314836Y0351969D01*
X0314982Y0352236D01*
X0315122Y0352507D01*
X0315256Y0352782D01*
X0315382Y0353059D01*
X0315502Y0353340D01*
X0315615Y0353624D01*
X0315721Y0353910D01*
X0315820Y0354198D01*
X0315912Y0354489D01*
X0315996Y0354783D01*
X0316074Y0355078D01*
X0316144Y0355375D01*
X0316207Y0355673D01*
X0316263Y0355973D01*
X0316311Y0356275D01*
X0316352Y0356577D01*
X0316385Y0356880D01*
X0316411Y0357184D01*
X0316430Y0357489D01*
X0316441Y0357794D01*
X0316445Y0358099D01*
X0316441Y0358404D01*
X0316430Y0358709D01*
X0316411Y0359014D01*
X0316385Y0359318D01*
X0316352Y0359621D01*
X0316311Y0359923D01*
X0316263Y0360225D01*
X0316207Y0360525D01*
X0316144Y0360823D01*
X0316074Y0361120D01*
X0315996Y0361415D01*
X0315912Y0361709D01*
X0315820Y0362000D01*
X0315721Y0362288D01*
X0315615Y0362574D01*
X0315502Y0362858D01*
X0315382Y0363139D01*
X0315256Y0363416D01*
X0315122Y0363691D01*
X0314982Y0363962D01*
X0314836Y0364229D01*
X0314682Y0364493D01*
X0314523Y0364753D01*
X0314357Y0365010D01*
X0314185Y0365262D01*
X0314007Y0365509D01*
X0313823Y0365753D01*
X0313633Y0365991D01*
X0313437Y0366225D01*
X0313235Y0366455D01*
X0313028Y0366679D01*
X0312816Y0366898D01*
X0312598Y0367111D01*
X0312375Y0367320D01*
X0312147Y0367523D01*
X0311914Y0367720D01*
X0311676Y0367911D01*
X0311434Y0368097D01*
X0311188Y0368277D01*
X0310937Y0368450D01*
X0310681Y0368618D01*
X0310422Y0368779D01*
X0310159Y0368933D01*
X0309892Y0369082D01*
X0309622Y0369223D01*
X0309349Y0369358D01*
X0309072Y0369486D01*
X0308792Y0369608D01*
X0308509Y0369722D01*
X0308223Y0369830D01*
X0307935Y0369931D01*
X0307645Y0370024D01*
X0307352Y0370111D01*
X0307057Y0370190D01*
X0306761Y0370262D01*
X0306463Y0370327D01*
X0306163Y0370384D01*
X0305862Y0370434D01*
X0305560Y0370477D01*
X0305257Y0370512D01*
X0304953Y0370540D01*
X0304648Y0370560D01*
X0304343Y0370573D01*
X0304038Y0370579D01*
X0303733Y0370577D01*
X0303428Y0370567D01*
X0303124Y0370551D01*
X0302819Y0370526D01*
X0302516Y0370495D01*
X0302213Y0370455D01*
X0301912Y0370409D01*
X0301611Y0370355D01*
X0301312Y0370294D01*
X0301015Y0370225D01*
X0300719Y0370150D01*
X0300426Y0370067D01*
X0300134Y0369977D01*
X0299845Y0369879D01*
X0299558Y0369775D01*
X0299274Y0369664D01*
X0298993Y0369546D01*
X0298714Y0369421D01*
X0298439Y0369289D01*
X0298167Y0369150D01*
X0297899Y0369005D01*
X0297634Y0368854D01*
X0297373Y0368696D01*
X0297116Y0368531D01*
X0296863Y0368361D01*
X0296614Y0368184D01*
X0296369Y0368001D01*
X0296130Y0367813D01*
X0295894Y0367618D01*
X0295664Y0367418D01*
X0295439Y0367212D01*
X0295218Y0367001D01*
X0295003Y0366785D01*
X0294794Y0366563D01*
X0294590Y0366336D01*
X0294391Y0366105D01*
X0294198Y0365868D01*
X0294011Y0365627D01*
X0294086Y0365571D01*
X0294272Y0365810D01*
X0294463Y0366045D01*
X0294660Y0366274D01*
X0294863Y0366499D01*
X0295071Y0366720D01*
X0295285Y0366934D01*
X0295503Y0367144D01*
X0295727Y0367348D01*
X0295955Y0367547D01*
X0296189Y0367740D01*
X0296427Y0367927D01*
X0296669Y0368108D01*
X0296916Y0368284D01*
X0297167Y0368453D01*
X0297423Y0368616D01*
X0297682Y0368773D01*
X0297945Y0368923D01*
X0298211Y0369067D01*
X0298481Y0369205D01*
X0298754Y0369336D01*
X0299030Y0369460D01*
X0299310Y0369577D01*
X0299592Y0369687D01*
X0299876Y0369791D01*
X0300163Y0369887D01*
X0300453Y0369977D01*
X0300744Y0370059D01*
X0301037Y0370134D01*
X0301333Y0370202D01*
X0301629Y0370263D01*
X0301927Y0370316D01*
X0302227Y0370362D01*
X0302527Y0370401D01*
X0302828Y0370433D01*
X0303130Y0370457D01*
X0303433Y0370474D01*
X0303735Y0370483D01*
X0304038Y0370485D01*
X0304341Y0370479D01*
X0304643Y0370466D01*
X0304946Y0370446D01*
X0305247Y0370418D01*
X0305548Y0370383D01*
X0305848Y0370341D01*
X0306147Y0370291D01*
X0306444Y0370234D01*
X0306740Y0370170D01*
X0307034Y0370099D01*
X0307327Y0370020D01*
X0307617Y0369934D01*
X0307906Y0369841D01*
X0308191Y0369742D01*
X0308475Y0369635D01*
X0308755Y0369521D01*
X0309033Y0369401D01*
X0309308Y0369273D01*
X0309580Y0369139D01*
X0309848Y0368999D01*
X0310113Y0368852D01*
X0310374Y0368698D01*
X0310631Y0368538D01*
X0310884Y0368372D01*
X0311133Y0368200D01*
X0311378Y0368022D01*
X0311619Y0367837D01*
X0311854Y0367647D01*
X0312085Y0367452D01*
X0312312Y0367250D01*
X0312533Y0367044D01*
X0312749Y0366831D01*
X0312960Y0366614D01*
X0313165Y0366392D01*
X0313365Y0366164D01*
X0313560Y0365932D01*
X0313748Y0365695D01*
X0313931Y0365453D01*
X0314108Y0365208D01*
X0314279Y0364957D01*
X0314443Y0364703D01*
X0314602Y0364445D01*
X0314754Y0364183D01*
X0314899Y0363918D01*
X0315038Y0363649D01*
X0315171Y0363376D01*
X0315296Y0363101D01*
X0315415Y0362822D01*
X0315527Y0362541D01*
X0315632Y0362257D01*
X0315731Y0361970D01*
X0315822Y0361681D01*
X0315906Y0361390D01*
X0315983Y0361097D01*
X0316052Y0360803D01*
X0316115Y0360506D01*
X0316170Y0360209D01*
X0316218Y0359910D01*
X0316259Y0359610D01*
X0316292Y0359308D01*
X0316318Y0359007D01*
X0316336Y0358704D01*
X0316347Y0358402D01*
X0316351Y0358099D01*
X0316347Y0357796D01*
X0316336Y0357494D01*
X0316318Y0357191D01*
X0316292Y0356890D01*
X0316259Y0356588D01*
X0316218Y0356288D01*
X0316170Y0355989D01*
X0316115Y0355692D01*
X0316052Y0355395D01*
X0315983Y0355101D01*
X0315906Y0354808D01*
X0315822Y0354517D01*
X0315731Y0354228D01*
X0315632Y0353941D01*
X0315527Y0353657D01*
X0315415Y0353376D01*
X0315296Y0353097D01*
X0315171Y0352822D01*
X0315038Y0352549D01*
X0314899Y0352280D01*
X0314754Y0352015D01*
X0314602Y0351753D01*
X0314443Y0351495D01*
X0314279Y0351241D01*
X0314108Y0350990D01*
X0313931Y0350745D01*
X0313748Y0350503D01*
X0313560Y0350266D01*
X0313365Y0350034D01*
X0313165Y0349806D01*
X0312960Y0349584D01*
X0312749Y0349367D01*
X0312533Y0349154D01*
X0312312Y0348948D01*
X0312085Y0348746D01*
X0311854Y0348551D01*
X0311619Y0348361D01*
X0311378Y0348176D01*
X0311133Y0347998D01*
X0310884Y0347826D01*
X0310631Y0347660D01*
X0310374Y0347500D01*
X0310113Y0347346D01*
X0309848Y0347199D01*
X0309580Y0347059D01*
X0309308Y0346925D01*
X0309033Y0346797D01*
X0308755Y0346677D01*
X0308475Y0346563D01*
X0308191Y0346456D01*
X0307906Y0346357D01*
X0307617Y0346264D01*
X0307327Y0346178D01*
X0307034Y0346099D01*
X0306740Y0346028D01*
X0306444Y0345964D01*
X0306147Y0345907D01*
X0305848Y0345857D01*
X0305548Y0345815D01*
X0305247Y0345780D01*
X0304946Y0345752D01*
X0304643Y0345732D01*
X0304341Y0345719D01*
X0304038Y0345713D01*
X0303735Y0345715D01*
X0303433Y0345724D01*
X0303130Y0345741D01*
X0302828Y0345765D01*
X0302527Y0345797D01*
X0302227Y0345836D01*
X0301927Y0345882D01*
X0301629Y0345935D01*
X0301333Y0345996D01*
X0301037Y0346064D01*
X0300744Y0346139D01*
X0300453Y0346221D01*
X0300163Y0346311D01*
X0299876Y0346407D01*
X0299592Y0346511D01*
X0299310Y0346621D01*
X0299030Y0346738D01*
X0298754Y0346862D01*
X0298481Y0346993D01*
X0298211Y0347131D01*
X0297945Y0347275D01*
X0297682Y0347425D01*
X0297423Y0347582D01*
X0297167Y0347745D01*
X0296916Y0347914D01*
X0296669Y0348090D01*
X0296427Y0348271D01*
X0296189Y0348458D01*
X0295955Y0348651D01*
X0295727Y0348850D01*
X0295503Y0349054D01*
X0295285Y0349264D01*
X0295071Y0349478D01*
X0294863Y0349699D01*
X0294660Y0349924D01*
X0294463Y0350153D01*
X0294272Y0350388D01*
X0294086Y0350627D01*
X0294161Y0350684D01*
X0294346Y0350446D01*
X0294536Y0350214D01*
X0294731Y0349985D01*
X0294932Y0349762D01*
X0295139Y0349544D01*
X0295351Y0349330D01*
X0295568Y0349122D01*
X0295790Y0348920D01*
X0296017Y0348723D01*
X0296248Y0348531D01*
X0296484Y0348345D01*
X0296725Y0348165D01*
X0296970Y0347991D01*
X0297219Y0347823D01*
X0297473Y0347661D01*
X0297730Y0347506D01*
X0297991Y0347357D01*
X0298255Y0347214D01*
X0298523Y0347077D01*
X0298794Y0346948D01*
X0299068Y0346825D01*
X0299345Y0346708D01*
X0299625Y0346599D01*
X0299908Y0346496D01*
X0300192Y0346400D01*
X0300480Y0346312D01*
X0300769Y0346230D01*
X0301060Y0346155D01*
X0301353Y0346088D01*
X0301647Y0346027D01*
X0301943Y0345974D01*
X0302240Y0345929D01*
X0302538Y0345890D01*
X0302837Y0345859D01*
X0303137Y0345835D01*
X0303437Y0345818D01*
X0303737Y0345809D01*
X0304038Y0345807D01*
X0304338Y0345813D01*
X0304639Y0345825D01*
X0304938Y0345846D01*
X0305238Y0345873D01*
X0305536Y0345908D01*
X0305834Y0345950D01*
X0306130Y0345999D01*
X0306425Y0346056D01*
X0306719Y0346120D01*
X0307011Y0346190D01*
X0307301Y0346268D01*
X0307590Y0346354D01*
X0307876Y0346446D01*
X0308160Y0346545D01*
X0308441Y0346651D01*
X0308719Y0346764D01*
X0308995Y0346883D01*
X0309268Y0347010D01*
X0309537Y0347143D01*
X0309803Y0347282D01*
X0310066Y0347428D01*
X0310325Y0347580D01*
X0310581Y0347739D01*
X0310832Y0347904D01*
X0311079Y0348075D01*
X0311322Y0348252D01*
X0311561Y0348435D01*
X0311795Y0348623D01*
X0312024Y0348817D01*
X0312248Y0349017D01*
X0312468Y0349222D01*
X0312682Y0349433D01*
X0312892Y0349649D01*
X0313096Y0349869D01*
X0313294Y0350095D01*
X0313487Y0350326D01*
X0313674Y0350561D01*
X0313856Y0350800D01*
X0314031Y0351044D01*
X0314201Y0351293D01*
X0314364Y0351545D01*
X0314521Y0351801D01*
X0314672Y0352061D01*
X0314816Y0352325D01*
X0314954Y0352592D01*
X0315086Y0352862D01*
X0315210Y0353135D01*
X0315328Y0353412D01*
X0315439Y0353691D01*
X0315544Y0353973D01*
X0315641Y0354257D01*
X0315732Y0354544D01*
X0315815Y0354833D01*
X0315891Y0355123D01*
X0315961Y0355416D01*
X0316023Y0355710D01*
X0316077Y0356005D01*
X0316125Y0356302D01*
X0316165Y0356600D01*
X0316198Y0356899D01*
X0316224Y0357198D01*
X0316242Y0357498D01*
X0316253Y0357798D01*
X0316257Y0358099D01*
X0316253Y0358400D01*
X0316242Y0358700D01*
X0316224Y0359000D01*
X0316198Y0359299D01*
X0316165Y0359598D01*
X0316125Y0359896D01*
X0316077Y0360193D01*
X0316023Y0360488D01*
X0315961Y0360782D01*
X0315891Y0361075D01*
X0315815Y0361365D01*
X0315732Y0361654D01*
X0315641Y0361941D01*
X0315544Y0362225D01*
X0315439Y0362507D01*
X0315328Y0362786D01*
X0315210Y0363063D01*
X0315086Y0363336D01*
X0314954Y0363606D01*
X0314816Y0363873D01*
X0314672Y0364137D01*
X0314521Y0364397D01*
X0314364Y0364653D01*
X0314201Y0364905D01*
X0314031Y0365154D01*
X0313856Y0365398D01*
X0313674Y0365637D01*
X0313487Y0365872D01*
X0313294Y0366103D01*
X0313096Y0366329D01*
X0312892Y0366549D01*
X0312682Y0366765D01*
X0312468Y0366976D01*
X0312248Y0367181D01*
X0312024Y0367381D01*
X0311795Y0367575D01*
X0311561Y0367763D01*
X0311322Y0367946D01*
X0311079Y0368123D01*
X0310832Y0368294D01*
X0310581Y0368459D01*
X0310325Y0368618D01*
X0310066Y0368770D01*
X0309803Y0368916D01*
X0309537Y0369055D01*
X0309268Y0369188D01*
X0308995Y0369315D01*
X0308719Y0369434D01*
X0308441Y0369547D01*
X0308160Y0369653D01*
X0307876Y0369752D01*
X0307590Y0369844D01*
X0307301Y0369930D01*
X0307011Y0370008D01*
X0306719Y0370078D01*
X0306425Y0370142D01*
X0306130Y0370199D01*
X0305834Y0370248D01*
X0305536Y0370290D01*
X0305238Y0370325D01*
X0304938Y0370352D01*
X0304639Y0370373D01*
X0304338Y0370385D01*
X0304038Y0370391D01*
X0303737Y0370389D01*
X0303437Y0370380D01*
X0303137Y0370363D01*
X0302837Y0370339D01*
X0302538Y0370308D01*
X0302240Y0370269D01*
X0301943Y0370224D01*
X0301647Y0370171D01*
X0301353Y0370110D01*
X0301060Y0370043D01*
X0300769Y0369968D01*
X0300480Y0369886D01*
X0300192Y0369798D01*
X0299908Y0369702D01*
X0299625Y0369599D01*
X0299345Y0369490D01*
X0299068Y0369373D01*
X0298794Y0369250D01*
X0298523Y0369121D01*
X0298255Y0368984D01*
X0297991Y0368841D01*
X0297730Y0368692D01*
X0297473Y0368537D01*
X0297219Y0368375D01*
X0296970Y0368207D01*
X0296725Y0368033D01*
X0296484Y0367853D01*
X0296248Y0367667D01*
X0296017Y0367475D01*
X0295790Y0367278D01*
X0295568Y0367076D01*
X0295351Y0366868D01*
X0295139Y0366654D01*
X0294932Y0366436D01*
X0294731Y0366213D01*
X0294536Y0365984D01*
X0294346Y0365752D01*
X0294161Y0365514D01*
X0294237Y0365458D01*
X0294419Y0365693D01*
X0294608Y0365924D01*
X0294802Y0366151D01*
X0295002Y0366373D01*
X0295207Y0366589D01*
X0295417Y0366801D01*
X0295632Y0367007D01*
X0295852Y0367208D01*
X0296078Y0367404D01*
X0296307Y0367594D01*
X0296542Y0367778D01*
X0296781Y0367957D01*
X0297024Y0368130D01*
X0297271Y0368296D01*
X0297523Y0368457D01*
X0297778Y0368611D01*
X0298037Y0368759D01*
X0298299Y0368901D01*
X0298565Y0369036D01*
X0298834Y0369165D01*
X0299106Y0369287D01*
X0299381Y0369403D01*
X0299659Y0369512D01*
X0299939Y0369613D01*
X0300222Y0369708D01*
X0300507Y0369796D01*
X0300794Y0369877D01*
X0301082Y0369952D01*
X0301373Y0370018D01*
X0301665Y0370078D01*
X0301959Y0370131D01*
X0302254Y0370176D01*
X0302549Y0370215D01*
X0302846Y0370246D01*
X0303143Y0370269D01*
X0303441Y0370286D01*
X0303739Y0370295D01*
X0304037Y0370297D01*
X0304336Y0370291D01*
X0304634Y0370279D01*
X0304931Y0370259D01*
X0305228Y0370231D01*
X0305524Y0370197D01*
X0305820Y0370155D01*
X0306114Y0370106D01*
X0306407Y0370050D01*
X0306698Y0369987D01*
X0306988Y0369916D01*
X0307276Y0369839D01*
X0307562Y0369755D01*
X0307846Y0369663D01*
X0308128Y0369565D01*
X0308407Y0369460D01*
X0308683Y0369348D01*
X0308957Y0369229D01*
X0309227Y0369104D01*
X0309495Y0368972D01*
X0309759Y0368833D01*
X0310020Y0368688D01*
X0310277Y0368537D01*
X0310530Y0368380D01*
X0310779Y0368216D01*
X0311025Y0368046D01*
X0311266Y0367871D01*
X0311503Y0367689D01*
X0311735Y0367502D01*
X0311962Y0367310D01*
X0312185Y0367111D01*
X0312403Y0366908D01*
X0312616Y0366699D01*
X0312824Y0366485D01*
X0313026Y0366265D01*
X0313223Y0366042D01*
X0313414Y0365813D01*
X0313600Y0365579D01*
X0313780Y0365342D01*
X0313954Y0365100D01*
X0314122Y0364853D01*
X0314284Y0364603D01*
X0314440Y0364349D01*
X0314590Y0364091D01*
X0314733Y0363829D01*
X0314870Y0363564D01*
X0315001Y0363296D01*
X0315124Y0363025D01*
X0315241Y0362750D01*
X0315352Y0362473D01*
X0315455Y0362193D01*
X0315552Y0361911D01*
X0315642Y0361627D01*
X0315724Y0361340D01*
X0315800Y0361052D01*
X0315869Y0360762D01*
X0315930Y0360470D01*
X0315985Y0360177D01*
X0316032Y0359882D01*
X0316072Y0359587D01*
X0316105Y0359290D01*
X0316130Y0358993D01*
X0316148Y0358695D01*
X0316159Y0358397D01*
X0316163Y0358099D01*
X0316159Y0357801D01*
X0316148Y0357503D01*
X0316130Y0357205D01*
X0316105Y0356908D01*
X0316072Y0356611D01*
X0316032Y0356316D01*
X0315985Y0356021D01*
X0315930Y0355728D01*
X0315869Y0355436D01*
X0315800Y0355146D01*
X0315724Y0354858D01*
X0315642Y0354571D01*
X0315552Y0354287D01*
X0315455Y0354005D01*
X0315352Y0353725D01*
X0315241Y0353448D01*
X0315124Y0353173D01*
X0315001Y0352902D01*
X0314870Y0352634D01*
X0314733Y0352369D01*
X0314590Y0352107D01*
X0314440Y0351849D01*
X0314284Y0351595D01*
X0314122Y0351345D01*
X0313954Y0351098D01*
X0313780Y0350856D01*
X0313600Y0350619D01*
X0313414Y0350385D01*
X0313223Y0350156D01*
X0313026Y0349933D01*
X0312824Y0349713D01*
X0312616Y0349499D01*
X0312403Y0349290D01*
X0312185Y0349087D01*
X0311962Y0348888D01*
X0311735Y0348696D01*
X0311503Y0348509D01*
X0311266Y0348327D01*
X0311025Y0348152D01*
X0310779Y0347982D01*
X0310530Y0347818D01*
X0310277Y0347661D01*
X0310020Y0347510D01*
X0309759Y0347365D01*
X0309495Y0347226D01*
X0309227Y0347094D01*
X0308957Y0346969D01*
X0308683Y0346850D01*
X0308407Y0346738D01*
X0308128Y0346633D01*
X0307846Y0346535D01*
X0307562Y0346443D01*
X0307276Y0346359D01*
X0306988Y0346282D01*
X0306698Y0346211D01*
X0306407Y0346148D01*
X0306114Y0346092D01*
X0305820Y0346043D01*
X0305524Y0346001D01*
X0305228Y0345967D01*
X0304931Y0345939D01*
X0304634Y0345919D01*
X0304336Y0345907D01*
X0304037Y0345901D01*
X0303739Y0345903D01*
X0303441Y0345912D01*
X0303143Y0345929D01*
X0302846Y0345952D01*
X0302549Y0345983D01*
X0302254Y0346022D01*
X0301959Y0346067D01*
X0301665Y0346120D01*
X0301373Y0346180D01*
X0301082Y0346246D01*
X0300794Y0346321D01*
X0300507Y0346402D01*
X0300222Y0346490D01*
X0299939Y0346585D01*
X0299659Y0346686D01*
X0299381Y0346795D01*
X0299106Y0346911D01*
X0298834Y0347033D01*
X0298565Y0347162D01*
X0298299Y0347297D01*
X0298037Y0347439D01*
X0297778Y0347587D01*
X0297523Y0347741D01*
X0297271Y0347902D01*
X0297024Y0348068D01*
X0296781Y0348241D01*
X0296542Y0348420D01*
X0296307Y0348604D01*
X0296078Y0348794D01*
X0295852Y0348990D01*
X0295632Y0349191D01*
X0295417Y0349397D01*
X0295207Y0349609D01*
X0295002Y0349825D01*
X0294802Y0350047D01*
X0294608Y0350274D01*
X0294419Y0350505D01*
X0294237Y0350740D01*
X0294312Y0350797D01*
X0294493Y0350563D01*
X0294680Y0350334D01*
X0294873Y0350109D01*
X0295071Y0349889D01*
X0295274Y0349674D01*
X0295483Y0349464D01*
X0295697Y0349259D01*
X0295915Y0349060D01*
X0296139Y0348866D01*
X0296367Y0348677D01*
X0296599Y0348494D01*
X0296836Y0348317D01*
X0297078Y0348146D01*
X0297323Y0347980D01*
X0297572Y0347821D01*
X0297826Y0347668D01*
X0298082Y0347521D01*
X0298343Y0347380D01*
X0298607Y0347246D01*
X0298874Y0347118D01*
X0299144Y0346997D01*
X0299416Y0346882D01*
X0299692Y0346774D01*
X0299970Y0346673D01*
X0300251Y0346579D01*
X0300533Y0346492D01*
X0300818Y0346411D01*
X0301105Y0346338D01*
X0301393Y0346271D01*
X0301683Y0346212D01*
X0301975Y0346160D01*
X0302267Y0346115D01*
X0302561Y0346077D01*
X0302855Y0346046D01*
X0303150Y0346022D01*
X0303445Y0346006D01*
X0303741Y0345997D01*
X0304037Y0345995D01*
X0304333Y0346001D01*
X0304629Y0346013D01*
X0304924Y0346033D01*
X0305219Y0346060D01*
X0305513Y0346094D01*
X0305806Y0346136D01*
X0306098Y0346184D01*
X0306388Y0346240D01*
X0306677Y0346303D01*
X0306965Y0346373D01*
X0307251Y0346450D01*
X0307535Y0346533D01*
X0307816Y0346624D01*
X0308096Y0346722D01*
X0308373Y0346826D01*
X0308647Y0346937D01*
X0308918Y0347055D01*
X0309187Y0347179D01*
X0309452Y0347310D01*
X0309714Y0347448D01*
X0309973Y0347591D01*
X0310228Y0347741D01*
X0310480Y0347898D01*
X0310727Y0348060D01*
X0310970Y0348228D01*
X0311210Y0348403D01*
X0311445Y0348583D01*
X0311675Y0348768D01*
X0311901Y0348960D01*
X0312122Y0349156D01*
X0312338Y0349358D01*
X0312549Y0349566D01*
X0312755Y0349778D01*
X0312956Y0349996D01*
X0313152Y0350218D01*
X0313342Y0350445D01*
X0313526Y0350676D01*
X0313704Y0350912D01*
X0313877Y0351152D01*
X0314044Y0351397D01*
X0314205Y0351645D01*
X0314360Y0351898D01*
X0314508Y0352154D01*
X0314650Y0352413D01*
X0314786Y0352676D01*
X0314916Y0352942D01*
X0315038Y0353211D01*
X0315155Y0353484D01*
X0315264Y0353759D01*
X0315367Y0354036D01*
X0315463Y0354316D01*
X0315552Y0354598D01*
X0315634Y0354883D01*
X0315709Y0355169D01*
X0315777Y0355457D01*
X0315838Y0355746D01*
X0315892Y0356037D01*
X0315939Y0356330D01*
X0315979Y0356623D01*
X0316011Y0356917D01*
X0316036Y0357212D01*
X0316055Y0357507D01*
X0316065Y0357803D01*
X0316069Y0358099D01*
X0316065Y0358395D01*
X0316055Y0358691D01*
X0316036Y0358986D01*
X0316011Y0359281D01*
X0315979Y0359575D01*
X0315939Y0359868D01*
X0315892Y0360161D01*
X0315838Y0360452D01*
X0315777Y0360741D01*
X0315709Y0361029D01*
X0315634Y0361315D01*
X0315552Y0361600D01*
X0315463Y0361882D01*
X0315367Y0362162D01*
X0315264Y0362439D01*
X0315155Y0362714D01*
X0315038Y0362987D01*
X0314916Y0363256D01*
X0314786Y0363522D01*
X0314650Y0363785D01*
X0314508Y0364044D01*
X0314360Y0364300D01*
X0314205Y0364553D01*
X0314044Y0364801D01*
X0313877Y0365046D01*
X0313704Y0365286D01*
X0313526Y0365522D01*
X0313342Y0365753D01*
X0313152Y0365980D01*
X0312956Y0366202D01*
X0312755Y0366420D01*
X0312549Y0366632D01*
X0312338Y0366840D01*
X0312122Y0367042D01*
X0311901Y0367238D01*
X0311675Y0367430D01*
X0311445Y0367615D01*
X0311210Y0367795D01*
X0310970Y0367970D01*
X0310727Y0368138D01*
X0310480Y0368300D01*
X0310228Y0368457D01*
X0309973Y0368607D01*
X0309714Y0368750D01*
X0309452Y0368888D01*
X0309187Y0369019D01*
X0308918Y0369143D01*
X0308647Y0369261D01*
X0308373Y0369372D01*
X0308096Y0369476D01*
X0307816Y0369574D01*
X0307535Y0369665D01*
X0307251Y0369748D01*
X0306965Y0369825D01*
X0306677Y0369895D01*
X0306388Y0369958D01*
X0306098Y0370014D01*
X0305806Y0370062D01*
X0305513Y0370104D01*
X0305219Y0370138D01*
X0304924Y0370165D01*
X0304629Y0370185D01*
X0304333Y0370197D01*
X0304037Y0370203D01*
X0303741Y0370201D01*
X0303445Y0370192D01*
X0303150Y0370176D01*
X0302855Y0370152D01*
X0302561Y0370121D01*
X0302267Y0370083D01*
X0301975Y0370038D01*
X0301683Y0369986D01*
X0301393Y0369927D01*
X0301105Y0369860D01*
X0300818Y0369787D01*
X0300533Y0369706D01*
X0300251Y0369619D01*
X0299970Y0369525D01*
X0299692Y0369424D01*
X0299416Y0369316D01*
X0299144Y0369201D01*
X0298874Y0369080D01*
X0298607Y0368952D01*
X0298343Y0368818D01*
X0298082Y0368677D01*
X0297826Y0368530D01*
X0297572Y0368377D01*
X0297323Y0368218D01*
X0297078Y0368052D01*
X0296836Y0367881D01*
X0296599Y0367704D01*
X0296367Y0367521D01*
X0296139Y0367332D01*
X0295915Y0367138D01*
X0295697Y0366939D01*
X0295483Y0366734D01*
X0295274Y0366524D01*
X0295071Y0366309D01*
X0294873Y0366089D01*
X0294680Y0365864D01*
X0294493Y0365635D01*
X0294312Y0365401D01*
D13*
X0293965Y0358099D02*
X0293968Y0358344D01*
X0293977Y0358590D01*
X0293992Y0358835D01*
X0294013Y0359079D01*
X0294040Y0359323D01*
X0294073Y0359566D01*
X0294112Y0359809D01*
X0294157Y0360050D01*
X0294208Y0360290D01*
X0294265Y0360529D01*
X0294327Y0360766D01*
X0294396Y0361002D01*
X0294470Y0361236D01*
X0294550Y0361468D01*
X0294635Y0361698D01*
X0294726Y0361926D01*
X0294823Y0362151D01*
X0294925Y0362375D01*
X0295033Y0362595D01*
X0295146Y0362813D01*
X0295264Y0363028D01*
X0295388Y0363240D01*
X0295516Y0363449D01*
X0295650Y0363655D01*
X0295789Y0363857D01*
X0295933Y0364056D01*
X0296082Y0364251D01*
X0296235Y0364443D01*
X0296393Y0364631D01*
X0296555Y0364815D01*
X0296723Y0364994D01*
X0296894Y0365170D01*
X0297070Y0365341D01*
X0297249Y0365509D01*
X0297433Y0365671D01*
X0297621Y0365829D01*
X0297813Y0365982D01*
X0298008Y0366131D01*
X0298207Y0366275D01*
X0298409Y0366414D01*
X0298615Y0366548D01*
X0298824Y0366676D01*
X0299036Y0366800D01*
X0299251Y0366918D01*
X0299469Y0367031D01*
X0299689Y0367139D01*
X0299913Y0367241D01*
X0300138Y0367338D01*
X0300366Y0367429D01*
X0300596Y0367514D01*
X0300828Y0367594D01*
X0301062Y0367668D01*
X0301298Y0367737D01*
X0301535Y0367799D01*
X0301774Y0367856D01*
X0302014Y0367907D01*
X0302255Y0367952D01*
X0302498Y0367991D01*
X0302741Y0368024D01*
X0302985Y0368051D01*
X0303229Y0368072D01*
X0303474Y0368087D01*
X0303720Y0368096D01*
X0303965Y0368099D01*
X0304210Y0368096D01*
X0304456Y0368087D01*
X0304701Y0368072D01*
X0304945Y0368051D01*
X0305189Y0368024D01*
X0305432Y0367991D01*
X0305675Y0367952D01*
X0305916Y0367907D01*
X0306156Y0367856D01*
X0306395Y0367799D01*
X0306632Y0367737D01*
X0306868Y0367668D01*
X0307102Y0367594D01*
X0307334Y0367514D01*
X0307564Y0367429D01*
X0307792Y0367338D01*
X0308017Y0367241D01*
X0308241Y0367139D01*
X0308461Y0367031D01*
X0308679Y0366918D01*
X0308894Y0366800D01*
X0309106Y0366676D01*
X0309315Y0366548D01*
X0309521Y0366414D01*
X0309723Y0366275D01*
X0309922Y0366131D01*
X0310117Y0365982D01*
X0310309Y0365829D01*
X0310497Y0365671D01*
X0310681Y0365509D01*
X0310860Y0365341D01*
X0311036Y0365170D01*
X0311207Y0364994D01*
X0311375Y0364815D01*
X0311537Y0364631D01*
X0311695Y0364443D01*
X0311848Y0364251D01*
X0311997Y0364056D01*
X0312141Y0363857D01*
X0312280Y0363655D01*
X0312414Y0363449D01*
X0312542Y0363240D01*
X0312666Y0363028D01*
X0312784Y0362813D01*
X0312897Y0362595D01*
X0313005Y0362375D01*
X0313107Y0362151D01*
X0313204Y0361926D01*
X0313295Y0361698D01*
X0313380Y0361468D01*
X0313460Y0361236D01*
X0313534Y0361002D01*
X0313603Y0360766D01*
X0313665Y0360529D01*
X0313722Y0360290D01*
X0313773Y0360050D01*
X0313818Y0359809D01*
X0313857Y0359566D01*
X0313890Y0359323D01*
X0313917Y0359079D01*
X0313938Y0358835D01*
X0313953Y0358590D01*
X0313962Y0358344D01*
X0313965Y0358099D01*
X0313962Y0357854D01*
X0313953Y0357608D01*
X0313938Y0357363D01*
X0313917Y0357119D01*
X0313890Y0356875D01*
X0313857Y0356632D01*
X0313818Y0356389D01*
X0313773Y0356148D01*
X0313722Y0355908D01*
X0313665Y0355669D01*
X0313603Y0355432D01*
X0313534Y0355196D01*
X0313460Y0354962D01*
X0313380Y0354730D01*
X0313295Y0354500D01*
X0313204Y0354272D01*
X0313107Y0354047D01*
X0313005Y0353823D01*
X0312897Y0353603D01*
X0312784Y0353385D01*
X0312666Y0353170D01*
X0312542Y0352958D01*
X0312414Y0352749D01*
X0312280Y0352543D01*
X0312141Y0352341D01*
X0311997Y0352142D01*
X0311848Y0351947D01*
X0311695Y0351755D01*
X0311537Y0351567D01*
X0311375Y0351383D01*
X0311207Y0351204D01*
X0311036Y0351028D01*
X0310860Y0350857D01*
X0310681Y0350689D01*
X0310497Y0350527D01*
X0310309Y0350369D01*
X0310117Y0350216D01*
X0309922Y0350067D01*
X0309723Y0349923D01*
X0309521Y0349784D01*
X0309315Y0349650D01*
X0309106Y0349522D01*
X0308894Y0349398D01*
X0308679Y0349280D01*
X0308461Y0349167D01*
X0308241Y0349059D01*
X0308017Y0348957D01*
X0307792Y0348860D01*
X0307564Y0348769D01*
X0307334Y0348684D01*
X0307102Y0348604D01*
X0306868Y0348530D01*
X0306632Y0348461D01*
X0306395Y0348399D01*
X0306156Y0348342D01*
X0305916Y0348291D01*
X0305675Y0348246D01*
X0305432Y0348207D01*
X0305189Y0348174D01*
X0304945Y0348147D01*
X0304701Y0348126D01*
X0304456Y0348111D01*
X0304210Y0348102D01*
X0303965Y0348099D01*
X0303720Y0348102D01*
X0303474Y0348111D01*
X0303229Y0348126D01*
X0302985Y0348147D01*
X0302741Y0348174D01*
X0302498Y0348207D01*
X0302255Y0348246D01*
X0302014Y0348291D01*
X0301774Y0348342D01*
X0301535Y0348399D01*
X0301298Y0348461D01*
X0301062Y0348530D01*
X0300828Y0348604D01*
X0300596Y0348684D01*
X0300366Y0348769D01*
X0300138Y0348860D01*
X0299913Y0348957D01*
X0299689Y0349059D01*
X0299469Y0349167D01*
X0299251Y0349280D01*
X0299036Y0349398D01*
X0298824Y0349522D01*
X0298615Y0349650D01*
X0298409Y0349784D01*
X0298207Y0349923D01*
X0298008Y0350067D01*
X0297813Y0350216D01*
X0297621Y0350369D01*
X0297433Y0350527D01*
X0297249Y0350689D01*
X0297070Y0350857D01*
X0296894Y0351028D01*
X0296723Y0351204D01*
X0296555Y0351383D01*
X0296393Y0351567D01*
X0296235Y0351755D01*
X0296082Y0351947D01*
X0295933Y0352142D01*
X0295789Y0352341D01*
X0295650Y0352543D01*
X0295516Y0352749D01*
X0295388Y0352958D01*
X0295264Y0353170D01*
X0295146Y0353385D01*
X0295033Y0353603D01*
X0294925Y0353823D01*
X0294823Y0354047D01*
X0294726Y0354272D01*
X0294635Y0354500D01*
X0294550Y0354730D01*
X0294470Y0354962D01*
X0294396Y0355196D01*
X0294327Y0355432D01*
X0294265Y0355669D01*
X0294208Y0355908D01*
X0294157Y0356148D01*
X0294112Y0356389D01*
X0294073Y0356632D01*
X0294040Y0356875D01*
X0294013Y0357119D01*
X0293992Y0357363D01*
X0293977Y0357608D01*
X0293968Y0357854D01*
X0293965Y0358099D01*
D14*
X0040186Y0047568D02*
X0014595Y0047568D01*
X0014595Y0198158D01*
X0040186Y0198158D01*
X0040186Y0047568D01*
X0068729Y0031328D02*
X0074635Y0025422D01*
X0114005Y0025422D01*
X0119910Y0031328D01*
X0119910Y0070698D01*
X0114005Y0076603D01*
X0074635Y0076603D01*
X0068729Y0070698D01*
X0068729Y0031328D01*
X0139595Y0031328D02*
X0145501Y0025422D01*
X0184871Y0025422D01*
X0190776Y0031328D01*
X0190776Y0070698D01*
X0184871Y0076603D01*
X0145501Y0076603D01*
X0139595Y0070698D01*
X0139595Y0031328D01*
X0212430Y0031328D02*
X0218335Y0025422D01*
X0257706Y0025422D01*
X0263611Y0031328D01*
X0263611Y0070698D01*
X0257706Y0076603D01*
X0218335Y0076603D01*
X0212430Y0070698D01*
X0212430Y0031328D01*
X0285265Y0031328D02*
X0291170Y0025422D01*
X0330540Y0025422D01*
X0336446Y0031328D01*
X0336446Y0070698D01*
X0330540Y0076603D01*
X0291170Y0076603D01*
X0285265Y0070698D01*
X0285265Y0031328D01*
X0350225Y0019517D02*
X0350225Y0082509D01*
X0393532Y0082509D01*
X0393532Y0019517D01*
X0350225Y0019517D01*
X0409280Y0031328D02*
X0415186Y0025422D01*
X0454556Y0025422D01*
X0460461Y0031328D01*
X0460461Y0070698D01*
X0454556Y0076603D01*
X0415186Y0076603D01*
X0409280Y0070698D01*
X0409280Y0031328D01*
X0489005Y0045107D02*
X0514595Y0045107D01*
X0514595Y0165186D01*
X0489005Y0165186D01*
X0489005Y0045107D01*
X0489005Y0251800D02*
X0489005Y0434871D01*
X0514595Y0434871D01*
X0514595Y0251800D01*
X0489005Y0251800D01*
X0489005Y0520501D02*
X0514595Y0520501D01*
X0514595Y0627784D01*
X0514595Y0735068D01*
X0489005Y0735068D01*
X0489005Y0627784D01*
X0489005Y0520501D01*
X0113021Y0539202D02*
X0113026Y0539588D01*
X0113040Y0539975D01*
X0113064Y0540360D01*
X0113097Y0540746D01*
X0113139Y0541130D01*
X0113191Y0541513D01*
X0113253Y0541894D01*
X0113324Y0542274D01*
X0113404Y0542652D01*
X0113493Y0543028D01*
X0113591Y0543402D01*
X0113699Y0543773D01*
X0113816Y0544142D01*
X0113942Y0544507D01*
X0114076Y0544870D01*
X0114220Y0545228D01*
X0114372Y0545584D01*
X0114533Y0545935D01*
X0114703Y0546282D01*
X0114881Y0546626D01*
X0115067Y0546964D01*
X0115261Y0547298D01*
X0115464Y0547627D01*
X0115675Y0547951D01*
X0115894Y0548270D01*
X0116120Y0548583D01*
X0116354Y0548891D01*
X0116596Y0549192D01*
X0116844Y0549488D01*
X0117101Y0549778D01*
X0117364Y0550061D01*
X0117633Y0550338D01*
X0117910Y0550607D01*
X0118193Y0550870D01*
X0118483Y0551127D01*
X0118779Y0551375D01*
X0119080Y0551617D01*
X0119388Y0551851D01*
X0119701Y0552077D01*
X0120020Y0552296D01*
X0120344Y0552507D01*
X0120673Y0552710D01*
X0121007Y0552904D01*
X0121345Y0553090D01*
X0121689Y0553268D01*
X0122036Y0553438D01*
X0122387Y0553599D01*
X0122743Y0553751D01*
X0123101Y0553895D01*
X0123464Y0554029D01*
X0123829Y0554155D01*
X0124198Y0554272D01*
X0124569Y0554380D01*
X0124943Y0554478D01*
X0125319Y0554567D01*
X0125697Y0554647D01*
X0126077Y0554718D01*
X0126458Y0554780D01*
X0126841Y0554832D01*
X0127225Y0554874D01*
X0127611Y0554907D01*
X0127996Y0554931D01*
X0128383Y0554945D01*
X0128769Y0554950D01*
X0129155Y0554945D01*
X0129542Y0554931D01*
X0129927Y0554907D01*
X0130313Y0554874D01*
X0130697Y0554832D01*
X0131080Y0554780D01*
X0131461Y0554718D01*
X0131841Y0554647D01*
X0132219Y0554567D01*
X0132595Y0554478D01*
X0132969Y0554380D01*
X0133340Y0554272D01*
X0133709Y0554155D01*
X0134074Y0554029D01*
X0134437Y0553895D01*
X0134795Y0553751D01*
X0135151Y0553599D01*
X0135502Y0553438D01*
X0135849Y0553268D01*
X0136193Y0553090D01*
X0136531Y0552904D01*
X0136865Y0552710D01*
X0137194Y0552507D01*
X0137518Y0552296D01*
X0137837Y0552077D01*
X0138150Y0551851D01*
X0138458Y0551617D01*
X0138759Y0551375D01*
X0139055Y0551127D01*
X0139345Y0550870D01*
X0139628Y0550607D01*
X0139905Y0550338D01*
X0140174Y0550061D01*
X0140437Y0549778D01*
X0140694Y0549488D01*
X0140942Y0549192D01*
X0141184Y0548891D01*
X0141418Y0548583D01*
X0141644Y0548270D01*
X0141863Y0547951D01*
X0142074Y0547627D01*
X0142277Y0547298D01*
X0142471Y0546964D01*
X0142657Y0546626D01*
X0142835Y0546282D01*
X0143005Y0545935D01*
X0143166Y0545584D01*
X0143318Y0545228D01*
X0143462Y0544870D01*
X0143596Y0544507D01*
X0143722Y0544142D01*
X0143839Y0543773D01*
X0143947Y0543402D01*
X0144045Y0543028D01*
X0144134Y0542652D01*
X0144214Y0542274D01*
X0144285Y0541894D01*
X0144347Y0541513D01*
X0144399Y0541130D01*
X0144441Y0540746D01*
X0144474Y0540360D01*
X0144498Y0539975D01*
X0144512Y0539588D01*
X0144517Y0539202D01*
X0144512Y0538816D01*
X0144498Y0538429D01*
X0144474Y0538044D01*
X0144441Y0537658D01*
X0144399Y0537274D01*
X0144347Y0536891D01*
X0144285Y0536510D01*
X0144214Y0536130D01*
X0144134Y0535752D01*
X0144045Y0535376D01*
X0143947Y0535002D01*
X0143839Y0534631D01*
X0143722Y0534262D01*
X0143596Y0533897D01*
X0143462Y0533534D01*
X0143318Y0533176D01*
X0143166Y0532820D01*
X0143005Y0532469D01*
X0142835Y0532122D01*
X0142657Y0531778D01*
X0142471Y0531440D01*
X0142277Y0531106D01*
X0142074Y0530777D01*
X0141863Y0530453D01*
X0141644Y0530134D01*
X0141418Y0529821D01*
X0141184Y0529513D01*
X0140942Y0529212D01*
X0140694Y0528916D01*
X0140437Y0528626D01*
X0140174Y0528343D01*
X0139905Y0528066D01*
X0139628Y0527797D01*
X0139345Y0527534D01*
X0139055Y0527277D01*
X0138759Y0527029D01*
X0138458Y0526787D01*
X0138150Y0526553D01*
X0137837Y0526327D01*
X0137518Y0526108D01*
X0137194Y0525897D01*
X0136865Y0525694D01*
X0136531Y0525500D01*
X0136193Y0525314D01*
X0135849Y0525136D01*
X0135502Y0524966D01*
X0135151Y0524805D01*
X0134795Y0524653D01*
X0134437Y0524509D01*
X0134074Y0524375D01*
X0133709Y0524249D01*
X0133340Y0524132D01*
X0132969Y0524024D01*
X0132595Y0523926D01*
X0132219Y0523837D01*
X0131841Y0523757D01*
X0131461Y0523686D01*
X0131080Y0523624D01*
X0130697Y0523572D01*
X0130313Y0523530D01*
X0129927Y0523497D01*
X0129542Y0523473D01*
X0129155Y0523459D01*
X0128769Y0523454D01*
X0128383Y0523459D01*
X0127996Y0523473D01*
X0127611Y0523497D01*
X0127225Y0523530D01*
X0126841Y0523572D01*
X0126458Y0523624D01*
X0126077Y0523686D01*
X0125697Y0523757D01*
X0125319Y0523837D01*
X0124943Y0523926D01*
X0124569Y0524024D01*
X0124198Y0524132D01*
X0123829Y0524249D01*
X0123464Y0524375D01*
X0123101Y0524509D01*
X0122743Y0524653D01*
X0122387Y0524805D01*
X0122036Y0524966D01*
X0121689Y0525136D01*
X0121345Y0525314D01*
X0121007Y0525500D01*
X0120673Y0525694D01*
X0120344Y0525897D01*
X0120020Y0526108D01*
X0119701Y0526327D01*
X0119388Y0526553D01*
X0119080Y0526787D01*
X0118779Y0527029D01*
X0118483Y0527277D01*
X0118193Y0527534D01*
X0117910Y0527797D01*
X0117633Y0528066D01*
X0117364Y0528343D01*
X0117101Y0528626D01*
X0116844Y0528916D01*
X0116596Y0529212D01*
X0116354Y0529513D01*
X0116120Y0529821D01*
X0115894Y0530134D01*
X0115675Y0530453D01*
X0115464Y0530777D01*
X0115261Y0531106D01*
X0115067Y0531440D01*
X0114881Y0531778D01*
X0114703Y0532122D01*
X0114533Y0532469D01*
X0114372Y0532820D01*
X0114220Y0533176D01*
X0114076Y0533534D01*
X0113942Y0533897D01*
X0113816Y0534262D01*
X0113699Y0534631D01*
X0113591Y0535002D01*
X0113493Y0535376D01*
X0113404Y0535752D01*
X0113324Y0536130D01*
X0113253Y0536510D01*
X0113191Y0536891D01*
X0113139Y0537274D01*
X0113097Y0537658D01*
X0113064Y0538044D01*
X0113040Y0538429D01*
X0113026Y0538816D01*
X0113021Y0539202D01*
X0113021Y0491957D02*
X0113026Y0492343D01*
X0113040Y0492730D01*
X0113064Y0493115D01*
X0113097Y0493501D01*
X0113139Y0493885D01*
X0113191Y0494268D01*
X0113253Y0494649D01*
X0113324Y0495029D01*
X0113404Y0495407D01*
X0113493Y0495783D01*
X0113591Y0496157D01*
X0113699Y0496528D01*
X0113816Y0496897D01*
X0113942Y0497262D01*
X0114076Y0497625D01*
X0114220Y0497983D01*
X0114372Y0498339D01*
X0114533Y0498690D01*
X0114703Y0499037D01*
X0114881Y0499381D01*
X0115067Y0499719D01*
X0115261Y0500053D01*
X0115464Y0500382D01*
X0115675Y0500706D01*
X0115894Y0501025D01*
X0116120Y0501338D01*
X0116354Y0501646D01*
X0116596Y0501947D01*
X0116844Y0502243D01*
X0117101Y0502533D01*
X0117364Y0502816D01*
X0117633Y0503093D01*
X0117910Y0503362D01*
X0118193Y0503625D01*
X0118483Y0503882D01*
X0118779Y0504130D01*
X0119080Y0504372D01*
X0119388Y0504606D01*
X0119701Y0504832D01*
X0120020Y0505051D01*
X0120344Y0505262D01*
X0120673Y0505465D01*
X0121007Y0505659D01*
X0121345Y0505845D01*
X0121689Y0506023D01*
X0122036Y0506193D01*
X0122387Y0506354D01*
X0122743Y0506506D01*
X0123101Y0506650D01*
X0123464Y0506784D01*
X0123829Y0506910D01*
X0124198Y0507027D01*
X0124569Y0507135D01*
X0124943Y0507233D01*
X0125319Y0507322D01*
X0125697Y0507402D01*
X0126077Y0507473D01*
X0126458Y0507535D01*
X0126841Y0507587D01*
X0127225Y0507629D01*
X0127611Y0507662D01*
X0127996Y0507686D01*
X0128383Y0507700D01*
X0128769Y0507705D01*
X0129155Y0507700D01*
X0129542Y0507686D01*
X0129927Y0507662D01*
X0130313Y0507629D01*
X0130697Y0507587D01*
X0131080Y0507535D01*
X0131461Y0507473D01*
X0131841Y0507402D01*
X0132219Y0507322D01*
X0132595Y0507233D01*
X0132969Y0507135D01*
X0133340Y0507027D01*
X0133709Y0506910D01*
X0134074Y0506784D01*
X0134437Y0506650D01*
X0134795Y0506506D01*
X0135151Y0506354D01*
X0135502Y0506193D01*
X0135849Y0506023D01*
X0136193Y0505845D01*
X0136531Y0505659D01*
X0136865Y0505465D01*
X0137194Y0505262D01*
X0137518Y0505051D01*
X0137837Y0504832D01*
X0138150Y0504606D01*
X0138458Y0504372D01*
X0138759Y0504130D01*
X0139055Y0503882D01*
X0139345Y0503625D01*
X0139628Y0503362D01*
X0139905Y0503093D01*
X0140174Y0502816D01*
X0140437Y0502533D01*
X0140694Y0502243D01*
X0140942Y0501947D01*
X0141184Y0501646D01*
X0141418Y0501338D01*
X0141644Y0501025D01*
X0141863Y0500706D01*
X0142074Y0500382D01*
X0142277Y0500053D01*
X0142471Y0499719D01*
X0142657Y0499381D01*
X0142835Y0499037D01*
X0143005Y0498690D01*
X0143166Y0498339D01*
X0143318Y0497983D01*
X0143462Y0497625D01*
X0143596Y0497262D01*
X0143722Y0496897D01*
X0143839Y0496528D01*
X0143947Y0496157D01*
X0144045Y0495783D01*
X0144134Y0495407D01*
X0144214Y0495029D01*
X0144285Y0494649D01*
X0144347Y0494268D01*
X0144399Y0493885D01*
X0144441Y0493501D01*
X0144474Y0493115D01*
X0144498Y0492730D01*
X0144512Y0492343D01*
X0144517Y0491957D01*
X0144512Y0491571D01*
X0144498Y0491184D01*
X0144474Y0490799D01*
X0144441Y0490413D01*
X0144399Y0490029D01*
X0144347Y0489646D01*
X0144285Y0489265D01*
X0144214Y0488885D01*
X0144134Y0488507D01*
X0144045Y0488131D01*
X0143947Y0487757D01*
X0143839Y0487386D01*
X0143722Y0487017D01*
X0143596Y0486652D01*
X0143462Y0486289D01*
X0143318Y0485931D01*
X0143166Y0485575D01*
X0143005Y0485224D01*
X0142835Y0484877D01*
X0142657Y0484533D01*
X0142471Y0484195D01*
X0142277Y0483861D01*
X0142074Y0483532D01*
X0141863Y0483208D01*
X0141644Y0482889D01*
X0141418Y0482576D01*
X0141184Y0482268D01*
X0140942Y0481967D01*
X0140694Y0481671D01*
X0140437Y0481381D01*
X0140174Y0481098D01*
X0139905Y0480821D01*
X0139628Y0480552D01*
X0139345Y0480289D01*
X0139055Y0480032D01*
X0138759Y0479784D01*
X0138458Y0479542D01*
X0138150Y0479308D01*
X0137837Y0479082D01*
X0137518Y0478863D01*
X0137194Y0478652D01*
X0136865Y0478449D01*
X0136531Y0478255D01*
X0136193Y0478069D01*
X0135849Y0477891D01*
X0135502Y0477721D01*
X0135151Y0477560D01*
X0134795Y0477408D01*
X0134437Y0477264D01*
X0134074Y0477130D01*
X0133709Y0477004D01*
X0133340Y0476887D01*
X0132969Y0476779D01*
X0132595Y0476681D01*
X0132219Y0476592D01*
X0131841Y0476512D01*
X0131461Y0476441D01*
X0131080Y0476379D01*
X0130697Y0476327D01*
X0130313Y0476285D01*
X0129927Y0476252D01*
X0129542Y0476228D01*
X0129155Y0476214D01*
X0128769Y0476209D01*
X0128383Y0476214D01*
X0127996Y0476228D01*
X0127611Y0476252D01*
X0127225Y0476285D01*
X0126841Y0476327D01*
X0126458Y0476379D01*
X0126077Y0476441D01*
X0125697Y0476512D01*
X0125319Y0476592D01*
X0124943Y0476681D01*
X0124569Y0476779D01*
X0124198Y0476887D01*
X0123829Y0477004D01*
X0123464Y0477130D01*
X0123101Y0477264D01*
X0122743Y0477408D01*
X0122387Y0477560D01*
X0122036Y0477721D01*
X0121689Y0477891D01*
X0121345Y0478069D01*
X0121007Y0478255D01*
X0120673Y0478449D01*
X0120344Y0478652D01*
X0120020Y0478863D01*
X0119701Y0479082D01*
X0119388Y0479308D01*
X0119080Y0479542D01*
X0118779Y0479784D01*
X0118483Y0480032D01*
X0118193Y0480289D01*
X0117910Y0480552D01*
X0117633Y0480821D01*
X0117364Y0481098D01*
X0117101Y0481381D01*
X0116844Y0481671D01*
X0116596Y0481967D01*
X0116354Y0482268D01*
X0116120Y0482576D01*
X0115894Y0482889D01*
X0115675Y0483208D01*
X0115464Y0483532D01*
X0115261Y0483861D01*
X0115067Y0484195D01*
X0114881Y0484533D01*
X0114703Y0484877D01*
X0114533Y0485224D01*
X0114372Y0485575D01*
X0114220Y0485931D01*
X0114076Y0486289D01*
X0113942Y0486652D01*
X0113816Y0487017D01*
X0113699Y0487386D01*
X0113591Y0487757D01*
X0113493Y0488131D01*
X0113404Y0488507D01*
X0113324Y0488885D01*
X0113253Y0489265D01*
X0113191Y0489646D01*
X0113139Y0490029D01*
X0113097Y0490413D01*
X0113064Y0490799D01*
X0113040Y0491184D01*
X0113026Y0491571D01*
X0113021Y0491957D01*
X0113021Y0444713D02*
X0113026Y0445099D01*
X0113040Y0445486D01*
X0113064Y0445871D01*
X0113097Y0446257D01*
X0113139Y0446641D01*
X0113191Y0447024D01*
X0113253Y0447405D01*
X0113324Y0447785D01*
X0113404Y0448163D01*
X0113493Y0448539D01*
X0113591Y0448913D01*
X0113699Y0449284D01*
X0113816Y0449653D01*
X0113942Y0450018D01*
X0114076Y0450381D01*
X0114220Y0450739D01*
X0114372Y0451095D01*
X0114533Y0451446D01*
X0114703Y0451793D01*
X0114881Y0452137D01*
X0115067Y0452475D01*
X0115261Y0452809D01*
X0115464Y0453138D01*
X0115675Y0453462D01*
X0115894Y0453781D01*
X0116120Y0454094D01*
X0116354Y0454402D01*
X0116596Y0454703D01*
X0116844Y0454999D01*
X0117101Y0455289D01*
X0117364Y0455572D01*
X0117633Y0455849D01*
X0117910Y0456118D01*
X0118193Y0456381D01*
X0118483Y0456638D01*
X0118779Y0456886D01*
X0119080Y0457128D01*
X0119388Y0457362D01*
X0119701Y0457588D01*
X0120020Y0457807D01*
X0120344Y0458018D01*
X0120673Y0458221D01*
X0121007Y0458415D01*
X0121345Y0458601D01*
X0121689Y0458779D01*
X0122036Y0458949D01*
X0122387Y0459110D01*
X0122743Y0459262D01*
X0123101Y0459406D01*
X0123464Y0459540D01*
X0123829Y0459666D01*
X0124198Y0459783D01*
X0124569Y0459891D01*
X0124943Y0459989D01*
X0125319Y0460078D01*
X0125697Y0460158D01*
X0126077Y0460229D01*
X0126458Y0460291D01*
X0126841Y0460343D01*
X0127225Y0460385D01*
X0127611Y0460418D01*
X0127996Y0460442D01*
X0128383Y0460456D01*
X0128769Y0460461D01*
X0129155Y0460456D01*
X0129542Y0460442D01*
X0129927Y0460418D01*
X0130313Y0460385D01*
X0130697Y0460343D01*
X0131080Y0460291D01*
X0131461Y0460229D01*
X0131841Y0460158D01*
X0132219Y0460078D01*
X0132595Y0459989D01*
X0132969Y0459891D01*
X0133340Y0459783D01*
X0133709Y0459666D01*
X0134074Y0459540D01*
X0134437Y0459406D01*
X0134795Y0459262D01*
X0135151Y0459110D01*
X0135502Y0458949D01*
X0135849Y0458779D01*
X0136193Y0458601D01*
X0136531Y0458415D01*
X0136865Y0458221D01*
X0137194Y0458018D01*
X0137518Y0457807D01*
X0137837Y0457588D01*
X0138150Y0457362D01*
X0138458Y0457128D01*
X0138759Y0456886D01*
X0139055Y0456638D01*
X0139345Y0456381D01*
X0139628Y0456118D01*
X0139905Y0455849D01*
X0140174Y0455572D01*
X0140437Y0455289D01*
X0140694Y0454999D01*
X0140942Y0454703D01*
X0141184Y0454402D01*
X0141418Y0454094D01*
X0141644Y0453781D01*
X0141863Y0453462D01*
X0142074Y0453138D01*
X0142277Y0452809D01*
X0142471Y0452475D01*
X0142657Y0452137D01*
X0142835Y0451793D01*
X0143005Y0451446D01*
X0143166Y0451095D01*
X0143318Y0450739D01*
X0143462Y0450381D01*
X0143596Y0450018D01*
X0143722Y0449653D01*
X0143839Y0449284D01*
X0143947Y0448913D01*
X0144045Y0448539D01*
X0144134Y0448163D01*
X0144214Y0447785D01*
X0144285Y0447405D01*
X0144347Y0447024D01*
X0144399Y0446641D01*
X0144441Y0446257D01*
X0144474Y0445871D01*
X0144498Y0445486D01*
X0144512Y0445099D01*
X0144517Y0444713D01*
X0144512Y0444327D01*
X0144498Y0443940D01*
X0144474Y0443555D01*
X0144441Y0443169D01*
X0144399Y0442785D01*
X0144347Y0442402D01*
X0144285Y0442021D01*
X0144214Y0441641D01*
X0144134Y0441263D01*
X0144045Y0440887D01*
X0143947Y0440513D01*
X0143839Y0440142D01*
X0143722Y0439773D01*
X0143596Y0439408D01*
X0143462Y0439045D01*
X0143318Y0438687D01*
X0143166Y0438331D01*
X0143005Y0437980D01*
X0142835Y0437633D01*
X0142657Y0437289D01*
X0142471Y0436951D01*
X0142277Y0436617D01*
X0142074Y0436288D01*
X0141863Y0435964D01*
X0141644Y0435645D01*
X0141418Y0435332D01*
X0141184Y0435024D01*
X0140942Y0434723D01*
X0140694Y0434427D01*
X0140437Y0434137D01*
X0140174Y0433854D01*
X0139905Y0433577D01*
X0139628Y0433308D01*
X0139345Y0433045D01*
X0139055Y0432788D01*
X0138759Y0432540D01*
X0138458Y0432298D01*
X0138150Y0432064D01*
X0137837Y0431838D01*
X0137518Y0431619D01*
X0137194Y0431408D01*
X0136865Y0431205D01*
X0136531Y0431011D01*
X0136193Y0430825D01*
X0135849Y0430647D01*
X0135502Y0430477D01*
X0135151Y0430316D01*
X0134795Y0430164D01*
X0134437Y0430020D01*
X0134074Y0429886D01*
X0133709Y0429760D01*
X0133340Y0429643D01*
X0132969Y0429535D01*
X0132595Y0429437D01*
X0132219Y0429348D01*
X0131841Y0429268D01*
X0131461Y0429197D01*
X0131080Y0429135D01*
X0130697Y0429083D01*
X0130313Y0429041D01*
X0129927Y0429008D01*
X0129542Y0428984D01*
X0129155Y0428970D01*
X0128769Y0428965D01*
X0128383Y0428970D01*
X0127996Y0428984D01*
X0127611Y0429008D01*
X0127225Y0429041D01*
X0126841Y0429083D01*
X0126458Y0429135D01*
X0126077Y0429197D01*
X0125697Y0429268D01*
X0125319Y0429348D01*
X0124943Y0429437D01*
X0124569Y0429535D01*
X0124198Y0429643D01*
X0123829Y0429760D01*
X0123464Y0429886D01*
X0123101Y0430020D01*
X0122743Y0430164D01*
X0122387Y0430316D01*
X0122036Y0430477D01*
X0121689Y0430647D01*
X0121345Y0430825D01*
X0121007Y0431011D01*
X0120673Y0431205D01*
X0120344Y0431408D01*
X0120020Y0431619D01*
X0119701Y0431838D01*
X0119388Y0432064D01*
X0119080Y0432298D01*
X0118779Y0432540D01*
X0118483Y0432788D01*
X0118193Y0433045D01*
X0117910Y0433308D01*
X0117633Y0433577D01*
X0117364Y0433854D01*
X0117101Y0434137D01*
X0116844Y0434427D01*
X0116596Y0434723D01*
X0116354Y0435024D01*
X0116120Y0435332D01*
X0115894Y0435645D01*
X0115675Y0435964D01*
X0115464Y0436288D01*
X0115261Y0436617D01*
X0115067Y0436951D01*
X0114881Y0437289D01*
X0114703Y0437633D01*
X0114533Y0437980D01*
X0114372Y0438331D01*
X0114220Y0438687D01*
X0114076Y0439045D01*
X0113942Y0439408D01*
X0113816Y0439773D01*
X0113699Y0440142D01*
X0113591Y0440513D01*
X0113493Y0440887D01*
X0113404Y0441263D01*
X0113324Y0441641D01*
X0113253Y0442021D01*
X0113191Y0442402D01*
X0113139Y0442785D01*
X0113097Y0443169D01*
X0113064Y0443555D01*
X0113040Y0443940D01*
X0113026Y0444327D01*
X0113021Y0444713D01*
X0113021Y0397469D02*
X0113026Y0397855D01*
X0113040Y0398242D01*
X0113064Y0398627D01*
X0113097Y0399013D01*
X0113139Y0399397D01*
X0113191Y0399780D01*
X0113253Y0400161D01*
X0113324Y0400541D01*
X0113404Y0400919D01*
X0113493Y0401295D01*
X0113591Y0401669D01*
X0113699Y0402040D01*
X0113816Y0402409D01*
X0113942Y0402774D01*
X0114076Y0403137D01*
X0114220Y0403495D01*
X0114372Y0403851D01*
X0114533Y0404202D01*
X0114703Y0404549D01*
X0114881Y0404893D01*
X0115067Y0405231D01*
X0115261Y0405565D01*
X0115464Y0405894D01*
X0115675Y0406218D01*
X0115894Y0406537D01*
X0116120Y0406850D01*
X0116354Y0407158D01*
X0116596Y0407459D01*
X0116844Y0407755D01*
X0117101Y0408045D01*
X0117364Y0408328D01*
X0117633Y0408605D01*
X0117910Y0408874D01*
X0118193Y0409137D01*
X0118483Y0409394D01*
X0118779Y0409642D01*
X0119080Y0409884D01*
X0119388Y0410118D01*
X0119701Y0410344D01*
X0120020Y0410563D01*
X0120344Y0410774D01*
X0120673Y0410977D01*
X0121007Y0411171D01*
X0121345Y0411357D01*
X0121689Y0411535D01*
X0122036Y0411705D01*
X0122387Y0411866D01*
X0122743Y0412018D01*
X0123101Y0412162D01*
X0123464Y0412296D01*
X0123829Y0412422D01*
X0124198Y0412539D01*
X0124569Y0412647D01*
X0124943Y0412745D01*
X0125319Y0412834D01*
X0125697Y0412914D01*
X0126077Y0412985D01*
X0126458Y0413047D01*
X0126841Y0413099D01*
X0127225Y0413141D01*
X0127611Y0413174D01*
X0127996Y0413198D01*
X0128383Y0413212D01*
X0128769Y0413217D01*
X0129155Y0413212D01*
X0129542Y0413198D01*
X0129927Y0413174D01*
X0130313Y0413141D01*
X0130697Y0413099D01*
X0131080Y0413047D01*
X0131461Y0412985D01*
X0131841Y0412914D01*
X0132219Y0412834D01*
X0132595Y0412745D01*
X0132969Y0412647D01*
X0133340Y0412539D01*
X0133709Y0412422D01*
X0134074Y0412296D01*
X0134437Y0412162D01*
X0134795Y0412018D01*
X0135151Y0411866D01*
X0135502Y0411705D01*
X0135849Y0411535D01*
X0136193Y0411357D01*
X0136531Y0411171D01*
X0136865Y0410977D01*
X0137194Y0410774D01*
X0137518Y0410563D01*
X0137837Y0410344D01*
X0138150Y0410118D01*
X0138458Y0409884D01*
X0138759Y0409642D01*
X0139055Y0409394D01*
X0139345Y0409137D01*
X0139628Y0408874D01*
X0139905Y0408605D01*
X0140174Y0408328D01*
X0140437Y0408045D01*
X0140694Y0407755D01*
X0140942Y0407459D01*
X0141184Y0407158D01*
X0141418Y0406850D01*
X0141644Y0406537D01*
X0141863Y0406218D01*
X0142074Y0405894D01*
X0142277Y0405565D01*
X0142471Y0405231D01*
X0142657Y0404893D01*
X0142835Y0404549D01*
X0143005Y0404202D01*
X0143166Y0403851D01*
X0143318Y0403495D01*
X0143462Y0403137D01*
X0143596Y0402774D01*
X0143722Y0402409D01*
X0143839Y0402040D01*
X0143947Y0401669D01*
X0144045Y0401295D01*
X0144134Y0400919D01*
X0144214Y0400541D01*
X0144285Y0400161D01*
X0144347Y0399780D01*
X0144399Y0399397D01*
X0144441Y0399013D01*
X0144474Y0398627D01*
X0144498Y0398242D01*
X0144512Y0397855D01*
X0144517Y0397469D01*
X0144512Y0397083D01*
X0144498Y0396696D01*
X0144474Y0396311D01*
X0144441Y0395925D01*
X0144399Y0395541D01*
X0144347Y0395158D01*
X0144285Y0394777D01*
X0144214Y0394397D01*
X0144134Y0394019D01*
X0144045Y0393643D01*
X0143947Y0393269D01*
X0143839Y0392898D01*
X0143722Y0392529D01*
X0143596Y0392164D01*
X0143462Y0391801D01*
X0143318Y0391443D01*
X0143166Y0391087D01*
X0143005Y0390736D01*
X0142835Y0390389D01*
X0142657Y0390045D01*
X0142471Y0389707D01*
X0142277Y0389373D01*
X0142074Y0389044D01*
X0141863Y0388720D01*
X0141644Y0388401D01*
X0141418Y0388088D01*
X0141184Y0387780D01*
X0140942Y0387479D01*
X0140694Y0387183D01*
X0140437Y0386893D01*
X0140174Y0386610D01*
X0139905Y0386333D01*
X0139628Y0386064D01*
X0139345Y0385801D01*
X0139055Y0385544D01*
X0138759Y0385296D01*
X0138458Y0385054D01*
X0138150Y0384820D01*
X0137837Y0384594D01*
X0137518Y0384375D01*
X0137194Y0384164D01*
X0136865Y0383961D01*
X0136531Y0383767D01*
X0136193Y0383581D01*
X0135849Y0383403D01*
X0135502Y0383233D01*
X0135151Y0383072D01*
X0134795Y0382920D01*
X0134437Y0382776D01*
X0134074Y0382642D01*
X0133709Y0382516D01*
X0133340Y0382399D01*
X0132969Y0382291D01*
X0132595Y0382193D01*
X0132219Y0382104D01*
X0131841Y0382024D01*
X0131461Y0381953D01*
X0131080Y0381891D01*
X0130697Y0381839D01*
X0130313Y0381797D01*
X0129927Y0381764D01*
X0129542Y0381740D01*
X0129155Y0381726D01*
X0128769Y0381721D01*
X0128383Y0381726D01*
X0127996Y0381740D01*
X0127611Y0381764D01*
X0127225Y0381797D01*
X0126841Y0381839D01*
X0126458Y0381891D01*
X0126077Y0381953D01*
X0125697Y0382024D01*
X0125319Y0382104D01*
X0124943Y0382193D01*
X0124569Y0382291D01*
X0124198Y0382399D01*
X0123829Y0382516D01*
X0123464Y0382642D01*
X0123101Y0382776D01*
X0122743Y0382920D01*
X0122387Y0383072D01*
X0122036Y0383233D01*
X0121689Y0383403D01*
X0121345Y0383581D01*
X0121007Y0383767D01*
X0120673Y0383961D01*
X0120344Y0384164D01*
X0120020Y0384375D01*
X0119701Y0384594D01*
X0119388Y0384820D01*
X0119080Y0385054D01*
X0118779Y0385296D01*
X0118483Y0385544D01*
X0118193Y0385801D01*
X0117910Y0386064D01*
X0117633Y0386333D01*
X0117364Y0386610D01*
X0117101Y0386893D01*
X0116844Y0387183D01*
X0116596Y0387479D01*
X0116354Y0387780D01*
X0116120Y0388088D01*
X0115894Y0388401D01*
X0115675Y0388720D01*
X0115464Y0389044D01*
X0115261Y0389373D01*
X0115067Y0389707D01*
X0114881Y0390045D01*
X0114703Y0390389D01*
X0114533Y0390736D01*
X0114372Y0391087D01*
X0114220Y0391443D01*
X0114076Y0391801D01*
X0113942Y0392164D01*
X0113816Y0392529D01*
X0113699Y0392898D01*
X0113591Y0393269D01*
X0113493Y0393643D01*
X0113404Y0394019D01*
X0113324Y0394397D01*
X0113253Y0394777D01*
X0113191Y0395158D01*
X0113139Y0395541D01*
X0113097Y0395925D01*
X0113064Y0396311D01*
X0113040Y0396696D01*
X0113026Y0397083D01*
X0113021Y0397469D01*
X0113021Y0350225D02*
X0113026Y0350611D01*
X0113040Y0350998D01*
X0113064Y0351383D01*
X0113097Y0351769D01*
X0113139Y0352153D01*
X0113191Y0352536D01*
X0113253Y0352917D01*
X0113324Y0353297D01*
X0113404Y0353675D01*
X0113493Y0354051D01*
X0113591Y0354425D01*
X0113699Y0354796D01*
X0113816Y0355165D01*
X0113942Y0355530D01*
X0114076Y0355893D01*
X0114220Y0356251D01*
X0114372Y0356607D01*
X0114533Y0356958D01*
X0114703Y0357305D01*
X0114881Y0357649D01*
X0115067Y0357987D01*
X0115261Y0358321D01*
X0115464Y0358650D01*
X0115675Y0358974D01*
X0115894Y0359293D01*
X0116120Y0359606D01*
X0116354Y0359914D01*
X0116596Y0360215D01*
X0116844Y0360511D01*
X0117101Y0360801D01*
X0117364Y0361084D01*
X0117633Y0361361D01*
X0117910Y0361630D01*
X0118193Y0361893D01*
X0118483Y0362150D01*
X0118779Y0362398D01*
X0119080Y0362640D01*
X0119388Y0362874D01*
X0119701Y0363100D01*
X0120020Y0363319D01*
X0120344Y0363530D01*
X0120673Y0363733D01*
X0121007Y0363927D01*
X0121345Y0364113D01*
X0121689Y0364291D01*
X0122036Y0364461D01*
X0122387Y0364622D01*
X0122743Y0364774D01*
X0123101Y0364918D01*
X0123464Y0365052D01*
X0123829Y0365178D01*
X0124198Y0365295D01*
X0124569Y0365403D01*
X0124943Y0365501D01*
X0125319Y0365590D01*
X0125697Y0365670D01*
X0126077Y0365741D01*
X0126458Y0365803D01*
X0126841Y0365855D01*
X0127225Y0365897D01*
X0127611Y0365930D01*
X0127996Y0365954D01*
X0128383Y0365968D01*
X0128769Y0365973D01*
X0129155Y0365968D01*
X0129542Y0365954D01*
X0129927Y0365930D01*
X0130313Y0365897D01*
X0130697Y0365855D01*
X0131080Y0365803D01*
X0131461Y0365741D01*
X0131841Y0365670D01*
X0132219Y0365590D01*
X0132595Y0365501D01*
X0132969Y0365403D01*
X0133340Y0365295D01*
X0133709Y0365178D01*
X0134074Y0365052D01*
X0134437Y0364918D01*
X0134795Y0364774D01*
X0135151Y0364622D01*
X0135502Y0364461D01*
X0135849Y0364291D01*
X0136193Y0364113D01*
X0136531Y0363927D01*
X0136865Y0363733D01*
X0137194Y0363530D01*
X0137518Y0363319D01*
X0137837Y0363100D01*
X0138150Y0362874D01*
X0138458Y0362640D01*
X0138759Y0362398D01*
X0139055Y0362150D01*
X0139345Y0361893D01*
X0139628Y0361630D01*
X0139905Y0361361D01*
X0140174Y0361084D01*
X0140437Y0360801D01*
X0140694Y0360511D01*
X0140942Y0360215D01*
X0141184Y0359914D01*
X0141418Y0359606D01*
X0141644Y0359293D01*
X0141863Y0358974D01*
X0142074Y0358650D01*
X0142277Y0358321D01*
X0142471Y0357987D01*
X0142657Y0357649D01*
X0142835Y0357305D01*
X0143005Y0356958D01*
X0143166Y0356607D01*
X0143318Y0356251D01*
X0143462Y0355893D01*
X0143596Y0355530D01*
X0143722Y0355165D01*
X0143839Y0354796D01*
X0143947Y0354425D01*
X0144045Y0354051D01*
X0144134Y0353675D01*
X0144214Y0353297D01*
X0144285Y0352917D01*
X0144347Y0352536D01*
X0144399Y0352153D01*
X0144441Y0351769D01*
X0144474Y0351383D01*
X0144498Y0350998D01*
X0144512Y0350611D01*
X0144517Y0350225D01*
X0144512Y0349839D01*
X0144498Y0349452D01*
X0144474Y0349067D01*
X0144441Y0348681D01*
X0144399Y0348297D01*
X0144347Y0347914D01*
X0144285Y0347533D01*
X0144214Y0347153D01*
X0144134Y0346775D01*
X0144045Y0346399D01*
X0143947Y0346025D01*
X0143839Y0345654D01*
X0143722Y0345285D01*
X0143596Y0344920D01*
X0143462Y0344557D01*
X0143318Y0344199D01*
X0143166Y0343843D01*
X0143005Y0343492D01*
X0142835Y0343145D01*
X0142657Y0342801D01*
X0142471Y0342463D01*
X0142277Y0342129D01*
X0142074Y0341800D01*
X0141863Y0341476D01*
X0141644Y0341157D01*
X0141418Y0340844D01*
X0141184Y0340536D01*
X0140942Y0340235D01*
X0140694Y0339939D01*
X0140437Y0339649D01*
X0140174Y0339366D01*
X0139905Y0339089D01*
X0139628Y0338820D01*
X0139345Y0338557D01*
X0139055Y0338300D01*
X0138759Y0338052D01*
X0138458Y0337810D01*
X0138150Y0337576D01*
X0137837Y0337350D01*
X0137518Y0337131D01*
X0137194Y0336920D01*
X0136865Y0336717D01*
X0136531Y0336523D01*
X0136193Y0336337D01*
X0135849Y0336159D01*
X0135502Y0335989D01*
X0135151Y0335828D01*
X0134795Y0335676D01*
X0134437Y0335532D01*
X0134074Y0335398D01*
X0133709Y0335272D01*
X0133340Y0335155D01*
X0132969Y0335047D01*
X0132595Y0334949D01*
X0132219Y0334860D01*
X0131841Y0334780D01*
X0131461Y0334709D01*
X0131080Y0334647D01*
X0130697Y0334595D01*
X0130313Y0334553D01*
X0129927Y0334520D01*
X0129542Y0334496D01*
X0129155Y0334482D01*
X0128769Y0334477D01*
X0128383Y0334482D01*
X0127996Y0334496D01*
X0127611Y0334520D01*
X0127225Y0334553D01*
X0126841Y0334595D01*
X0126458Y0334647D01*
X0126077Y0334709D01*
X0125697Y0334780D01*
X0125319Y0334860D01*
X0124943Y0334949D01*
X0124569Y0335047D01*
X0124198Y0335155D01*
X0123829Y0335272D01*
X0123464Y0335398D01*
X0123101Y0335532D01*
X0122743Y0335676D01*
X0122387Y0335828D01*
X0122036Y0335989D01*
X0121689Y0336159D01*
X0121345Y0336337D01*
X0121007Y0336523D01*
X0120673Y0336717D01*
X0120344Y0336920D01*
X0120020Y0337131D01*
X0119701Y0337350D01*
X0119388Y0337576D01*
X0119080Y0337810D01*
X0118779Y0338052D01*
X0118483Y0338300D01*
X0118193Y0338557D01*
X0117910Y0338820D01*
X0117633Y0339089D01*
X0117364Y0339366D01*
X0117101Y0339649D01*
X0116844Y0339939D01*
X0116596Y0340235D01*
X0116354Y0340536D01*
X0116120Y0340844D01*
X0115894Y0341157D01*
X0115675Y0341476D01*
X0115464Y0341800D01*
X0115261Y0342129D01*
X0115067Y0342463D01*
X0114881Y0342801D01*
X0114703Y0343145D01*
X0114533Y0343492D01*
X0114372Y0343843D01*
X0114220Y0344199D01*
X0114076Y0344557D01*
X0113942Y0344920D01*
X0113816Y0345285D01*
X0113699Y0345654D01*
X0113591Y0346025D01*
X0113493Y0346399D01*
X0113404Y0346775D01*
X0113324Y0347153D01*
X0113253Y0347533D01*
X0113191Y0347914D01*
X0113139Y0348297D01*
X0113097Y0348681D01*
X0113064Y0349067D01*
X0113040Y0349452D01*
X0113026Y0349839D01*
X0113021Y0350225D01*
X0040186Y0615973D02*
X0014595Y0615973D01*
X0014595Y0736052D01*
X0040186Y0736052D01*
X0040186Y0615973D01*
D15*
X0011423Y0661213D02*
X0012191Y0661980D01*
X0012191Y0662747D01*
X0011423Y0663515D01*
X0007587Y0663515D01*
X0007587Y0664282D02*
X0007587Y0662747D01*
X0009121Y0665817D02*
X0011423Y0665817D01*
X0012191Y0666584D01*
X0012191Y0668886D01*
X0009121Y0668886D01*
X0007587Y0670420D02*
X0012191Y0670420D01*
X0010656Y0670420D02*
X0009121Y0672722D01*
X0009889Y0674257D02*
X0009121Y0675024D01*
X0009121Y0676559D01*
X0009889Y0677326D01*
X0010656Y0677326D01*
X0010656Y0674257D01*
X0011423Y0674257D02*
X0009889Y0674257D01*
X0011423Y0674257D02*
X0012191Y0675024D01*
X0012191Y0676559D01*
X0012191Y0678861D02*
X0007587Y0678861D01*
X0009889Y0679628D02*
X0012191Y0681930D01*
X0011423Y0683465D02*
X0009889Y0683465D01*
X0009121Y0684232D01*
X0009121Y0685767D01*
X0009889Y0686534D01*
X0010656Y0686534D01*
X0010656Y0683465D01*
X0011423Y0683465D02*
X0012191Y0684232D01*
X0012191Y0685767D01*
X0011423Y0688069D02*
X0012191Y0688836D01*
X0012191Y0691138D01*
X0012958Y0691138D02*
X0013725Y0690371D01*
X0013725Y0689603D01*
X0012958Y0691138D02*
X0009121Y0691138D01*
X0009889Y0692673D02*
X0009121Y0693440D01*
X0009121Y0695742D01*
X0010656Y0694975D02*
X0010656Y0693440D01*
X0009889Y0692673D01*
X0012191Y0692673D02*
X0012191Y0694975D01*
X0011423Y0695742D01*
X0010656Y0694975D01*
X0011423Y0688069D02*
X0009121Y0688069D01*
X0007587Y0681930D02*
X0010656Y0678861D01*
X0012191Y0672722D02*
X0010656Y0670420D01*
X0011423Y0145662D02*
X0010656Y0144894D01*
X0010656Y0143360D01*
X0009889Y0142592D01*
X0009121Y0143360D01*
X0009121Y0145662D01*
X0011423Y0145662D02*
X0012191Y0144894D01*
X0012191Y0142592D01*
X0012191Y0141058D02*
X0009889Y0141058D01*
X0009121Y0140290D01*
X0009121Y0137988D01*
X0012191Y0137988D01*
X0012191Y0136454D02*
X0012191Y0134919D01*
X0012191Y0135687D02*
X0009121Y0135687D01*
X0009121Y0134919D01*
X0007587Y0135687D02*
X0006819Y0135687D01*
X0009889Y0133385D02*
X0009121Y0132617D01*
X0009121Y0131083D01*
X0009889Y0130315D01*
X0011423Y0130315D01*
X0012191Y0131083D01*
X0012191Y0132617D01*
X0011423Y0133385D01*
X0009889Y0133385D01*
X0011423Y0128781D02*
X0012191Y0128013D01*
X0012191Y0126479D01*
X0011423Y0125711D01*
X0008354Y0125711D01*
X0007587Y0126479D01*
X0007587Y0128013D01*
X0008354Y0128781D01*
X0009889Y0124177D02*
X0010656Y0124177D01*
X0010656Y0121107D01*
X0011423Y0121107D02*
X0009889Y0121107D01*
X0009121Y0121875D01*
X0009121Y0123409D01*
X0009889Y0124177D01*
X0012191Y0123409D02*
X0012191Y0121875D01*
X0011423Y0121107D01*
X0012191Y0119573D02*
X0010656Y0117271D01*
X0009121Y0119573D01*
X0007587Y0117271D02*
X0012191Y0117271D01*
X0012191Y0115736D02*
X0009121Y0115736D01*
X0009121Y0112667D02*
X0011423Y0112667D01*
X0012191Y0113434D01*
X0012191Y0115736D01*
X0011423Y0110365D02*
X0007587Y0110365D01*
X0007587Y0109598D02*
X0007587Y0111132D01*
X0011423Y0110365D02*
X0012191Y0109598D01*
X0012191Y0108830D01*
X0011423Y0108063D01*
X0516996Y0105000D02*
X0520065Y0101931D01*
X0519298Y0102698D02*
X0521600Y0105000D01*
X0520833Y0106535D02*
X0519298Y0106535D01*
X0518531Y0107302D01*
X0518531Y0108837D01*
X0519298Y0109604D01*
X0520065Y0109604D01*
X0520065Y0106535D01*
X0520833Y0106535D02*
X0521600Y0107302D01*
X0521600Y0108837D01*
X0520833Y0111139D02*
X0518531Y0111139D01*
X0520833Y0111139D02*
X0521600Y0111906D01*
X0521600Y0114208D01*
X0522367Y0114208D02*
X0523135Y0113440D01*
X0523135Y0112673D01*
X0522367Y0114208D02*
X0518531Y0114208D01*
X0519298Y0115742D02*
X0518531Y0116510D01*
X0518531Y0118812D01*
X0520065Y0118044D02*
X0520065Y0116510D01*
X0519298Y0115742D01*
X0521600Y0115742D02*
X0521600Y0118044D01*
X0520833Y0118812D01*
X0520065Y0118044D01*
X0521600Y0101931D02*
X0516996Y0101931D01*
X0518531Y0099629D02*
X0519298Y0100396D01*
X0520065Y0100396D01*
X0520065Y0097327D01*
X0519298Y0097327D02*
X0518531Y0098094D01*
X0518531Y0099629D01*
X0519298Y0097327D02*
X0520833Y0097327D01*
X0521600Y0098094D01*
X0521600Y0099629D01*
X0521600Y0095792D02*
X0520065Y0093490D01*
X0518531Y0095792D01*
X0516996Y0093490D02*
X0521600Y0093490D01*
X0521600Y0091956D02*
X0518531Y0091956D01*
X0521600Y0091956D02*
X0521600Y0089654D01*
X0520833Y0088886D01*
X0518531Y0088886D01*
X0516996Y0087352D02*
X0516996Y0085817D01*
X0516996Y0086584D02*
X0520833Y0086584D01*
X0521600Y0085817D01*
X0521600Y0085050D01*
X0520833Y0084282D01*
X0520833Y0318635D02*
X0521600Y0319402D01*
X0521600Y0320169D01*
X0520833Y0320937D01*
X0516996Y0320937D01*
X0516996Y0321704D02*
X0516996Y0320169D01*
X0518531Y0323239D02*
X0520833Y0323239D01*
X0521600Y0324006D01*
X0521600Y0326308D01*
X0518531Y0326308D01*
X0520065Y0327843D02*
X0518531Y0330144D01*
X0519298Y0331679D02*
X0518531Y0332446D01*
X0518531Y0333981D01*
X0519298Y0334748D01*
X0520065Y0334748D01*
X0520065Y0331679D01*
X0519298Y0331679D02*
X0520833Y0331679D01*
X0521600Y0332446D01*
X0521600Y0333981D01*
X0521600Y0336283D02*
X0516996Y0336283D01*
X0516996Y0338585D01*
X0517763Y0339352D01*
X0519298Y0339352D01*
X0520065Y0338585D01*
X0520065Y0336283D01*
X0519298Y0340887D02*
X0520833Y0340887D01*
X0521600Y0341654D01*
X0521600Y0343189D01*
X0520833Y0343956D01*
X0519298Y0343956D01*
X0518531Y0343189D01*
X0518531Y0341654D01*
X0519298Y0340887D01*
X0518531Y0345491D02*
X0520833Y0345491D01*
X0521600Y0346258D01*
X0520833Y0347026D01*
X0521600Y0347793D01*
X0520833Y0348560D01*
X0518531Y0348560D01*
X0519298Y0350095D02*
X0518531Y0350862D01*
X0518531Y0352397D01*
X0519298Y0353164D01*
X0520065Y0353164D01*
X0520065Y0350095D01*
X0519298Y0350095D02*
X0520833Y0350095D01*
X0521600Y0350862D01*
X0521600Y0352397D01*
X0521600Y0354699D02*
X0518531Y0354699D01*
X0520065Y0354699D02*
X0518531Y0356233D01*
X0518531Y0357001D01*
X0521600Y0330144D02*
X0520065Y0327843D01*
X0521600Y0327843D02*
X0516996Y0327843D01*
X0520833Y0596178D02*
X0521600Y0596945D01*
X0521600Y0597712D01*
X0520833Y0598480D01*
X0516996Y0598480D01*
X0516996Y0599247D02*
X0516996Y0597712D01*
X0518531Y0600782D02*
X0520833Y0600782D01*
X0521600Y0601549D01*
X0521600Y0603851D01*
X0518531Y0603851D01*
X0520065Y0605385D02*
X0518531Y0607687D01*
X0519298Y0609222D02*
X0518531Y0609989D01*
X0518531Y0611524D01*
X0519298Y0612291D01*
X0520065Y0612291D01*
X0520065Y0609222D01*
X0519298Y0609222D02*
X0520833Y0609222D01*
X0521600Y0609989D01*
X0521600Y0611524D01*
X0521600Y0613826D02*
X0521600Y0616128D01*
X0520833Y0616895D01*
X0517763Y0616895D01*
X0516996Y0616128D01*
X0516996Y0613826D01*
X0521600Y0613826D01*
X0521600Y0618430D02*
X0521600Y0619965D01*
X0521600Y0619197D02*
X0518531Y0619197D01*
X0518531Y0618430D01*
X0516996Y0619197D02*
X0516229Y0619197D01*
X0519298Y0621499D02*
X0518531Y0622266D01*
X0518531Y0624568D01*
X0518531Y0626103D02*
X0518531Y0628405D01*
X0519298Y0629172D01*
X0520833Y0629172D01*
X0521600Y0628405D01*
X0521600Y0626103D01*
X0523135Y0626103D02*
X0518531Y0626103D01*
X0520833Y0624568D02*
X0520065Y0623801D01*
X0520065Y0622266D01*
X0519298Y0621499D01*
X0521600Y0621499D02*
X0521600Y0623801D01*
X0520833Y0624568D01*
X0521600Y0630707D02*
X0521600Y0632242D01*
X0521600Y0631474D02*
X0516996Y0631474D01*
X0516996Y0630707D01*
X0518531Y0634544D02*
X0518531Y0636078D01*
X0519298Y0636846D01*
X0521600Y0636846D01*
X0521600Y0634544D01*
X0520833Y0633776D01*
X0520065Y0634544D01*
X0520065Y0636846D01*
X0520833Y0638380D02*
X0521600Y0639148D01*
X0521600Y0641449D01*
X0522367Y0641449D02*
X0523135Y0640682D01*
X0523135Y0639915D01*
X0522367Y0641449D02*
X0518531Y0641449D01*
X0518531Y0638380D02*
X0520833Y0638380D01*
X0521600Y0607687D02*
X0520065Y0605385D01*
X0521600Y0605385D02*
X0516996Y0605385D01*
M02*
